<svg width="314" height="416" viewBox="0 0 314 416" fill="none" xmlns="http://www.w3.org/2000/svg">
<g clip-path="url(#clip0_28_817)">
<path d="M9.44576 139.986C6.56936 145.025 5.4221 181.992 12.6233 182.619C17.5319 183.047 17.6949 164.028 19.8898 148.25C22.1409 132.069 12.3222 134.948 9.44576 139.986Z" fill="#FFD3D4"/>
<path d="M13.451 175.287C19.2849 177.221 15.1395 224.955 11.7632 225.175C7.42106 225.458 6.33645 188.902 7.98584 180.683C9.63524 172.463 13.451 175.287 13.451 175.287Z" fill="#FFD3D4"/>
<path d="M6.7623 225.666C6.80422 223.52 8.11881 220.164 11.4755 219.504C14.9612 218.818 16.7979 224.238 16.9095 225.443C17.6687 233.639 14.7842 234.692 12.0017 235.509C9.21919 236.325 6.67505 230.132 6.7623 225.666Z" fill="#FFD3D4"/>
<path d="M16.1533 181.69C16.1533 181.69 -5.60212 168.869 1.38234 160.758C7.3706 153.804 4.68308 128.808 24.3737 128.808C26.4375 128.808 22.1926 177.362 16.1533 181.69Z" fill="#4282B8"/>
<path opacity="0.1" d="M11.5131 176.533C8.15953 177.017 9.10845 147.462 12.7656 148.398C16.4227 149.334 12.7583 176.353 11.5131 176.533Z" fill="black"/>
<path opacity="0.05" d="M67.018 389.973C69.6508 383.746 59.3254 373.362 43.9555 366.78C28.5856 360.197 13.9916 359.909 11.3589 366.135C8.72612 372.362 19.0516 382.746 34.4214 389.329C49.7913 395.911 64.3853 396.2 67.018 389.973Z" fill="black"/>
<path d="M54.6428 378.718C54.637 378.724 54.6351 378.732 54.6313 378.739L49.9665 379.146L53.2187 380.351C47.319 390.167 42.0465 382.327 41.3466 382.552C40.6264 382.784 38.6256 388.124 40.2582 392.506C40.6122 393.456 40.5697 393.574 41.1673 394.16C41.1981 394.499 41.2635 394.862 41.394 395.177C41.7705 396.088 44.4468 397.533 47.0216 397.533C49.5965 397.533 54.4427 393.25 54.4427 393.25V392.28C56.7254 390.774 59.0042 389.387 60.0229 389.331C62.0261 389.219 71.8218 382.552 71.8218 378.718C71.8218 374.884 58.9553 374.695 54.6428 378.718Z" fill="#4A4C56"/>
<path d="M53.655 380.297L50.173 379.155C50.1856 378.689 50.1958 378.222 50.214 377.765C50.3443 374.489 51.7281 369.279 48.7233 369.208C45.7185 369.137 41.7424 367.308 41.5195 376.654C41.5195 376.654 41.3842 382.484 41.5195 383.329C41.6549 384.173 43.0054 385.883 47.9319 385.883C49.1091 385.883 50.6289 385.205 50.6289 385.205C50.6289 385.205 53.9864 383.949 55.1867 381.706L53.655 380.297Z" fill="#FFD6D6"/>
<path d="M33.1408 364.961C33.135 364.966 33.1332 364.975 33.1294 364.982L28.4646 365.389L31.7168 366.594C25.817 376.41 20.5445 368.57 19.8446 368.795C19.1244 369.027 17.1237 374.367 18.7562 378.748C19.1103 379.699 19.0677 379.817 19.6654 380.403C19.6962 380.742 19.7615 381.105 19.892 381.42C20.2686 382.331 22.9448 383.776 25.5197 383.776C28.0945 383.776 32.9408 379.493 32.9408 379.493V378.523C35.2235 377.017 37.5022 375.63 38.5209 375.574C40.5242 375.462 50.3198 368.795 50.3198 364.961C50.3198 361.127 37.4533 360.938 33.1408 364.961Z" fill="#4A4C56"/>
<path d="M32.153 366.54L28.6709 365.398C28.6836 364.932 28.6938 364.465 28.712 364.008C28.8423 360.731 30.2261 355.522 27.2213 355.451C24.2165 355.38 20.2403 353.551 20.0175 362.897C20.0175 362.897 19.8822 368.727 20.0175 369.572C20.1529 370.416 21.5034 372.126 26.4299 372.126C27.6071 372.126 29.1269 371.448 29.1269 371.448C29.1269 371.448 32.4844 370.192 33.6847 367.949L32.153 366.54Z" fill="#FFD6D6"/>
<path d="M16.9347 206.82C10.2957 213.511 11.2398 223.761 13.9662 233.389C16.6925 243.017 43.4549 217.058 43.4549 217.058L16.9347 206.82Z" fill="#4F5056"/>
<path d="M36.9406 281.807C36.9406 281.807 34.2763 326.794 34.5524 359.89C34.5681 361.766 27.4482 367.849 25.439 367.94C22.9822 368.052 16.4881 365.813 16.6795 362.329C17.7776 342.344 13.9811 297.125 13.4749 279.807C12.6044 250.028 36.9406 281.807 36.9406 281.807Z" fill="#3C4358"/>
<path d="M13.1427 217.251C12.9207 263.727 9.9609 302.768 25.1347 303.672C44.6248 304.832 37.1666 246.832 39.2026 226.543C41.9742 198.923 13.2025 204.742 13.1427 217.251Z" fill="#3C4358"/>
<path opacity="0.1" d="M35.2426 324.172L27.6872 245.224C26.0279 244.007 24.1508 240.942 22.2121 237.355C22.2121 237.355 25.2153 246.847 27.0305 247.86C27.0305 247.86 26.9299 248.491 26.8682 249.01C25.1784 263.226 30.957 299.545 35.2426 324.172Z" fill="#1A1A1A"/>
<path d="M58.1158 294.37C58.1158 294.37 55.4515 341.154 55.7276 374.25C55.7433 376.126 48.6234 380.411 46.6143 380.503C44.1575 380.614 37.6634 378.376 37.8548 374.892C38.9528 354.906 33.9558 316.231 34.3364 298.909C34.6327 285.428 58.1158 294.37 58.1158 294.37Z" fill="#3C4358"/>
<path d="M31.5259 228.461C31.3039 274.937 31.1361 315.331 46.3099 316.234C65.8 317.395 55.5497 258.042 57.5858 237.753C60.3574 210.134 31.5857 215.952 31.5259 228.461Z" fill="#3C4358"/>
<path d="M58.5388 203.231C57.9268 196.73 56.2724 187.917 53.9783 179.796C51.104 169.62 56.4784 158.478 55.474 147.454C55.4576 147.274 55.4442 147.094 55.4243 146.913C54.187 135.713 41.2055 133.076 41.2055 133.076L24.3736 128.808C24.3736 128.808 14.5268 128.84 12.8376 135.033C11.1483 141.226 11.1186 159.952 11.8593 167.7C12.6001 175.449 12.5827 210.945 10.7766 223.543C10.1419 227.97 36.6018 236.073 43.4549 235.531C50.308 234.988 59.5466 229.876 61.405 227.021C62.1786 225.833 58.9754 207.868 58.5388 203.231Z" fill="#4282B8"/>
<path opacity="0.1" d="M54.9187 150.172C48.718 153.107 41.9992 158.507 42.382 168.073C42.8816 180.559 50.454 197.54 58.3286 206.149C57.7166 199.648 56.7367 188.819 54.5274 182.705C51.1261 173.291 55.1571 161.32 54.9187 150.172Z" fill="black"/>
<path d="M51.3122 157.79C48.5684 162.903 50.2896 199.664 57.5046 200.1C62.4227 200.398 62.0889 181.382 63.8711 165.551C65.6988 149.316 54.056 152.677 51.3122 157.79Z" fill="#FFD3D4"/>
<path d="M46.838 135.208C46.6267 134.625 59.4458 141.963 61.973 146.549C64.1591 150.516 69.0454 164.165 69.7564 176.048C70.0907 181.635 72.4265 183.823 72.1317 187.126C72.1317 187.126 60.7031 199.215 48.2005 193.994C48.2005 193.994 47.3396 158.681 44.8406 155.647C44.8406 155.647 47.1848 136.166 46.838 135.208Z" fill="#4282B8"/>
<path d="M33.6248 134.711C36.5818 134.715 40.7884 134.042 42.5523 133.597C42.5245 133.422 42.5046 133.23 42.4959 133.012C42.3743 129.973 46.3927 120.765 41.9574 117.901C37.5221 115.036 29.74 114.917 29.0857 120.162C28.5076 124.796 26.368 129.795 26.0654 130.344C27.28 131.879 29.9717 134.706 33.6248 134.711Z" fill="#FFCCCC"/>
<path d="M51.2039 99.4247C52.0364 100.636 50.8181 105.743 51.4519 108.352C53.4542 116.593 53.0606 127.715 39.2333 128.153C25.7227 128.58 25.1131 121.795 24.6852 113.116C24.2574 104.437 20.7253 100.451 29.7321 95.4345C38.7389 90.4179 47.7266 94.3645 51.2039 99.4247Z" fill="#FFD2D2"/>
<path d="M53.4271 100.437C53.9423 90.9357 39.7152 87.1657 32.8123 87.9468C30.037 88.2609 23.3265 90.2416 22.3471 94.1846C10.9158 104.623 23.9099 124.771 31.9851 125.859C35.4775 126.329 39.3605 125.674 41.3123 123.558C41.5882 123.258 42.7988 121.609 42.3968 121.664C41.064 121.845 38.8325 120.46 39.0712 115.733C39.4532 108.169 42.5067 111.861 43.2302 113.192C43.9538 114.523 44.2703 117.173 44.2703 117.173L45.1882 118.675L46.3336 114.342C48.6191 111.519 49.7843 109.448 50.5107 106.648C51.4525 103.844 52.9668 103.01 53.4271 100.437Z" fill="#3D4356"/>
<path d="M26.654 129.56C26.2483 129.721 25.3987 129.992 25.5518 130.608C25.7049 131.224 29.323 134.754 32.4814 135.065C35.6398 135.376 42.6683 134.799 43.1537 134.146C43.8916 133.154 27.251 129.324 26.654 129.56Z" fill="#FFCCCC"/>
<path d="M131.157 171.145C133.542 171.145 135.474 169.2 135.474 166.8C135.474 164.4 133.542 162.455 131.157 162.455C128.773 162.455 126.84 164.4 126.84 166.8C126.84 169.2 128.773 171.145 131.157 171.145Z" fill="#EDE6EB"/>
<path d="M159.19 147.15C162.767 147.15 165.666 144.232 165.666 140.632C165.666 137.033 162.767 134.115 159.19 134.115C155.614 134.115 152.714 137.033 152.714 140.632C152.714 144.232 155.614 147.15 159.19 147.15Z" fill="#EDE6EB"/>
<path d="M195.361 159.573C201.349 159.573 206.203 154.688 206.203 148.662C206.203 142.636 201.349 137.751 195.361 137.751C189.374 137.751 184.52 142.636 184.52 148.662C184.52 154.688 189.374 159.573 195.361 159.573Z" fill="#EDE6EB"/>
<path d="M247.962 146.342C282.676 146.342 310.818 118.019 310.818 83.0812C310.818 48.1434 282.676 19.8207 247.962 19.8207C213.247 19.8207 185.106 48.1434 185.106 83.0812C185.106 118.019 213.247 146.342 247.962 146.342Z" fill="#EDE6EB"/>
<path opacity="0.05" d="M250.228 134.137L220.657 116.954L227.16 113.176L256.731 130.358L250.228 134.137Z" fill="black"/>
<path d="M221.258 111.885V117.302L221.858 116.953V111.536L221.258 111.885Z" fill="#D3C2A8"/>
<path d="M235.743 120.303V125.72L236.343 125.371V119.954L235.743 120.303Z" fill="#D3C2A8"/>
<path opacity="0.05" d="M170.037 84.5664L217.366 57.0649L314 113.215L266.671 140.717L170.037 84.5664Z" fill="black"/>
<path d="M266.67 136.133L177.925 84.5665L217.366 61.6486L306.112 113.215L266.67 136.133Z" fill="#EFEFEF"/>
<path d="M266.67 136.133L177.925 84.5665V38.7307L266.67 90.2975V136.133Z" fill="#EFF6FA"/>
<path d="M197.279 84.212L187.419 78.4824V64.7317L197.279 70.4614V84.212Z" fill="#B9CCE3"/>
<path d="M250.228 128.032L220.657 110.85L227.16 107.071L256.731 124.253L250.228 128.032Z" fill="#D3CDC5"/>
<path d="M250.228 128.72V128.032L256.731 124.253V124.941L250.228 128.72Z" fill="#D3C2A8"/>
<path d="M250.228 128.72L220.657 111.537V110.85L250.228 128.032V128.72Z" fill="#D3C7B7"/>
<path d="M256.731 124.253L227.16 107.071V82.1635L256.731 99.346V124.253Z" fill="#B9CCE3"/>
<path d="M306.112 113.215L266.669 136.133V91.5564L286.39 55.5134L303.852 67.1339L306.112 68.6378V113.215Z" fill="#DBEBF4"/>
<path d="M289.262 58.4035L311.244 73.032L312.927 72.0536L289.262 56.3043L265.597 99.5559L267.281 98.5774L289.262 58.4035Z" fill="#4282B8"/>
<path opacity="0.1" d="M289.262 58.4035L311.244 73.032L312.927 72.0536L289.262 56.3043L265.597 99.5559L267.281 98.5774L289.262 58.4035Z" fill="black"/>
<path d="M192.63 0.153798L168.964 43.4053L216.295 15.903L192.63 0.153798Z" fill="#4282B8"/>
<path d="M285.282 113.768L275.421 119.498V105.747L285.282 100.018V113.768Z" fill="#B9CCE3"/>
<path d="M297.36 106.75L287.499 112.48V98.7294L297.36 92.9997V106.75Z" fill="#B9CCE3"/>
<path d="M219.325 108.59L203.789 99.5627V69.6138L219.325 78.6414V108.59Z" fill="#A38B7B"/>
<path d="M213.14 102.127L209.975 100.288V76.1214L213.14 77.9603V102.127Z" fill="#B9CCE3"/>
<path d="M206.028 94.0948C205.776 94.0948 205.572 93.8896 205.572 93.6365V92.6423C205.473 92.5756 205.38 92.476 205.301 92.3374C204.864 91.5762 204.767 89.4131 204.816 87.792C204.881 85.687 205.135 84.3488 205.572 83.8023V82.6218C205.572 82.3687 205.776 82.1635 206.028 82.1635C206.279 82.1635 206.483 82.3688 206.483 82.6218V83.9956C206.483 84.1595 206.397 84.3108 206.256 84.3927C205.658 84.9656 205.508 90.7409 206.043 91.8045C206.116 91.807 206.19 91.8273 206.256 91.8656C206.397 91.9475 206.483 92.0988 206.483 92.2626V93.6364C206.483 93.8895 206.279 94.0948 206.028 94.0948Z" fill="#D3CDC5"/>
<path d="M250.228 128.72V134.137L249.628 133.788V128.371L250.228 128.72Z" fill="#D3C7B7"/>
<path d="M235.743 120.303V125.72L235.143 125.371V119.954L235.743 120.303Z" fill="#D3C7B7"/>
<path d="M250.228 128.72V134.137L250.829 133.788V128.371L250.228 128.72Z" fill="#D3C2A8"/>
<path d="M221.258 111.885V117.302L220.657 116.953V111.536L221.258 111.885Z" fill="#D3C7B7"/>
<path d="M192.63 0.153798L176.14 30.2916L168.964 43.4053L265.597 99.5559L272.772 86.4413L289.262 56.3043L192.63 0.153798Z" fill="#4282B8"/>
<path d="M75.2849 69.145C73.102 66.9533 70.6883 66.8587 69.8938 68.9339C70.6883 66.8587 69.5628 63.3998 67.3798 61.2081C65.1969 59.0163 62.7832 58.9218 61.9887 60.9969C59.5271 67.4261 65.9616 79.2038 65.9616 79.2038C65.9616 79.2038 75.3372 83.2999 77.7988 76.8708C78.5933 74.7956 77.4678 71.3368 75.2849 69.145Z" fill="#4282B8"/>
<path d="M97.277 95.1965C95.0941 94.8514 93.9686 97.0023 94.7631 100.001C93.9685 97.0023 91.5549 94.2918 89.3719 93.9467C87.189 93.6017 86.0635 95.7525 86.858 98.751C89.3196 108.041 98.6952 114.84 98.6952 114.84C98.6952 114.84 105.13 110.54 102.668 101.25C101.874 98.252 99.4599 95.5416 97.277 95.1965Z" fill="#4282B8"/>
<path opacity="0.05" d="M115.623 411.98C117.889 406.619 108.999 397.679 95.7663 392.011C82.5332 386.344 69.9681 386.096 67.7014 391.457C65.4346 396.818 74.3246 405.758 87.5577 411.426C100.791 417.093 113.356 417.341 115.623 411.98Z" fill="#1A1A1A"/>
<path d="M60.7636 164.98C57.822 169.736 58.9395 205.978 63.8564 206.294C68.7733 206.61 69.1707 188.634 71.5724 173.603C74.0357 158.187 63.7051 160.224 60.7636 164.98Z" fill="#FFD0D2"/>
<path d="M62.7711 199.592C56.9963 201.614 62.6817 243.097 66.0644 243.032C69.0943 242.974 70.2796 212.382 68.3912 204.582C66.5028 196.782 62.7711 199.592 62.7711 199.592Z" fill="#FFD0D2"/>
<path d="M70.0533 240.865C69.8518 238.83 68.3501 235.743 65.1115 235.371C61.7486 234.986 60.4123 240.275 60.3971 241.428C60.2936 249.272 63.113 250.052 65.8178 250.615C68.5226 251.179 70.4728 245.102 70.0533 240.865Z" fill="#FFD0D2"/>
<path d="M71.4673 158.163C68.3512 158.761 63.5592 160.276 60.7678 163.722C56.2287 169.326 54.9668 188.644 55.3096 189.068C55.6127 189.443 59.8925 192.964 63.1433 192.964C76.2858 192.965 71.4673 158.163 71.4673 158.163Z" fill="#4282B8"/>
<path opacity="0.1" d="M69.7302 169.71C69.7302 169.71 67.3528 172.276 66.2507 174.467C63.3454 180.243 61.1023 188.721 66.9668 191.278C72.8313 193.836 69.7302 169.71 69.7302 169.71Z" fill="black"/>
<path d="M103.71 174.486C103.069 172.109 101.941 169.609 99.9814 167.293C95.699 162.231 88.6947 159.153 78.3222 157.699C76.5645 157.453 70.5789 156.743 66.954 160.158C62.0672 164.762 64.4951 174.429 65.0467 183.62C65.6223 193.214 69.698 194.83 67.1908 216.271C65.4121 231.481 83.2605 236.498 91.0357 236.733C98.8108 236.969 95.8696 231.819 99.995 231.907C104.12 231.996 104.58 223.583 103.744 219.614C103.591 218.887 103.465 218.059 103.382 217.104C103.322 216.414 103.382 215.65 103.445 214.814C103.531 213.66 103.622 212.365 103.405 210.904C101.654 199.099 101.156 197.422 105.531 185.795C105.667 185.433 105.791 185.061 105.913 184.689C107.004 181.358 104.435 177.176 103.71 174.486Z" fill="#4282B8"/>
<path opacity="0.1" d="M91.5074 191.998C92.11 198.864 99.5238 210.871 103.445 214.814C103.531 213.66 103.622 212.365 103.405 210.904C101.654 199.099 101.156 197.421 105.531 185.795C105.667 185.433 105.791 185.061 105.913 184.689C100.304 183.203 90.5859 181.499 91.5074 191.998Z" fill="black"/>
<path d="M77.9916 152.479C77.3786 155.288 75.7989 158.305 77.9404 159.285C80.082 160.265 86.5599 160.894 86.7057 159.035C86.8202 157.577 87.3396 151.597 86.7054 151.01C86.0712 150.422 77.9916 152.479 77.9916 152.479Z" fill="#FFC5C8"/>
<path d="M68.1121 202.955C68.131 203.626 67.0107 206.304 66.994 207.109C66.9773 207.914 66.7766 209.869 67.4702 210.665C67.6173 210.833 73.4508 215.937 75.2498 215.901C76.0749 215.884 92.6249 221.772 93.571 218.18C94.0097 216.515 68.6192 203.906 68.5334 203.485C68.4044 202.852 68.1121 202.955 68.1121 202.955Z" fill="#4282B8"/>
<path d="M71.8698 393.06C72.0067 394.144 73.436 395.927 73.436 397.331C73.436 398.735 73.0035 400.865 73.4979 401.069C73.7777 401.185 74.5431 401.035 74.8337 400.626C75.1243 400.216 74.0722 396.224 75.7872 394.791C77.5021 393.357 71.8698 393.06 71.8698 393.06Z" fill="#3B435A"/>
<path d="M72.7166 384.543C72.7166 384.543 69.7993 389.039 71.1072 392.55C72.4151 396.06 75.5587 396.523 77.3173 395.565C79.0759 394.607 83.6991 397.368 88.9149 395.784C91.7997 394.908 97.7405 390.538 95.5058 388.447C94.6671 387.662 88.9339 388.186 84.9683 390.005C82.8311 390.986 79.9061 388.461 77.3775 386.85C74.849 385.239 72.7166 384.543 72.7166 384.543Z" fill="#3B435A"/>
<path d="M66.6076 343.298C66.6076 343.298 74.647 379.287 71.9649 385.93C71.579 386.886 74.0002 386.002 77.3602 388.121C78.3372 388.737 79.2404 391.192 82.1901 391.311C86.6611 391.492 90.2585 391.675 87.7488 390.314C87.0546 389.938 80.151 387.982 79.2936 385.792C77.5146 381.249 82.0696 341.526 82.0696 341.526L66.6076 343.298Z" fill="#FFD6D6"/>
<path d="M90.553 402.976C90.6899 404.06 92.1192 405.843 92.1192 407.247C92.1192 408.652 91.6867 410.781 92.1811 410.986C92.4609 411.101 93.2263 410.952 93.5169 410.542C93.8075 410.133 92.7554 406.141 94.4704 404.707C96.1853 403.274 90.553 402.976 90.553 402.976Z" fill="#3B435A"/>
<path d="M91.3999 394.459C91.3999 394.459 88.4826 398.956 89.7904 402.466C91.0983 405.976 94.2419 406.439 96.0005 405.481C97.7592 404.524 102.382 407.285 107.598 405.701C110.483 404.824 116.424 400.455 114.189 398.363C113.35 397.578 107.617 398.102 103.652 399.922C101.514 400.902 98.5894 398.377 96.0608 396.766C93.5322 395.156 91.3999 394.459 91.3999 394.459Z" fill="#3B435A"/>
<path d="M85.2909 353.215C85.2909 353.215 93.3303 389.203 90.6481 395.847C90.2622 396.803 92.6834 395.919 96.0434 398.038C97.0205 398.654 97.9236 401.109 100.873 401.228C105.344 401.409 108.942 401.592 106.432 400.231C105.738 399.855 98.8343 397.898 97.9768 395.709C96.1978 391.165 100.753 351.443 100.753 351.443L85.2909 353.215Z" fill="#FFD6D6"/>
<path d="M76.0067 157.538C75.7042 157.612 75.1879 157.898 75.3137 158.342C75.4396 158.786 77.7589 161.006 80.7701 161.244C82.884 161.411 89.2184 162.611 89.6604 160.694C89.95 159.438 77.9505 157.063 76.0067 157.538Z" fill="#FFCCCC"/>
<path d="M75.2128 156.522C88.135 156.759 97.3368 153.377 94.8217 137.901C93.8149 131.696 90.7793 124.216 80.6747 123.702C59.2991 122.619 63.8805 156.316 75.2128 156.522Z" fill="#FFD0D2"/>
<path d="M64.4964 144.29C64.4964 144.29 61.8119 150.891 62.1724 153.224C62.5329 155.557 63.8503 157.84 66.0607 158.698C66.0607 158.698 63.6197 154.771 63.3247 152.989C63.1489 151.928 64.1959 149.871 64.5931 147.512C64.8623 145.913 64.4964 144.29 64.4964 144.29Z" fill="#434856"/>
<path d="M74.689 122.943C79.9122 121.173 92.8035 123.263 95.5267 138.766C95.5267 138.766 103.469 149.451 97.7818 153.724C97.7818 153.724 94.5393 158.796 90.3539 159.331C90.3539 159.331 86.8813 161.741 83.6713 160.886C83.6713 160.886 85.6336 160.698 85.5085 160.027C85.5085 160.027 81.8647 160.935 80.4153 160.368C80.4153 160.368 82.1587 162.122 83.3931 161.925C83.3931 161.925 77.5786 162.293 76.8637 161.77C76.8637 161.77 71.3582 161.457 70.9261 160.698C70.9261 160.698 65.0548 159.028 64.182 156.303C63.3091 153.578 64.0763 150.36 63.7593 147.438C63.4422 144.516 59.083 128.23 74.689 122.943Z" fill="#3B435A"/>
<path d="M77.7061 126.486C77.7061 126.486 82.5742 127.067 84.9542 132.977C87.8938 140.275 90.184 146.291 91.713 148.388C93.4932 150.83 94.6275 153.039 94.8576 155.376C95.0877 157.712 91.527 159.983 91.527 159.983C91.527 159.983 93.7721 156.973 93.311 154.713C92.85 152.453 89.9433 151.133 87.9953 144.981C82.5327 127.729 77.7061 126.486 77.7061 126.486Z" fill="#434856"/>
<path d="M75.7507 126.856C75.9079 127.886 78.1432 145.391 78.1682 147.915C78.1931 150.438 76.4516 153.147 78.5582 157.994C79.3109 159.726 81.6602 159.854 81.6602 159.854C81.6602 159.854 78.2165 161.687 77.0095 156.085C75.8025 150.482 77.1917 150.586 76.9506 147.721C76.7186 144.966 75.4895 137.778 75.4789 133.784C75.4683 129.79 75.7507 126.856 75.7507 126.856Z" fill="#434856"/>
<path d="M74.0002 125.803C74.0002 125.803 68.4766 127.242 67.0056 131.636C65.5346 136.031 66.9983 144.851 66.138 147.697C65.2438 150.655 66.4499 159.537 68.4139 160.944C70.3779 162.352 71.7985 162.775 73.5686 162.441C73.5686 162.441 68.7768 161.063 68.0174 156.992C67.2579 152.92 66.4825 151.44 67.6143 146.135C68.0164 144.251 67.1814 133.369 68.4025 131.197C70.047 128.273 74.0002 125.803 74.0002 125.803Z" fill="#434856"/>
<path d="M79.9764 125.132C79.9764 125.132 85.021 124.168 87.8948 127.176C90.7685 130.185 92.9423 137.929 94.728 139.913C96.5842 141.975 99.9615 150.037 99.1762 152.073C98.4114 154.055 96.6464 155.189 95.0782 155.601C95.0782 155.601 99.0257 153.33 98.0903 149.723C97.155 146.115 95.8754 143.092 92.9304 139.212C91.8844 137.834 88.4125 128.654 86.5901 127.359C84.1361 125.614 79.9764 125.132 79.9764 125.132Z" fill="#434856"/>
<path d="M95.4567 138.723C95.4567 138.723 97.9837 139.656 98.5431 141.657C99.1024 143.659 98.0322 146.117 98.0322 146.117C98.0322 146.117 98.1956 142.503 97.9891 141.895C97.7827 141.287 96.2084 140.472 96.2084 140.472L95.4567 138.723Z" fill="#3B435A"/>
<path d="M113.251 334.455C110.466 328.467 106.521 252.82 106.521 252.82C106.521 252.82 106.557 222.613 104.126 221.961C104.126 221.961 103.723 215.645 103.443 215.363C103.164 215.082 97.5025 218.722 90.1556 218.88C77.2628 219.157 67.8163 209.674 67.2687 209.673C66.2287 209.671 66.612 214.99 66.0403 216.744C62.3216 228.15 62.527 239.079 63.6623 246.338C64.7976 253.597 56.9049 341.195 53.2213 345.273C49.3627 349.545 61.3747 356.354 71.8698 354.348C83.2421 352.174 86.4059 358.477 93.5444 358.283C100.683 358.089 102.487 351.757 106.659 351.351C110.832 350.944 115.883 340.113 113.251 334.455Z" fill="#3B435A"/>
<path opacity="0.05" d="M96.0476 281.987C96.0476 281.987 96.475 346.859 95.4329 348.52C94.3909 350.182 92.5544 314.473 93.3337 302.071C94.113 289.669 93.9809 282.124 96.0476 281.987Z" fill="black"/>
<path opacity="0.05" d="M66.6076 354.632C66.6076 354.632 79.0643 304.75 79.0643 293.544C79.0643 282.339 84.0391 276.14 84.0391 276.14C84.0391 276.14 81.3148 300.388 81.1964 307.576C81.078 314.764 69.5726 354.579 69.5726 354.579C68.7707 354.697 67.7453 354.694 66.6076 354.632Z" fill="black"/>
<path opacity="0.05" d="M69.3007 257.455C68.7429 266.337 70.1408 289.536 69.3007 296.354C68.4607 303.172 63.6623 322.205 63.6623 322.205C63.6623 322.205 71.8478 306.865 71.8478 296.449C71.8478 286.033 69.3007 257.455 69.3007 257.455Z" fill="black"/>
<path d="M106.595 176.066C109.404 181.143 107.278 219.014 102.354 219.173C97.4291 219.332 97.5319 200.515 95.5488 184.708C93.515 168.498 103.786 170.988 106.595 176.066Z" fill="#FFD0D2"/>
<path d="M91.7727 185.347C92.7678 187.384 91.9615 199.472 96.0196 201.116C101.295 203.253 109.518 197.527 109.518 197.527C109.518 197.527 108.311 179.161 106.924 175.645C105.667 172.46 98.1069 164.864 96.4181 163.986C94.7294 163.108 88.7376 179.135 91.7727 185.347Z" fill="#4282B8"/>
<path d="M102.041 219.272C107.181 222.657 138.286 192.015 136.207 189.329C134.344 186.923 108.185 205.185 102.827 211.607C97.4687 218.029 102.041 219.272 102.041 219.272Z" fill="#FFD3D4"/>
<path d="M131.459 185.428C129.906 186.724 129.771 189.997 131.265 192.885C132.816 195.884 137.864 194.026 138.834 193.428C142.384 191.241 140.536 187.507 139.496 184.954C138.455 182.401 134.69 182.729 131.459 185.428Z" fill="#FFD3D4"/>
<path d="M137.207 185.638C140.226 181.654 142.132 178.581 143.093 179.926C144.054 181.27 140.127 186.957 139.18 187.23C138.234 187.503 137.207 185.638 137.207 185.638Z" fill="#FFD3D4"/>
<path d="M54.9514 198.167C52.6333 203.891 86.9683 226.568 90.5819 220.749C92.1879 218.162 69.8647 201.541 62.5767 197.476C55.2888 193.412 54.9514 198.167 54.9514 198.167Z" fill="#FFD3D4"/>
<path d="M92.3927 218.082C90.2824 218.393 85.0879 216.424 84.8568 219.858C84.6167 223.425 91.0598 226.048 92.2619 226.008C100.437 225.741 100.243 221.262 100.7 218.381C101.157 215.501 96.7849 217.436 92.3927 218.082Z" fill="#FFD3D4"/>
</g>
<defs>
<clipPath id="clip0_28_817">
<rect width="314" height="416" fill="white"/>
</clipPath>
</defs>
</svg>
