<svg width="206" height="235" viewBox="0 0 206 235" fill="none" xmlns="http://www.w3.org/2000/svg">
<g clip-path="url(#clip0_28_542)">
<path opacity="0.05" d="M140.262 206.291C141.953 202.306 135.321 195.66 125.449 191.447C115.577 187.234 106.203 187.049 104.512 191.035C102.821 195.02 109.453 201.665 119.325 205.878C129.197 210.091 138.571 210.276 140.262 206.291Z" fill="black"/>
<path d="M109.758 52.9074C107.012 56.0482 101.431 81.2135 104.942 81.4145C108.453 81.6154 115.504 66.2783 117.147 55.576C118.831 44.6 112.238 50.0716 109.758 52.9074Z" fill="#363E58"/>
<path opacity="0.1" d="M113.79 62.5806C113.79 62.5806 110.683 62.0803 111.341 70.3112C111.793 75.9577 111.438 77.4374 112.209 77.9909C113.164 78.6768 113.79 62.5806 113.79 62.5806Z" fill="black"/>
<path d="M137.883 97.3672C137.883 97.3672 142.685 100.625 139.785 112.671C136.886 124.717 117.771 109.321 117.771 109.321L131.762 97.3672L137.883 97.3672Z" fill="#3C4358"/>
<path d="M119.883 197.233C119.883 197.233 118.91 197.02 118.808 196.816C118.707 196.613 119.531 196.253 119.531 196.253L119.883 196.667V197.233Z" fill="#998E82"/>
<path d="M123.618 193.613C124.005 192 124.043 190.318 122.928 188.851C121.066 186.4 117.901 187.428 116.177 188.358C114.454 189.288 113.926 191.13 109.184 193.888C107.985 194.586 101.866 197.669 103.753 200.112C105.111 201.87 109.303 201.317 113.333 200.497C116.776 199.796 118.858 196.426 119.683 196.636C119.804 196.695 119.65 197.124 119.883 197.233C120.394 197.471 123.713 195.712 123.785 195.021C123.847 194.413 123.882 194.206 123.618 193.613Z" fill="#4A4C57"/>
<path d="M121.069 178.041C123.039 181.078 120.77 186.689 122.129 188.576C123.864 190.984 119.448 193.099 118.415 192.896C118.173 192.848 118.604 192.179 118.738 191.652C118.889 191.055 115.349 189.565 114.73 189.984C114.377 190.224 115.762 189.188 116.573 188.731C116.901 188.546 117.305 188.267 117.412 188.138C118.078 187.344 116.063 179.762 115.707 178.894C115.35 178.025 120.218 176.729 121.069 178.041Z" fill="#314058"/>
<path d="M125.826 139.877C125.826 139.877 124.589 170.347 124.758 190.578C124.768 191.725 120.4 193.047 119.168 193.102C117.661 193.171 113.677 191.802 113.794 189.672C114.468 177.456 111.741 149.241 111.43 138.655C110.896 120.451 125.826 139.877 125.826 139.877Z" fill="#3C4358"/>
<path d="M111.226 100.415C111.09 128.825 109.274 152.69 118.583 153.243C130.54 153.952 125.964 118.497 127.213 106.095C128.914 89.212 111.263 92.7688 111.226 100.415Z" fill="#3C4358"/>
<path d="M120.822 98.5005C120.959 98.545 121.069 98.6845 121.07 98.8135L121.079 101.039C121.079 101.166 120.97 101.234 120.833 101.19L117.263 100.026C117.126 99.9819 117.016 99.8425 117.015 99.7153L117.006 97.4895C117.006 97.3605 117.115 97.2926 117.252 97.3371L120.822 98.5005Z" fill="#BEBEBE"/>
<path d="M120.616 100.685L120.609 98.8645L117.469 97.8415L117.476 99.6624L120.616 100.685Z" fill="#4A4C57"/>
<path opacity="0.1" d="M122.26 108.766C121.717 108.996 119.766 109.447 119.785 110.296C120.022 120.693 122.127 150.563 124.784 165.774L122.26 108.766Z" fill="#1A1A1A"/>
<path d="M133.583 205.088C133.583 205.088 132.609 204.875 132.508 204.672C132.406 204.468 133.23 204.109 133.23 204.109L133.583 204.522V205.088Z" fill="#998E82"/>
<path d="M137.318 201.468C137.704 199.855 137.742 198.173 136.628 196.707C134.766 194.256 131.6 195.283 129.877 196.213C128.154 197.144 127.626 198.985 122.883 201.744C121.685 202.441 115.566 205.524 117.453 207.967C118.81 209.725 123.003 209.172 127.033 208.352C130.475 207.651 132.557 204.281 133.383 204.491C133.503 204.55 133.35 204.979 133.583 205.088C134.093 205.326 137.413 203.567 137.484 202.877C137.547 202.268 137.582 202.062 137.318 201.468Z" fill="#4A4C57"/>
<path d="M134.769 185.896C136.738 188.933 134.47 194.544 135.829 196.431C137.563 198.84 133.147 200.954 132.115 200.751C131.872 200.703 132.303 200.034 132.437 199.508C132.589 198.91 129.048 197.421 128.43 197.84C128.076 198.079 129.462 197.043 130.273 196.586C130.6 196.402 131.004 196.122 131.112 195.994C131.777 195.2 129.763 187.617 129.406 186.749C129.05 185.881 133.918 184.584 134.769 185.896Z" fill="#314058"/>
<path d="M138.725 149.14C138.725 149.14 137.579 178.026 137.749 198.257C137.758 199.404 133.391 200.726 132.158 200.782C130.651 200.85 126.667 199.481 126.784 197.352C127.458 185.135 123.946 163.385 123.709 152.797C123.487 142.898 138.725 149.14 138.725 149.14Z" fill="#3C4358"/>
<path d="M121.326 105.349C122.828 133.867 123.706 155.205 124.143 159.845C124.363 162.185 138.19 159.47 138.45 156.89C139.336 148.131 137.695 121.516 138.7 111.54C140.4 94.6565 120.924 97.7128 121.326 105.349Z" fill="#3C4358"/>
<path d="M117.312 53.5375L117.459 52.7066L117.312 53.5375Z" fill="#CDCDD5"/>
<path d="M139.47 66.6952C139.616 63.9667 139.531 61.7498 138.956 59.6228C138.498 57.932 137.693 56.1536 136.295 54.5064C134.202 52.0409 132.087 50.466 128.585 49.3857L128.502 48.6591C128.502 48.6591 125.063 47.6503 121.022 47.5765L120.862 47.9772C119.434 47.9466 117.595 48.2474 115.917 49.8222C112.429 53.0967 113.286 60.6014 113.286 67.1503C113.286 73.6992 117.177 69.2839 114.926 83.196C112.243 99.7826 118.51 96.957 130.656 98.7191C136.151 99.5162 137.204 100.577 137.204 97.9438C137.204 94.9902 137.385 94.1949 136.788 91.3716C136.679 90.8547 136.589 90.2657 136.53 89.586C136.428 88.4187 136.415 86.9827 136.546 85.1766C136.83 81.2796 139.406 67.9096 139.47 66.6952Z" fill="#ECF5FA"/>
<path d="M122.862 52.8408C123.219 52.3716 123.343 51.4961 123.343 51.4961L122.515 49.7712L121.22 50.8375C121.22 50.8375 120.98 51.9592 121.307 52.5485C121.365 52.6531 121.448 52.7464 121.555 52.8232L115.995 92.6461L119.162 96.5829L123.989 94.4677L122.766 52.9325C122.801 52.9071 122.833 52.8782 122.862 52.8408Z" fill="#4282B8"/>
<path d="M121.022 47.5376L119.966 47.4121L119.411 47.7423C117.934 47.9071 116.153 48.7431 114.774 49.6354C114.774 49.6354 111.168 53.7979 111.168 65.8691C111.168 70.8252 112.662 78.2316 112.789 82.0282C112.81 82.6432 112.606 84.8274 112.606 84.8274L112.135 88.4507C112.135 88.4507 112.043 89.1009 111.894 90.1653C111.765 90.1219 111.66 90.1095 111.598 90.1471C111.22 90.3741 110.391 92.681 110.655 93.0886C110.736 93.2134 111.023 93.491 111.387 93.8029C110.625 99.3024 109.553 101.89 109.539 102.912C109.508 105.19 111.337 106.962 112.789 106.875C113.943 106.806 118.055 96.6711 119.53 88.9356C119.912 86.9333 120.413 84.35 120.432 82.8755C120.458 80.9142 120.195 80.9221 119.576 80.1365C119.384 79.8938 119.16 79.5764 118.898 79.1007C117.126 75.8761 120.169 47.3974 121.022 47.5376Z" fill="#363E58"/>
<path opacity="0.05" d="M121.023 47.5376L119.966 47.4121L119.411 47.7423L117.46 49.5255L118.396 50.6372L115.902 50.9247C115.902 50.9247 113.514 78.808 119.576 80.1365C119.384 79.8938 119.16 79.5764 118.898 79.1007C117.126 75.8761 120.169 47.3974 121.023 47.5376Z" fill="white"/>
<path opacity="0.05" d="M112.584 94.3779C113.152 92.9892 113.484 91.6675 113.157 91.1751C112.83 90.6826 111.917 90.0055 111.598 90.1472C111.195 90.3259 110.349 92.7121 110.655 93.0886C110.981 93.4894 112.403 94.8231 112.584 94.3779Z" fill="white"/>
<g opacity="0.05">
<path d="M118.678 80.9695C119.061 81.1295 119.37 81.6117 119.369 82.0438C119.368 82.476 119.057 82.6964 118.674 82.5364C118.291 82.3764 117.982 81.8968 117.983 81.4645C117.984 81.0324 118.295 80.8094 118.678 80.9695Z" fill="black"/>
</g>
<g opacity="0.05">
<path d="M117.539 89.2053C117.922 89.3653 118.231 89.8475 118.23 90.2796C118.229 90.7119 117.918 90.9323 117.535 90.7722C117.152 90.6122 116.843 90.1327 116.844 89.7004C116.845 89.2683 117.156 89.0453 117.539 89.2053Z" fill="black"/>
</g>
<path d="M121.346 45.3796C120.908 47.3774 120.129 48.759 121.658 49.4558C123.187 50.1526 127.026 50.5258 128.006 49.6625C128.78 48.9802 128.018 44.7524 127.565 44.3343C127.113 43.9163 121.346 45.3796 121.346 45.3796Z" fill="#FFC9CA"/>
<path d="M120.484 48.8027L120.802 47.4121L122.515 49.7712L120.247 51.6388L120.484 48.8027Z" fill="#ECF5FA"/>
<path d="M124.154 53.1862L122.515 49.7712L128.316 47.6285L128.502 48.6592L128.233 49.7416L124.154 53.1862Z" fill="#ECF5FA"/>
<path opacity="0.5" d="M120.484 48.8027L120.802 47.4121L122.515 49.7712L120.247 51.6388L120.484 48.8027Z" fill="white"/>
<path opacity="0.5" d="M124.154 53.1862L122.515 49.7712L128.316 47.6285L128.502 48.6592L128.233 49.7416L124.154 53.1862Z" fill="white"/>
<path d="M139.949 94.8573C138.74 90.3713 138.565 88.9405 138.672 84.8413C138.782 80.6046 139.505 70.9071 139.69 63.9675C139.799 59.9046 139.724 56.7861 139.234 56.264C136.627 53.4865 132.275 50.3326 130.864 49.989L130.864 49.9888L128.502 48.6592C128.502 48.6592 123.865 76.3696 119.617 80.1885C119.617 80.1885 119.507 89.4174 119.521 90.1281C119.665 97.3658 123.181 111.266 125.832 112.911C128.483 114.555 141.626 108.182 141.451 104.35C141.383 102.857 140.721 97.722 139.949 94.8573Z" fill="#363E58"/>
<path opacity="0.05" d="M128.404 66.4861L132.406 67.5003V66.2356L128.876 65.2457C128.722 65.6567 128.564 66.0706 128.404 66.4861Z" fill="white"/>
<path opacity="0.05" d="M132.406 54.7146L129.778 53.3822L131.549 52.7066L130.864 49.989L128.502 48.6592C128.502 48.6592 123.865 76.3696 119.617 80.1885C125.05 80.0329 132.406 54.7146 132.406 54.7146Z" fill="white"/>
<path opacity="0.05" d="M127.066 96.0987C126.801 96.9135 126.969 98.5671 127.592 98.6953C128.214 98.8236 135.201 96.9446 135.944 96.0764C136.687 95.2081 135.748 93.0298 135.182 93.0899C134.616 93.1499 127.281 95.44 127.066 96.0987Z" fill="white"/>
<path opacity="0.1" d="M140.394 96.7985C139.185 92.3124 138.565 88.9405 138.672 84.8412C138.782 80.6046 139.505 70.9071 139.69 63.9675C137.242 66.7911 133.046 72.5127 133.157 78.4729C133.299 86.173 135.118 94.5137 140.394 96.7985Z" fill="black"/>
<path d="M142.037 58.6778C144.224 61.5538 143.868 87.2853 141.322 92.601C140.958 93.3604 137.373 93.003 136.933 93.0145C134.222 93.0853 135.538 79.5936 133.972 68.3715C132.365 56.8623 136.222 51.0286 142.037 58.6778Z" fill="#363E58"/>
<path d="M123.512 53.3506C122.928 54.6821 120.926 56.1851 118.707 55.4852C116.402 54.7584 116.24 50.6323 116.59 49.8905C117.965 46.9726 120.104 48.9141 122.03 49.3339C123.957 49.7537 123.989 52.2637 123.512 53.3506Z" fill="#FFCCCC"/>
<path d="M104.146 80.6388C105.218 83.1065 106.709 84.1334 109.118 82.9685C111.526 81.8036 122.931 56.8182 121.655 55.8104C120.379 54.8027 116.813 52.0304 115.789 53.1308C114.766 54.2313 103.073 78.1711 104.146 80.6388Z" fill="#363E58"/>
<path opacity="0.03" d="M104.146 80.6388C105.218 83.1065 106.709 84.1334 109.118 82.9685C111.526 81.8036 122.931 56.8182 121.655 55.8104C120.379 54.8027 116.813 52.0304 115.789 53.1308C114.766 54.2313 103.073 78.1711 104.146 80.6388Z" fill="white"/>
<g opacity="0.05">
<path d="M116.208 59.128C116.607 59.0889 117.038 58.7213 117.169 58.3097C117.3 57.898 117.083 57.5963 116.684 57.6354C116.285 57.6746 115.855 58.0396 115.724 58.4514C115.593 58.863 115.809 59.1671 116.208 59.128Z" fill="black"/>
</g>
<g opacity="0.05">
<path d="M117.438 56.7962C117.837 56.7571 118.267 56.3895 118.398 55.9779C118.529 55.5662 118.312 55.2645 117.913 55.3036C117.514 55.3428 117.085 55.7078 116.953 56.1196C116.822 56.5312 117.038 56.8353 117.438 56.7962Z" fill="black"/>
</g>
<path d="M106.989 82.8733C108.373 83.2725 112.674 82.3303 112.518 84.6411C112.357 87.0405 108.524 87.3032 107.723 87.1674C102.278 86.2441 102.589 83.1944 102.543 81.2323C102.497 79.2702 104.108 82.0423 106.989 82.8733Z" fill="#FFD3D4"/>
<path d="M141.503 90.1838C141.503 90.1838 142.238 93.2606 139.823 94.412C137.408 95.5635 111.017 89.6644 111.034 88.0355C111.051 86.4067 111.133 81.8831 112.63 81.773C114.127 81.6629 139.494 87.051 141.503 90.1838Z" fill="#363E58"/>
<path opacity="0.03" d="M141.503 90.1838C141.503 90.1838 142.238 93.2606 139.823 94.412C137.408 95.5635 111.017 89.6644 111.034 88.0355C111.051 86.4067 111.133 81.8831 112.63 81.773C114.127 81.6629 139.494 87.051 141.503 90.1838Z" fill="white"/>
<g opacity="0.05">
<path d="M115.706 89.0723C115.677 88.6711 115.323 88.2298 114.916 88.0871C114.509 87.9445 114.203 88.1538 114.231 88.5551C114.259 88.9563 114.611 89.3967 115.018 89.5394C115.425 89.6821 115.734 89.4736 115.706 89.0723Z" fill="black"/>
</g>
<g opacity="0.05">
<path d="M113.415 87.777C113.386 87.3757 113.032 86.9344 112.625 86.7918C112.218 86.6491 111.911 86.8584 111.94 87.2597C111.968 87.661 112.32 88.1014 112.727 88.244C113.134 88.3867 113.443 88.1782 113.415 87.777Z" fill="black"/>
</g>
<path d="M110.778 83.448C109.536 81.8241 106.517 80.7158 106.176 81.4164C105.835 82.1171 107.174 84.388 108.611 84.388C110.047 84.388 110.778 83.448 110.778 83.448Z" fill="#FFD3D4"/>
<path d="M113.974 33.2793C113.974 33.2793 113.839 36.2783 114.445 36.9377L115.864 31.9441L113.974 33.2793Z" fill="#434856"/>
<path d="M115.023 32.1771C113.253 34.6731 115.153 40.5207 115.153 40.5207C115.153 40.5207 114.775 47.5931 121.204 49.5041C126.315 51.0232 130.443 45.4981 130.443 45.4981C130.443 45.4981 137.415 31.8805 127.909 28.6644C119.148 25.7002 116.794 29.6811 115.023 32.1771Z" fill="#FFD3D4"/>
<path d="M134.363 33.9935C135.185 38.9496 130.443 45.4981 130.443 45.4981C130.443 45.4981 129.294 43.8438 130.211 43.959C131.371 44.1046 132.81 40.2844 131.528 38.9041C130.246 37.5239 129.214 40.63 129.214 40.63L128.347 42.004L127.356 37.2108C127.356 37.2108 133.778 30.4674 134.363 33.9935Z" fill="#434856"/>
<path d="M118.813 34.1281C119.388 33.4827 122.852 32.3149 126.151 37.3293C128.329 40.6394 131.164 38.1044 130.953 38.0465C129.804 37.7323 129.554 36.3438 129.554 36.3438C129.554 36.3438 133.943 37.3293 133.363 36.7922C132.322 35.8296 132.689 35.3108 132.689 35.3108C132.689 35.3108 135.625 35.7758 135.457 35.3759C134.578 33.2756 133.249 30.7043 132.766 29.1782C132.294 27.6839 126.974 24.769 124.77 26.1238C124.77 26.1238 121.49 24.4367 118.779 25.3497C116.893 25.9847 114.251 26.8634 113.815 30.4476C113.392 33.9226 111.91 36.3219 112.787 36.1983C113.664 36.0747 115.15 33.3269 116.538 33.2082C117.927 33.0895 118.813 34.1281 118.813 34.1281Z" fill="#3D4356"/>
<path opacity="0.05" d="M72.0352 211.051L54.9179 201.14L30.7099 215.156L47.8272 225.067L64.9445 234.978L89.1525 220.962L72.0352 211.051Z" fill="#1A1A1A"/>
<path d="M74.3389 128.553L69.0607 125.496L46.0338 140.194L50.1328 142.568L61.3286 147.666L84.3393 134.343L74.3389 128.553Z" fill="#697A94"/>
<path opacity="0.1" d="M69.0607 125.496L46.0338 140.194L50.1328 142.568L74.3389 128.553L69.0607 125.496Z" fill="black"/>
<path d="M30.771 129.974L53.7817 116.651L69.0603 125.497L46.0338 140.194L30.771 129.974Z" fill="#697A94"/>
<path d="M30.771 129.974V130.591L46.0338 140.812V140.194L30.771 129.974Z" fill="#536C92"/>
<path d="M50.1328 142.568V143.185L61.3287 148.283V147.666L50.1328 142.568Z" fill="#536C92"/>
<path d="M61.3286 148.283V147.666L84.3393 134.343V134.96L61.3286 148.283Z" fill="#3E5F94"/>
<path d="M50.1328 142.568L46.0338 140.194V140.812L50.1328 143.185V142.568Z" fill="#536C92"/>
<path d="M67.3515 126.547L67.3516 124.425L54.7369 119.243L35.4703 128.277L35.4703 130.398L48.085 137.702L67.3515 126.547Z" fill="#CFCFCF"/>
<path d="M67.3516 124.425C63.0767 121.159 58.8421 118.371 54.7369 117.122L35.4703 128.277C39.8336 129.742 44.032 132.216 48.085 135.581L67.3516 124.425Z" fill="#E6E6E6"/>
<path d="M79.9646 133.847L79.9646 131.725L67.3499 126.543L48.0833 135.577V137.698L60.698 145.002L79.9646 133.847Z" fill="#CFCFCF"/>
<path d="M79.9646 131.725C75.6897 128.459 71.4551 125.67 67.3499 124.421L48.0833 135.577C52.4466 137.042 56.645 139.516 60.698 142.88L79.9646 131.725Z" fill="#EFEFEF"/>
<path d="M73.3723 132.743L65.0703 127.936C64.9662 127.876 64.9661 127.778 65.0703 127.718C65.1744 127.658 65.3431 127.658 65.4471 127.718L73.7492 132.525C73.8532 132.585 73.8533 132.683 73.7492 132.743C73.645 132.803 73.4764 132.803 73.3723 132.743Z" fill="#C6C6C6"/>
<path d="M71.5593 133.793L63.2573 128.986C63.1532 128.926 63.1531 128.828 63.2573 128.768C63.3614 128.707 63.5301 128.707 63.6341 128.768L71.9362 133.575C72.0402 133.635 72.0403 133.732 71.9362 133.793C71.832 133.853 71.6634 133.853 71.5593 133.793Z" fill="#C6C6C6"/>
<path d="M69.7463 134.842L61.4443 130.036C61.3402 129.975 61.3401 129.878 61.4443 129.817C61.5484 129.757 61.7171 129.757 61.8211 129.817L70.1232 134.624C70.2272 134.684 70.2273 134.782 70.1232 134.842C70.019 134.903 69.8504 134.903 69.7463 134.842Z" fill="#C6C6C6"/>
<path d="M67.9335 135.892L59.6314 131.085C59.5274 131.025 59.5273 130.927 59.6314 130.867C59.7356 130.807 59.9042 130.807 60.0083 130.867L68.3103 135.674C68.4144 135.734 68.4145 135.832 68.3103 135.892C68.2062 135.952 68.0375 135.952 67.9335 135.892Z" fill="#C6C6C6"/>
<path d="M66.1205 136.942L57.8184 132.135C57.7144 132.075 57.7143 131.977 57.8184 131.917C57.9226 131.856 58.0912 131.857 58.1953 131.917L66.4973 136.724C66.6014 136.784 66.6015 136.882 66.4973 136.942C66.3932 137.002 66.2245 137.002 66.1205 136.942Z" fill="#C6C6C6"/>
<path d="M63.2419 138.609L59.0909 136.205C58.9868 136.145 58.9867 136.047 59.0909 135.987C59.195 135.927 59.3637 135.927 59.4677 135.987L63.6187 138.39C63.7228 138.451 63.7229 138.548 63.6187 138.609C63.5146 138.669 63.3459 138.669 63.2419 138.609Z" fill="#C6C6C6"/>
<path d="M57.3552 122.783C58.7676 123.601 60.1279 124.449 61.4263 125.321C61.5127 125.379 61.5015 125.467 61.4013 125.516C61.3011 125.567 61.1493 125.559 61.0636 125.502C58.482 123.768 55.6543 122.131 52.6593 120.636C52.5574 120.586 52.5478 120.498 52.6342 120.44C52.7205 120.382 52.8717 120.376 52.9719 120.426C54.4784 121.178 55.9429 121.965 57.3552 122.783Z" fill="#C6C6C6"/>
<path d="M55.802 123.642C57.2144 124.46 58.5747 125.308 59.8731 126.18C59.9595 126.238 59.9483 126.326 59.8481 126.376C59.7479 126.426 59.5961 126.418 59.5104 126.361C56.9288 124.627 54.1011 122.99 51.1061 121.495C51.0042 121.445 50.9946 121.358 51.081 121.3C51.1673 121.241 51.3185 121.235 51.4187 121.285C52.9252 122.037 54.3897 122.824 55.802 123.642Z" fill="#C6C6C6"/>
<path d="M54.2488 124.501C55.6612 125.319 57.0215 126.167 58.3199 127.039C58.4062 127.097 58.3951 127.185 58.2949 127.235C58.1947 127.285 58.0429 127.277 57.9572 127.22C55.3756 125.486 52.5479 123.849 49.5529 122.354C49.451 122.304 49.4414 122.217 49.5278 122.159C49.6141 122.101 49.7653 122.094 49.8655 122.144C51.372 122.896 52.8365 123.683 54.2488 124.501Z" fill="#C6C6C6"/>
<path d="M52.6956 125.36C54.108 126.178 55.4683 127.026 56.7667 127.898C56.8531 127.956 56.8419 128.044 56.7417 128.094C56.6415 128.144 56.4897 128.136 56.404 128.079C53.8224 126.345 50.9947 124.708 47.9997 123.213C47.8978 123.163 47.8882 123.076 47.9746 123.018C48.0609 122.96 48.2121 122.953 48.3123 123.003C49.8188 123.755 51.2833 124.543 52.6956 125.36Z" fill="#C6C6C6"/>
<path d="M51.1424 126.219C52.5548 127.037 53.9151 127.885 55.2135 128.757C55.2999 128.815 55.2887 128.903 55.1885 128.953C55.0883 129.003 54.9365 128.995 54.8508 128.938C52.2692 127.204 49.4415 125.567 46.4465 124.072C46.3446 124.022 46.335 123.935 46.4214 123.877C46.5077 123.819 46.6589 123.812 46.7591 123.862C48.2656 124.614 49.7301 125.402 51.1424 126.219Z" fill="#C6C6C6"/>
<path d="M49.5892 127.078C51.0016 127.896 52.3619 128.744 53.6603 129.616C53.7466 129.674 53.7355 129.762 53.6352 129.812C53.5351 129.862 53.3833 129.854 53.2976 129.798C50.716 128.063 47.8883 126.426 44.8933 124.931C44.7914 124.881 44.7818 124.794 44.8682 124.736C44.9545 124.678 45.1056 124.671 45.2059 124.721C46.7124 125.473 48.1769 126.261 49.5892 127.078Z" fill="#C6C6C6"/>
<path d="M48.5892 132.399C48.5835 132.395 48.5783 132.392 48.5731 132.389C46.1845 130.76 43.5004 129.206 40.5939 127.769C40.5352 127.739 40.4957 127.694 40.4925 127.648C40.4893 127.601 40.5199 127.555 40.5773 127.522L43.1656 126.023C43.271 125.962 43.4394 125.957 43.5548 126.012C46.492 127.405 49.2011 128.974 51.6072 130.675C51.7018 130.741 51.6934 130.839 51.588 130.9L48.9996 132.399C48.9423 132.432 48.8636 132.45 48.7826 132.448C48.7095 132.446 48.6405 132.428 48.5892 132.399ZM43.3899 126.369L41.2094 127.631C43.9654 129.006 46.5206 130.485 48.8112 132.032L50.9913 130.77C48.7071 129.171 46.1515 127.691 43.3899 126.369Z" fill="#C6C6C6"/>
<path d="M54.811 130.568C54.5426 130.413 54.5762 130.141 54.8862 129.962L59.6917 127.179C60.0016 127 60.4704 126.98 60.7388 127.136C61.0072 127.291 60.9735 127.563 60.6636 127.742L55.8581 130.524C55.5482 130.704 55.0794 130.723 54.811 130.568Z" fill="#4F5056"/>
<path d="M166.477 40.9104V21.0893L190.686 35.1061V54.9272L166.477 40.9104Z" fill="#EFEFEF"/>
<path d="M187.586 41.3813L169.577 30.9544C169.45 30.881 169.348 30.7028 169.348 30.556V28.0232C169.348 27.8764 169.45 27.817 169.577 27.8904L187.586 38.3174C187.713 38.3908 187.815 38.569 187.815 38.7158V41.2485C187.815 41.3953 187.713 41.4547 187.586 41.3813ZM169.807 30.556L187.357 40.7173V38.7158L169.807 28.5544V30.556Z" fill="#C6C6C6"/>
<path d="M187.586 43.9143L169.577 33.4874C169.45 33.414 169.348 33.2358 169.348 33.089V30.556C169.348 30.4092 169.45 30.3498 169.577 30.4232L187.586 40.8501C187.713 40.9236 187.815 41.1018 187.815 41.2485V43.7815C187.815 43.9283 187.713 43.9877 187.586 43.9143ZM169.807 33.089L187.357 43.2504V41.2485L169.807 31.0872C169.807 31.0872 169.807 33.089 169.807 33.089Z" fill="#C6C6C6"/>
<path d="M187.586 46.4471L169.577 36.0201C169.45 35.9467 169.348 35.7685 169.348 35.6217V33.089C169.348 32.9422 169.45 32.8828 169.577 32.9562L187.586 43.3831C187.713 43.4565 187.815 43.6347 187.815 43.7815V46.3143C187.815 46.4611 187.713 46.5205 187.586 46.4471ZM169.807 35.6217L187.357 45.7831V43.7815L169.807 33.6202C169.807 33.6202 169.807 35.6217 169.807 35.6217Z" fill="#C6C6C6"/>
<path d="M187.586 48.9801L180.766 45.0313C180.639 44.9579 180.537 44.7797 180.537 44.6329V42.0999C180.537 41.9531 180.639 41.8937 180.766 41.9671L187.586 45.9159C187.713 45.9893 187.815 46.1675 187.815 46.3143V48.8473C187.815 48.9941 187.713 49.0535 187.586 48.9801ZM180.995 44.6329L187.357 48.3161V46.3143L180.995 42.6311V44.6329Z" fill="#C6C6C6"/>
<path d="M180.766 45.0313L169.577 38.5531C169.45 38.4797 169.348 38.3015 169.348 38.1547V35.6217C169.348 35.4749 169.45 35.4156 169.577 35.4889L180.766 41.9671C180.893 42.0405 180.995 42.2187 180.995 42.3655V44.8985C180.995 45.0453 180.893 45.1047 180.766 45.0313ZM169.807 38.1548L180.537 44.3674V42.3655L169.807 36.1529L169.807 38.1548Z" fill="#C6C6C6"/>
<path d="M185.302 49.8938L180.95 47.374C180.823 47.3006 180.72 47.1224 180.72 46.9756C180.72 46.8288 180.823 46.7694 180.95 46.8428L185.302 49.3626C185.428 49.436 185.531 49.6142 185.531 49.761C185.531 49.9078 185.428 49.9672 185.302 49.8938Z" fill="#C6C6C6"/>
<path d="M180.758 32.6585L176.406 30.1386C176.279 30.0652 176.176 29.887 176.176 29.7402C176.176 29.5934 176.279 29.5341 176.406 29.6074L180.758 32.1273C180.884 32.2007 180.987 32.3789 180.987 32.5257C180.987 32.6725 180.884 32.7319 180.758 32.6585Z" fill="#C6C6C6"/>
<path d="M187.957 52.3564L186.358 51.4311C186.232 51.3577 186.129 51.1795 186.129 51.0327V49.1821C186.129 49.0353 186.232 48.9759 186.358 49.0493L187.957 49.9746C188.083 50.048 188.186 50.2262 188.186 50.373V52.2236C188.186 52.3704 188.083 52.4298 187.957 52.3564ZM186.588 51.0327L187.727 51.6924V50.373L186.588 49.7133V51.0327Z" fill="#BF272D"/>
<path d="M51.9375 120.655L52.0296 119.584L51.1591 119.738L51.6108 120.713L51.9375 120.655Z" fill="#BF272D"/>
<path opacity="0.1" d="M51.9375 120.655L52.0296 119.584L51.1591 119.738L51.6108 120.713L51.9375 120.655Z" fill="white"/>
<path d="M49.0577 107.889C48.9981 107.55 49.9031 107.39 49.9627 107.729C49.9627 107.729 50.0008 107.909 50.0656 108.217L49.1278 108.383C49.0835 108.071 49.0577 107.889 49.0577 107.889Z" fill="#BF272D"/>
<path d="M51.6414 115.948C51.6602 116.054 51.6783 116.164 51.6959 116.275L50.3441 116.514C50.3227 116.404 50.3023 116.295 50.2836 116.188C50.0606 114.92 49.4037 110.325 49.1548 108.574L50.1053 108.406C50.4689 110.137 51.4184 114.679 51.6414 115.948Z" fill="#BF272D"/>
<path d="M52.0545 119.543C52.0604 119.622 52.0058 119.692 51.9283 119.705L51.6119 119.761L51.2954 119.817C51.2179 119.831 51.1428 119.784 51.1214 119.708C51.0063 119.298 50.6528 118.013 50.4046 116.816L51.7418 116.579C51.917 117.79 52.023 119.118 52.0545 119.543Z" fill="#BF272D"/>
<path d="M51.7418 116.579L50.4046 116.816C50.3836 116.714 50.3634 116.614 50.3441 116.514L51.6959 116.275C51.7117 116.375 51.727 116.477 51.7418 116.579Z" fill="#C6AD91"/>
<path d="M50.0656 108.217C50.0778 108.276 50.091 108.338 50.1051 108.405L49.1548 108.573C49.1452 108.506 49.1361 108.442 49.1278 108.383L50.0656 108.217Z" fill="#C6AD91"/>
<path d="M50.0833 108.245C50.0833 108.245 50.2407 108.123 50.304 108.345C50.3674 108.566 51.1002 110.715 51.083 110.799C51.0658 110.883 50.9648 110.95 50.797 110.916C50.6264 110.881 50.0833 108.245 50.0833 108.245Z" fill="#C6AD91"/>
<path d="M51.5567 120.59L51.616 120.926C51.6349 121.034 51.7375 121.106 51.8451 121.087C51.9526 121.068 52.0244 120.965 52.0055 120.858L51.9462 120.521L51.5567 120.59Z" fill="#BF272D"/>
<path d="M84.714 37.9655L67.5967 28.0547V0.0219193L84.714 9.93278V37.9655Z" fill="#EFEFEF"/>
<path d="M78.7557 10.8554L73.5549 7.84417C73.4281 7.77075 73.3256 7.59256 73.3256 7.44576C73.3256 7.29897 73.4281 7.23958 73.5549 7.31296L78.7557 10.3242C78.8825 10.3976 78.9851 10.5758 78.9851 10.7226C78.9851 10.8694 78.8825 10.9288 78.7557 10.8554Z" fill="#C6C6C6"/>
<path d="M81.8634 16.9387L70.4474 10.3289C70.3206 10.2555 70.218 10.0773 70.218 9.93047C70.218 9.78368 70.3206 9.72429 70.4474 9.79767L81.8634 16.4075C81.9902 16.4809 82.0927 16.6591 82.0927 16.8059C82.0927 16.9527 81.9902 17.0121 81.8634 16.9387Z" fill="#C6C6C6"/>
<path d="M81.8634 20.2013L70.4474 13.5915C70.3206 13.5181 70.218 13.3399 70.218 13.1931C70.218 13.0463 70.3206 12.9869 70.4474 13.0603L81.8634 19.6701C81.9902 19.7435 82.0927 19.9217 82.0927 20.0685C82.0927 20.2153 81.9902 20.2747 81.8634 20.2013Z" fill="#C6C6C6"/>
<path d="M81.8634 23.4639L70.4474 16.8541C70.3206 16.7807 70.218 16.6025 70.218 16.4557C70.218 16.3089 70.3206 16.2495 70.4474 16.3229L81.8634 22.9327C81.9902 23.0061 82.0927 23.1843 82.0927 23.3311C82.0927 23.4779 81.9902 23.5373 81.8634 23.4639Z" fill="#C6C6C6"/>
<path d="M81.8634 26.7265L70.4474 20.1167C70.3206 20.0433 70.218 19.8651 70.218 19.7183C70.218 19.5715 70.3206 19.5121 70.4474 19.5855L81.8634 26.1953C81.9902 26.2688 82.0927 26.4469 82.0927 26.5937C82.0927 26.7405 81.9902 26.7999 81.8634 26.7265Z" fill="#C6C6C6"/>
<path d="M81.8634 29.9891L70.4474 23.3793C70.3206 23.3059 70.218 23.1277 70.218 22.9809C70.218 22.8341 70.3206 22.7747 70.4474 22.8481L81.8634 29.4579C81.9902 29.5314 82.0927 29.7095 82.0927 29.8563C82.0927 30.0031 81.9902 30.0625 81.8634 29.9891Z" fill="#C6C6C6"/>
<path d="M81.8634 33.2517L70.4474 26.6419C70.3206 26.5685 70.218 26.3903 70.218 26.2435C70.218 26.0967 70.3206 26.0373 70.4474 26.1107L81.8634 32.7205C81.9902 32.794 82.0927 32.9721 82.0927 33.1189C82.0927 33.2657 81.9902 33.3251 81.8634 33.2517Z" fill="#C6C6C6"/>
<path d="M69.8605 20.5899C69.847 20.5822 69.8335 20.5724 69.8202 20.561C69.768 20.5158 69.7252 20.4479 69.705 20.3784L69.2661 18.8613C69.2316 18.7418 69.2731 18.6529 69.359 18.6626C69.4441 18.6721 69.5423 18.7768 69.5769 18.8963L69.9293 20.1142L72.3055 19.162C72.3762 19.1335 72.4817 19.2051 72.5416 19.3214C72.6013 19.4378 72.5924 19.555 72.5218 19.5833L69.9686 20.6066C69.9382 20.619 69.8997 20.6127 69.8605 20.5899Z" fill="#BF272D"/>
<path d="M69.8605 23.2266C69.847 23.2188 69.8335 23.209 69.8202 23.1976C69.768 23.1524 69.7252 23.0845 69.705 23.0151L69.2661 21.4979C69.2316 21.3785 69.2731 21.2895 69.359 21.2993C69.4441 21.3087 69.5423 21.4134 69.5769 21.5329L69.9293 22.7509L72.3055 21.7986C72.3762 21.7701 72.4817 21.8418 72.5416 21.958C72.6013 22.0744 72.5924 22.1917 72.5218 22.2199L69.9686 23.2433C69.9382 23.2557 69.8997 23.2493 69.8605 23.2266Z" fill="#BF272D"/>
<path d="M69.8605 25.8632C69.847 25.8554 69.8335 25.8456 69.8202 25.8342C69.768 25.789 69.7252 25.7211 69.705 25.6517L69.2661 24.1345C69.2316 24.0151 69.2731 23.9261 69.359 23.9359C69.4441 23.9453 69.5423 24.05 69.5769 24.1695L69.9293 25.3875L72.3055 24.4352C72.3762 24.4067 72.4817 24.4784 72.5416 24.5946C72.6013 24.711 72.5924 24.8283 72.5218 24.8565L69.9686 25.8799C69.9382 25.8923 69.8997 25.8859 69.8605 25.8632Z" fill="#BF272D"/>
<path d="M174.076 137.27L156.959 127.359V99.3267L174.076 109.238V137.27Z" fill="#EFEFEF"/>
<path d="M171.302 130.842L159.734 124.145C159.607 124.071 159.505 123.893 159.505 123.746V110.671C159.505 110.524 159.607 110.464 159.734 110.538L171.302 117.235C171.428 117.309 171.531 117.487 171.531 117.634V130.709C171.531 130.856 171.428 130.915 171.302 130.842ZM159.963 123.746L171.072 130.178V117.634L159.963 111.202L159.963 123.746Z" fill="#C6C6C6"/>
<path d="M163.028 126.052C162.902 125.979 162.799 125.8 162.799 125.654V112.578C162.799 112.431 162.902 112.372 163.028 112.445C163.155 112.519 163.258 112.697 163.258 112.844V125.919C163.258 126.066 163.155 126.125 163.028 126.052Z" fill="#C6C6C6"/>
<path d="M167.078 128.397C166.952 128.324 166.849 128.145 166.849 127.999V114.923C166.849 114.776 166.952 114.717 167.078 114.79C167.205 114.864 167.308 115.042 167.308 115.189V128.264C167.308 128.411 167.205 128.47 167.078 128.397Z" fill="#C6C6C6"/>
<path d="M171.302 120.3L159.734 113.602C159.607 113.529 159.505 113.35 159.505 113.204C159.505 113.057 159.607 112.997 159.734 113.071L171.302 119.768C171.428 119.842 171.531 120.02 171.531 120.167C171.531 120.314 171.428 120.373 171.302 120.3Z" fill="#C6C6C6"/>
<path d="M171.302 123.182L159.734 116.484C159.607 116.411 159.505 116.233 159.505 116.086C159.505 115.939 159.607 115.88 159.734 115.953L171.302 122.65C171.428 122.724 171.531 122.902 171.531 123.049C171.531 123.196 171.428 123.255 171.302 123.182Z" fill="#C6C6C6"/>
<path d="M171.302 126.064L159.734 119.366C159.607 119.293 159.505 119.115 159.505 118.968C159.505 118.821 159.607 118.762 159.734 118.835L171.302 125.533C171.428 125.606 171.531 125.784 171.531 125.931C171.531 126.078 171.428 126.137 171.302 126.064Z" fill="#C6C6C6"/>
<path d="M168.118 110.16L162.917 107.149C162.791 107.076 162.688 106.897 162.688 106.751C162.688 106.604 162.791 106.544 162.917 106.618L168.118 109.629C168.245 109.702 168.348 109.881 168.348 110.027C168.348 110.174 168.245 110.234 168.118 110.16Z" fill="#C6C6C6"/>
<path d="M170.892 128.043L160.586 122.075C160.459 122.002 160.356 121.823 160.356 121.677C160.356 121.53 160.459 121.47 160.586 121.544L170.892 127.511C171.019 127.585 171.122 127.763 171.122 127.91C171.122 128.057 171.019 128.116 170.892 128.043Z" fill="#BF272D"/>
<path d="M161.535 119.935L160.258 119.196C160.068 119.086 159.914 118.818 159.914 118.598C159.914 118.378 160.068 118.289 160.258 118.399L161.535 119.139C161.725 119.249 161.879 119.516 161.879 119.736C161.879 119.956 161.725 120.045 161.535 119.935Z" fill="#BF272D"/>
<path d="M164.521 121.664L163.244 120.925C163.054 120.815 162.9 120.547 162.9 120.327C162.9 120.107 163.054 120.018 163.244 120.128L164.521 120.868C164.711 120.978 164.865 121.245 164.865 121.465C164.865 121.685 164.711 121.774 164.521 121.664Z" fill="#BF272D"/>
<path d="M167.507 123.394L166.23 122.654C166.041 122.544 165.886 122.277 165.886 122.057C165.886 121.836 166.041 121.747 166.23 121.857L167.507 122.597C167.697 122.707 167.851 122.974 167.851 123.194C167.851 123.414 167.697 123.503 167.507 123.394Z" fill="#BF272D"/>
<path d="M170.494 125.123L169.217 124.383C169.027 124.273 168.873 124.006 168.873 123.786C168.873 123.566 169.027 123.477 169.217 123.586L170.494 124.326C170.684 124.436 170.838 124.703 170.838 124.923C170.838 125.144 170.684 125.233 170.494 125.123Z" fill="#BF272D"/>
<path d="M73.6509 95.9107L56.5336 85.9998V57.9671L73.6509 67.8779V95.9107Z" fill="#EFEFEF"/>
<path d="M67.6928 68.8008L62.492 65.7895C62.3652 65.7161 62.2626 65.5379 62.2626 65.3911C62.2626 65.2443 62.3652 65.1849 62.492 65.2583L67.6928 68.2695C67.8195 68.343 67.9221 68.5212 67.9221 68.6679C67.9221 68.8147 67.8195 68.8741 67.6928 68.8008Z" fill="#C6C6C6"/>
<path d="M70.6613 80.4313L59.5235 73.9825C59.3967 73.9091 59.2941 73.7309 59.2941 73.5841V71.0511C59.2941 70.9043 59.3967 70.845 59.5235 70.9183L70.6613 77.3671C70.7881 77.4405 70.8906 77.6187 70.8906 77.7655V80.2985C70.8906 80.4453 70.7881 80.5047 70.6613 80.4313ZM59.7528 73.5842L70.4319 79.7673V77.7655L59.7528 71.5823V73.5842Z" fill="#C6C6C6"/>
<path d="M70.6614 77.8983L59.5235 71.4495C59.3968 71.3761 59.2942 71.1979 59.2942 71.0511V68.5184C59.2942 68.3716 59.3968 68.3122 59.5235 68.3856L70.6614 74.8344C70.7881 74.9078 70.8907 75.086 70.8907 75.2328V77.7655C70.8907 77.9123 70.7881 77.9717 70.6614 77.8983ZM59.7529 71.0511L70.432 77.2343V75.2328L59.7529 69.0496V71.0511Z" fill="#C6C6C6"/>
<path d="M70.6613 82.964L59.5235 76.5153C59.3967 76.4419 59.2941 76.2637 59.2941 76.1169V73.5841C59.2941 73.4373 59.3967 73.3779 59.5235 73.4513L70.6613 79.9001C70.7881 79.9735 70.8906 80.1517 70.8906 80.2985V82.8312C70.8906 82.978 70.7881 83.0374 70.6613 82.964ZM59.7528 76.1169L70.4319 82.3V80.2985L59.7528 74.1153V76.1169Z" fill="#C6C6C6"/>
<path d="M70.6613 85.497L59.5235 79.0483C59.3967 78.9749 59.2941 78.7967 59.2941 78.6499V76.1169C59.2941 75.9701 59.3967 75.9107 59.5235 75.9841L70.6613 82.4329C70.7881 82.5063 70.8906 82.6845 70.8906 82.8313V85.3643C70.8906 85.5111 70.7881 85.5704 70.6613 85.497ZM59.7528 78.6499L70.4319 84.833V82.8312L59.7528 76.6481V78.6499Z" fill="#C6C6C6"/>
<path d="M70.6613 88.0298L66.4432 85.5875C66.3164 85.5141 66.2138 85.3359 66.2138 85.1891V82.6563C66.2138 82.5095 66.3164 82.4502 66.4432 82.5235L70.6613 84.9658C70.7881 85.0392 70.8907 85.2174 70.8907 85.3642V87.897C70.8907 88.0438 70.7881 88.1032 70.6613 88.0298ZM66.6725 85.1891L70.4319 87.3658V85.3643L66.6725 83.1876V85.1891Z" fill="#C6C6C6"/>
<path d="M66.4431 85.5875L59.5235 81.581C59.3967 81.5076 59.2941 81.3294 59.2941 81.1826V78.6499C59.2941 78.5031 59.3967 78.4437 59.5235 78.5171L66.4431 82.5235C66.5699 82.5969 66.6725 82.7751 66.6725 82.9219V85.4547C66.6725 85.6015 66.5699 85.6609 66.4431 85.5875ZM59.7528 81.1826L66.2138 84.9235V82.922L59.7528 79.1811V81.1826Z" fill="#C6C6C6"/>
<path d="M58.3664 73.5266C58.3481 73.516 58.3295 73.5026 58.3113 73.4869C58.2399 73.4251 58.1812 73.3321 58.1537 73.237L57.5527 71.1598C57.5054 70.9963 57.5623 70.8745 57.6799 70.8879C57.7964 70.9009 57.9308 71.0442 57.9783 71.2078L58.4608 72.8753L61.714 71.5716C61.8107 71.5325 61.9552 71.6307 62.0372 71.7898C62.119 71.9492 62.1068 72.1098 62.0101 72.1484L58.5146 73.5495C58.4729 73.5665 58.4202 73.5577 58.3664 73.5266Z" fill="#BF272D"/>
<path d="M68.6958 82.9102L60.7374 78.3023C60.6395 78.2456 60.5603 78.108 60.5603 77.9947C60.5603 77.8814 60.6395 77.8355 60.7374 77.8922L68.6958 82.5001C68.7937 82.5567 68.8729 82.6944 68.8729 82.8077C68.8729 82.9209 68.7937 82.9669 68.6958 82.9102Z" fill="#BF272D"/>
<path d="M61.4703 76.6502L60.4844 76.0793C60.3377 75.9944 60.2187 75.7878 60.2187 75.6179C60.2187 75.4479 60.3377 75.3792 60.4844 75.4641L61.4703 76.0349C61.617 76.1199 61.736 76.3264 61.736 76.4964C61.736 76.6663 61.617 76.7351 61.4703 76.6502Z" fill="#BF272D"/>
<path d="M63.7762 77.9852L62.7902 77.4144C62.6435 77.3295 62.5245 77.1229 62.5245 76.9529C62.5245 76.783 62.6435 76.7142 62.7902 76.7991L63.7762 77.37C63.9228 77.4549 64.0418 77.6615 64.0418 77.8314C64.0418 78.0014 63.9228 78.0702 63.7762 77.9852Z" fill="#BF272D"/>
<path d="M66.0821 79.3204L65.0961 78.7495C64.9495 78.6646 64.8305 78.458 64.8305 78.2881C64.8305 78.1181 64.9495 78.0494 65.0961 78.1343L66.0821 78.7051C66.2288 78.7901 66.3478 78.9966 66.3478 79.1666C66.3478 79.3365 66.2288 79.4053 66.0821 79.3204Z" fill="#BF272D"/>
<path d="M68.3881 80.6556L67.4021 80.0847C67.2554 79.9998 67.1364 79.7932 67.1364 79.6232C67.1364 79.4533 67.2554 79.3845 67.4021 79.4694L68.3881 80.0403C68.5348 80.1252 68.6538 80.3318 68.6538 80.5017C68.6538 80.6717 68.5348 80.7405 68.3881 80.6556Z" fill="#BF272D"/>
<path d="M60.0539 125.974C60.0265 125.974 59.9988 125.966 59.975 125.948C57.2461 123.918 54.4494 122.299 51.6623 121.136C51.5948 121.108 51.563 121.03 51.591 120.963C51.6191 120.895 51.6965 120.864 51.7643 120.891C54.571 122.062 57.3866 123.691 60.1328 125.735C60.1915 125.778 60.2039 125.862 60.1602 125.921C60.1343 125.956 60.0943 125.974 60.0539 125.974Z" fill="#BF272D"/>
<path d="M55.5813 128.521C55.5538 128.521 55.5262 128.512 55.5024 128.495C52.7735 126.464 49.9768 124.845 47.1897 123.683C47.1222 123.655 47.0904 123.577 47.1183 123.509C47.1465 123.441 47.2238 123.41 47.2916 123.438C50.0984 124.608 52.9139 126.238 55.6601 128.281C55.7189 128.325 55.7313 128.408 55.6876 128.467C55.6617 128.502 55.6216 128.521 55.5813 128.521Z" fill="#BF272D"/>
<path d="M140.426 152.16C141.813 151.357 141.813 148.752 140.426 146.342C139.038 143.932 136.789 142.63 135.401 143.433C134.014 144.236 134.014 146.841 135.402 149.251C136.789 151.661 139.038 152.963 140.426 152.16Z" fill="#4282B8"/>
<path d="M137.39 149.509C137.24 149.422 137.095 149.269 136.988 149.084L135.691 146.831C135.469 146.445 135.469 146.028 135.691 145.9C135.913 145.771 136.273 145.98 136.495 146.365L137.39 147.92L139.333 146.795C139.555 146.667 139.915 146.875 140.137 147.261C140.359 147.646 140.359 148.063 140.137 148.191L137.792 149.549C137.686 149.611 137.541 149.596 137.39 149.509Z" fill="white"/>
<path d="M205.112 187.732L143.901 152.291C143.41 152.007 143.013 151.317 143.013 150.749C143.013 150.18 143.41 149.95 143.901 150.234L205.112 185.675C205.602 185.959 206 186.65 206 187.218C206 187.786 205.602 188.016 205.112 187.732Z" fill="#BFBFBF"/>
<path d="M24.8755 17.7212C26.2628 16.9179 26.2628 14.313 24.8753 11.9032C23.4878 9.49328 21.2384 8.19092 19.851 8.99425C18.4636 9.79759 18.4637 12.4024 19.8511 14.8123C21.2386 17.2222 23.4881 18.5246 24.8755 17.7212Z" fill="#4282B8"/>
<path d="M21.8394 15.0702C21.6887 14.983 21.5441 14.8298 21.4375 14.6447L20.1405 12.3916C19.9184 12.006 19.9184 11.5893 20.1405 11.4609C20.3625 11.3323 20.7225 11.5407 20.9443 11.9263L21.8394 13.4811L23.7823 12.3564C24.0041 12.2277 24.3644 12.4362 24.5861 12.8218C24.8082 13.2073 24.8082 13.6242 24.5861 13.7526L22.2413 15.1101C22.1347 15.1718 21.9901 15.1575 21.8394 15.0702Z" fill="white"/>
<path d="M89.5608 53.2934L28.3498 17.8524C27.8593 17.5684 27.4616 16.8778 27.4616 16.3096C27.4616 15.7415 27.8593 15.5114 28.3498 15.7954L89.5608 51.2364C90.0513 51.5204 90.449 52.211 90.449 52.7792C90.449 53.3473 90.0513 53.5774 89.5608 53.2934Z" fill="#BFBFBF"/>
<path d="M84.7142 14.8048C81.9901 13.2275 79.7737 9.37802 79.7737 6.22378C79.7737 3.06933 81.9901 1.78637 84.7142 3.36362C87.4383 4.94087 89.6543 8.79019 89.6543 11.9446C89.6543 15.0989 87.4383 16.382 84.7142 14.8048ZM84.7142 4.87463C82.7094 3.71387 81.0786 4.65803 81.0786 6.97931C81.0786 9.30041 82.7094 12.133 84.7142 13.2938C86.7187 14.4544 88.3494 13.5102 88.3494 11.1891C88.3494 8.86782 86.7187 6.0352 84.7142 4.87463Z" fill="#4282B8"/>
<path d="M165.814 48.3578C163.382 46.9496 161.404 43.5127 161.404 40.6966C161.404 37.8803 163.382 36.7348 165.814 38.143C168.247 39.5512 170.225 42.9879 170.225 45.8042C170.225 48.6204 168.247 49.766 165.814 48.3578ZM165.814 39.492C164.025 38.4557 162.569 39.2986 162.569 41.3711C162.569 43.4434 164.025 45.9724 165.814 47.0087C167.604 48.0449 169.06 47.202 169.06 45.1297C169.06 43.0572 167.604 40.5282 165.814 39.492Z" fill="#4282B8"/>
<path d="M181.805 102.55L181.179 101.462L178.581 102.966L175.984 98.4543L175.358 98.8169L177.955 103.328L175.358 104.832L175.984 105.92L178.581 104.416L181.179 108.927L181.805 108.565L179.208 104.053L181.805 102.55Z" fill="#E4E4E4"/>
<path d="M83.1013 73.6145L82.4751 72.5269L79.8779 74.0306L77.2806 69.5193L76.6544 69.8818L79.2516 74.3931L76.6544 75.8968L77.2806 76.9845L79.8779 75.4808L82.4751 79.9921L83.1013 79.6296L80.5041 75.1182L83.1013 73.6145Z" fill="#E4E4E4"/>
<path d="M1.40379 73.4428L22.1799 61.4135C22.9552 60.9646 24.1851 61.5522 24.1851 62.4499L23.5837 76.7548V76.8561C23.5837 77.7539 22.9552 78.8455 22.1799 79.2944L1.81587 91.7104C1.04061 92.1593 0 91.4088 0 90.511V90.4097V75.8812C0 74.9834 0.628508 73.8917 1.40379 73.4428Z" fill="#E6E6E6"/>
<path d="M0.648376 76.2063C0.648376 75.3085 1.27688 74.2169 2.05217 73.768L22.8283 61.7387C23.6036 61.2898 24.2321 61.6536 24.2321 62.5514V77.08L0.648376 90.7349V76.2063Z" fill="#4A4C56"/>
<path d="M2.05221 74.4182L22.8283 62.3889C23.2928 62.12 23.6706 62.3387 23.6706 62.8765V63.4255V76.7548L1.20995 89.7595V76.4301V75.8812C1.20995 75.3433 1.58778 74.6871 2.05221 74.4182Z" fill="white"/>
<path d="M24.2321 77.08V77.1812C24.2321 78.079 23.6036 79.1706 22.8283 79.6195L2.05219 91.6488C1.2769 92.0977 0.648392 91.7339 0.648392 90.8361V90.7348L24.2321 77.08Z" fill="#CFCFCF"/>
<path d="M17.5534 101.279L38.3295 89.2497C39.1048 88.8008 39.0076 87.352 38.1123 86.8337L25.913 80.435C25.0178 79.9167 23.6635 79.8604 22.8882 80.3093L2.14004 91.6129C1.36475 92.0618 1.43404 93.5716 2.32927 94.0899L14.5286 101.153C15.4239 101.672 16.7781 101.728 17.5534 101.279Z" fill="#DFDFDF"/>
<path d="M17.5534 100.508L38.3295 88.4791C39.1048 88.0302 39.0076 87.2461 38.1123 86.7278L25.913 79.6644C25.0178 79.146 23.6635 79.0898 22.8882 79.5387L2.11213 91.568C1.33684 92.0169 1.43407 92.8009 2.3293 93.3193L14.5286 100.383C15.4239 100.901 16.7781 100.957 17.5534 100.508Z" fill="#E6E6E6"/>
<path d="M25.1437 80.8954C25.1881 80.8888 25.2736 80.8945 25.336 80.9078C25.4429 80.9297 25.4692 80.943 25.9377 81.2143C26.4129 81.4894 26.4277 81.4999 26.4638 81.5608C26.5345 81.6874 26.5493 81.6731 25.9081 82.0444C25.3607 82.3613 25.3409 82.3709 25.262 82.3785C25.1124 82.3909 25.1042 82.388 24.4976 82.0368L23.9353 81.7112L23.9288 81.6427L23.9238 81.5751L24.4927 81.24C25.027 80.9268 25.0664 80.9059 25.1437 80.8954Z" fill="#BFBFBF"/>
<path d="M23.2727 81.9768C23.447 81.9464 23.4684 81.9549 24.0668 82.3014C24.6669 82.6488 24.6866 82.6641 24.629 82.7602C24.6044 82.8049 24.5419 82.8449 24.0569 83.1257C23.5177 83.438 23.5127 83.4408 23.419 83.4513C23.2596 83.4694 23.2546 83.4684 22.6529 83.12C22.1285 82.8164 22.1006 82.7983 22.0808 82.7507C22.043 82.6603 22.0677 82.6403 22.6563 82.2995C23.1396 82.0196 23.1955 81.9911 23.2727 81.9768Z" fill="#BFBFBF"/>
<path d="M21.3624 83.0677C21.4413 83.043 21.5531 83.0392 21.6304 83.0591C21.6599 83.0668 21.9263 83.2133 22.2222 83.3847C22.7269 83.6769 22.7614 83.6988 22.7795 83.7454C22.8206 83.8416 22.814 83.8473 22.1811 84.2081L21.609 84.5336L21.5021 84.5327L21.3952 84.5336L20.8264 84.21C20.3102 83.9168 20.2559 83.8835 20.2329 83.8397C20.1836 83.7445 20.1935 83.735 20.7755 83.3942C21.0632 83.2257 21.3279 83.0782 21.3624 83.0677Z" fill="#BFBFBF"/>
<path d="M19.6608 84.1272H19.789L20.3595 84.4575L20.93 84.7878V84.862V84.9362L20.353 85.2704L19.7759 85.6045L19.6575 85.6083L19.5408 85.6112L18.9802 85.2923C18.3752 84.9477 18.3588 84.9363 18.3736 84.8459L18.3818 84.7935L18.9572 84.4603L19.5326 84.1272L19.6608 84.1272Z" fill="#BFBFBF"/>
<path d="M17.6978 85.2085C17.7225 85.2018 17.7882 85.198 17.8408 85.2018L17.9378 85.2066L18.5 85.5321C19.0606 85.8567 19.0639 85.8586 19.082 85.9129C19.1116 86.0004 19.0804 86.0242 18.5115 86.3536C17.9575 86.6763 17.9279 86.6896 17.7619 86.6849L17.6764 86.683L17.124 86.3688C16.5091 86.0185 16.4845 86.0005 16.5239 85.9072C16.5436 85.8596 16.5716 85.8415 17.0977 85.5388C17.4002 85.3636 17.6698 85.2152 17.6978 85.2085Z" fill="#BFBFBF"/>
<path d="M15.8466 86.288C15.8877 86.2794 15.9551 86.2746 15.9995 86.2775C16.0801 86.2823 16.0916 86.2889 16.6522 86.6135C17.2062 86.9343 17.2226 86.9457 17.2325 86.9895C17.2522 87.0828 17.2423 87.0904 16.6571 87.4293C15.8877 87.8748 16.0028 87.8748 15.2416 87.4341C14.6678 87.1019 14.6645 87.1 14.6711 86.9991L14.6744 86.9496L15.2235 86.6278C15.6592 86.3718 15.7874 86.3013 15.8466 86.288Z" fill="#BFBFBF"/>
<path d="M13.9625 87.3712C14.0496 87.3455 14.1614 87.3455 14.2502 87.3741C14.293 87.3874 14.5445 87.5254 14.8223 87.6863C15.3797 88.009 15.4158 88.0375 15.378 88.1317C15.3583 88.1793 15.3303 88.1974 14.8042 88.502C14.2009 88.8514 14.1877 88.8571 14.0332 88.8399C13.9609 88.8323 13.9181 88.8095 13.3937 88.5058C12.6226 88.0594 12.6243 88.127 13.3822 87.6901C13.6666 87.5254 13.9296 87.3826 13.9625 87.3712Z" fill="#BFBFBF"/>
<path d="M12.1935 88.4335C12.3497 88.4116 12.3859 88.4269 12.9613 88.76C13.5366 89.0932 13.563 89.1141 13.5251 89.2045C13.5054 89.2521 13.4758 89.2712 12.9481 89.5767C12.3332 89.9327 12.32 89.9385 12.1639 89.9109C12.0899 89.8985 12.0274 89.8661 11.5391 89.5834C11.0509 89.3007 10.995 89.2645 10.9736 89.2217C10.9259 89.1313 10.9358 89.1237 11.5507 88.7677C12.0784 88.4621 12.1113 88.4449 12.1935 88.4335Z" fill="#BFBFBF"/>
<path d="M10.3357 89.5092C10.4936 89.4882 10.5265 89.5016 11.115 89.8423C11.8663 90.2773 11.8647 90.2117 11.1331 90.6429C10.5461 90.9884 10.5017 91.0084 10.3456 90.9903C10.2519 90.9798 10.2486 90.9779 9.68631 90.6524L9.12243 90.3259L9.11586 90.2573L9.11093 90.1897L9.67977 89.8547C10.2272 89.5339 10.2502 89.5206 10.3357 89.5092Z" fill="#BFBFBF"/>
<path d="M8.45168 90.6077C8.48455 90.6019 8.54703 90.6019 8.59142 90.6067C8.66539 90.6153 8.70485 90.6362 9.22599 90.938C9.83591 91.2911 9.84086 91.2959 9.80304 91.3863C9.78495 91.4253 9.60575 91.531 7.78578 92.5848L5.78825 93.7413L5.69619 93.747C5.51371 93.7556 5.50055 93.7499 4.93831 93.4244C4.37606 93.0988 4.36618 93.0912 4.38099 92.9856L4.39084 92.9323L6.39001 91.7747C7.98802 90.8514 8.40398 90.6143 8.45168 90.6077Z" fill="#BFBFBF"/>
<path d="M26.98 81.9758C27.0195 81.9663 27.1033 81.9654 27.1625 81.973L27.2727 81.9873L27.7938 82.289C28.3051 82.585 28.3166 82.5936 28.3429 82.6507C28.3988 82.7707 28.4695 82.7221 27.1082 83.5103C25.9393 84.1871 25.8965 84.2099 25.8144 84.2214C25.6949 84.2385 25.4439 84.1382 25.0614 83.9206C24.7392 83.7378 24.5255 83.6084 24.4975 83.5808C24.4712 83.5541 24.4531 83.5075 24.4531 83.477L24.4548 83.419L25.6796 82.706C26.6972 82.1129 26.9159 81.9901 26.98 81.9758Z" fill="#BFBFBF"/>
<path d="M8.884 92.4438C8.94647 92.4286 9.06483 92.4324 9.14212 92.4524C9.18322 92.4629 9.39528 92.5781 9.71916 92.7656C10.2913 93.0968 10.3077 93.1101 10.2699 93.2158L10.2518 93.2701L8.95137 94.023C7.48653 94.8712 7.58352 94.8245 7.37474 94.7912C7.27611 94.776 7.26131 94.7693 6.75495 94.4761C6.24859 94.183 6.23709 94.1744 6.20915 94.1163C6.15163 93.9993 6.07434 94.0516 7.53754 93.2063C8.25106 92.7932 8.8577 92.4496 8.884 92.4438Z" fill="#BFBFBF"/>
<path d="M23.8169 83.8358C23.9731 83.814 24.0076 83.8282 24.5879 84.1642C25.1633 84.4974 25.1797 84.5107 25.1534 84.6116C25.1419 84.6563 25.1222 84.6697 24.5797 84.9838C24.0552 85.2875 24.0125 85.3103 23.9402 85.3179C23.7856 85.3351 23.7725 85.3293 23.1707 84.981C22.5641 84.6297 22.5592 84.625 22.597 84.5345C22.6151 84.4974 22.6874 84.4517 23.174 84.17C23.7018 83.8644 23.7347 83.8473 23.8169 83.8358Z" fill="#BFBFBF"/>
<path d="M21.9427 84.9172C22.1087 84.8839 22.135 84.8953 22.7351 85.2427C23.4995 85.6854 23.4979 85.6197 22.7383 86.0595C22.1498 86.4002 22.1152 86.4145 21.9591 86.3926C21.8769 86.3812 21.8456 86.365 21.3212 86.0614C20.7195 85.713 20.7178 85.7101 20.7491 85.6178C20.7672 85.5635 20.7721 85.5607 21.3114 85.2484C21.7963 84.9676 21.8654 84.9315 21.9427 84.9172Z" fill="#BFBFBF"/>
<path d="M20.0158 86.01C20.1046 85.9852 20.1671 85.9795 20.246 85.9909C20.3266 86.0014 20.3627 86.0204 20.8789 86.3193C21.3951 86.6182 21.4297 86.6401 21.4477 86.6867C21.4888 86.781 21.479 86.7886 20.874 87.1389C20.3594 87.4368 20.3216 87.4568 20.241 87.4673C20.0783 87.4911 20.0651 87.4854 19.4634 87.137C18.8716 86.7943 18.8601 86.7858 18.8896 86.6963C18.9028 86.6544 18.9439 86.6287 19.4437 86.3355C19.7396 86.1623 19.9978 86.0147 20.0158 86.01Z" fill="#BFBFBF"/>
<path d="M18.1548 87.0933C18.2452 87.0618 18.3241 87.0542 18.4113 87.0704C18.477 87.0818 18.5576 87.1247 19.0458 87.4131L19.6064 87.7434L19.6015 87.811L19.5949 87.8795L19.0327 88.2051C18.4162 88.562 18.4145 88.563 18.2501 88.5439L18.1564 88.5335L17.5974 88.2041L17.0385 87.8748V87.8158C17.0401 87.7843 17.0615 87.7377 17.0894 87.712C17.147 87.6578 18.066 87.1256 18.1548 87.0933Z" fill="#BFBFBF"/>
<path d="M16.4713 88.1441H16.5995L17.1601 88.4687C17.7815 88.8285 17.7914 88.8362 17.7437 88.9266C17.7223 88.9694 17.6648 89.0065 17.17 89.293C16.5567 89.6481 16.5649 89.6453 16.3841 89.6186C16.3035 89.6081 16.2641 89.5872 15.7594 89.295C15.1642 88.9504 15.1528 88.9418 15.1939 88.8476C15.2119 88.8009 15.2465 88.7791 15.7791 88.4706L16.3431 88.1441L16.4713 88.1441Z" fill="#BFBFBF"/>
<path d="M14.5083 89.2255C14.5329 89.2188 14.5971 89.216 14.648 89.2188C14.7763 89.2245 14.8749 89.274 15.4273 89.6015C16.0799 89.987 16.0882 89.9327 15.3056 90.3782C14.546 90.8103 14.6611 90.8103 13.8983 90.3687C13.1421 89.9308 13.1421 89.9974 13.9164 89.551C14.214 89.3787 14.4803 89.2321 14.5083 89.2255Z" fill="#BFBFBF"/>
<path d="M12.6686 90.3059C12.7146 90.2964 12.7903 90.2926 12.833 90.2964C12.9102 90.3031 12.9382 90.3173 13.4347 90.5991C13.7585 90.7828 13.9739 90.9132 14.0019 90.9408C14.0282 90.9675 14.0462 91.0141 14.0462 91.0446L14.0446 91.1026L13.4626 91.4396L12.8806 91.7766L12.7803 91.7775C12.7261 91.7785 12.6488 91.768 12.606 91.7547C12.56 91.7394 12.3397 91.6176 12.0159 91.4263C11.2991 91.0037 11.2958 91.0665 12.057 90.6258C12.5255 90.3545 12.593 90.3192 12.6686 90.3059Z" fill="#BFBFBF"/>
<path d="M10.773 91.3882C10.8059 91.3787 10.8618 91.3691 10.8963 91.3682C11.036 91.3634 11.0821 91.3844 11.6295 91.7013C12.205 92.0345 12.2313 92.0554 12.1934 92.1459C12.1737 92.1935 12.1441 92.2125 11.6147 92.519C11.0853 92.8255 11.0541 92.8417 10.9719 92.8532C10.8174 92.8741 10.7894 92.8617 10.191 92.5153C9.43805 92.0793 9.43969 92.1526 10.1795 91.7185C10.4721 91.5472 10.7385 91.3987 10.773 91.3882Z" fill="#BFBFBF"/>
<path d="M28.8098 83.0581C28.8788 83.041 29.0268 83.0486 29.1106 83.0724C29.1583 83.0867 29.3507 83.1904 29.6712 83.376C30.1414 83.6501 30.1579 83.6597 30.1924 83.7215C30.2614 83.8472 30.3897 83.7615 28.5549 84.8238C27.0177 85.7139 26.9306 85.7624 26.8501 85.7767C26.6758 85.8072 26.6528 85.7976 26.0642 85.4568C25.4773 85.117 25.4642 85.1056 25.5003 84.999L25.5184 84.9447L27.1411 84.0071C28.0322 83.4912 28.7835 83.0638 28.8098 83.0581Z" fill="#BFBFBF"/>
<path d="M24.8526 85.4064C25.0137 85.3836 25.0449 85.3979 25.6499 85.7539L26.1941 86.0746L26.1957 86.1327C26.1957 86.1632 26.1776 86.2098 26.1513 86.2364C26.1234 86.264 25.9064 86.3954 25.5792 86.581C25.0942 86.8561 25.0466 86.8799 24.9758 86.8885C24.8213 86.9056 24.8081 86.8999 24.1982 86.5468L23.6393 86.2231L23.6327 86.1546L23.6278 86.087L24.1966 85.752C24.7441 85.4312 24.7671 85.4178 24.8526 85.4064Z" fill="#BFBFBF"/>
<path d="M22.9603 86.4983C23.0063 86.4888 23.0819 86.4849 23.1247 86.4888C23.2019 86.4954 23.2299 86.5097 23.7527 86.8067C24.3593 87.1522 24.3823 87.1693 24.3412 87.2655C24.3231 87.3102 24.2869 87.3331 23.7461 87.6424L23.1674 87.9718L23.0506 87.9689L22.9323 87.9651L22.3585 87.6329L21.7848 87.3007L21.7765 87.2464C21.7716 87.2169 21.7881 87.1731 21.8111 87.1484C21.8374 87.1218 22.0676 86.9809 22.3651 86.8086C22.8172 86.5468 22.8847 86.5116 22.9603 86.4983Z" fill="#BFBFBF"/>
<path d="M21.1321 87.5587C21.3047 87.5349 21.2866 87.5263 21.9146 87.89C22.4736 88.2136 22.4851 88.2203 22.4933 88.2669C22.5131 88.3564 22.4851 88.3763 21.9097 88.7095C21.1501 89.1493 21.2636 89.1502 20.4991 88.7076C19.7347 88.265 19.733 88.3326 20.5073 87.8843C21.0121 87.592 21.0548 87.5692 21.1321 87.5587Z" fill="#BFBFBF"/>
<path d="M19.2283 88.6457C19.3154 88.6181 19.4305 88.6219 19.5259 88.6562C19.6262 88.6933 20.5254 89.214 20.5879 89.273C20.6158 89.2987 20.6372 89.3454 20.6389 89.3768V89.4358L20.0815 89.7642C19.4749 90.1212 19.4551 90.1307 19.3039 90.1155C19.2167 90.1069 19.2085 90.1021 18.6545 89.7814C17.8834 89.3349 17.8851 89.4025 18.643 88.9656C18.9274 88.8009 19.1921 88.6572 19.2283 88.6457Z" fill="#BFBFBF"/>
<path d="M17.4543 89.709C17.6105 89.6871 17.6467 89.7024 18.2155 90.0336C18.7843 90.363 18.8156 90.3868 18.786 90.4743C18.7679 90.5286 18.7646 90.5305 18.2106 90.8513C17.6039 91.2025 17.5908 91.2082 17.4362 91.1911C17.3639 91.1835 17.3212 91.1606 16.8 90.8589C16.2788 90.5572 16.2394 90.5324 16.2262 90.4905C16.1966 90.401 16.2065 90.3934 16.8115 90.0431C17.3392 89.7376 17.3722 89.7205 17.4543 89.709Z" fill="#BFBFBF"/>
<path d="M15.5966 90.7847C15.7528 90.7628 15.7873 90.7771 16.3676 91.1131C16.943 91.4462 16.9595 91.4595 16.9332 91.5604C16.9216 91.6052 16.9019 91.6185 16.3578 91.9336C15.733 92.2953 15.7412 92.2924 15.567 92.262C15.4946 92.2506 15.4272 92.2154 15.0277 91.9898C14.7762 91.8479 14.5263 91.7013 14.4737 91.6633C14.3899 91.6033 14.3784 91.5871 14.38 91.5233V91.451L14.9439 91.1245C15.4815 90.8132 15.5144 90.7961 15.5966 90.7847Z" fill="#BFBFBF"/>
<path d="M13.7207 91.867C13.8917 91.8346 13.9164 91.8451 14.5148 92.1916C15.2793 92.6342 15.2776 92.5685 14.5181 93.0083C13.9295 93.3491 13.895 93.3633 13.7388 93.3414C13.6566 93.33 13.6253 93.3139 13.1009 93.0102C12.4992 92.6618 12.4975 92.659 12.5288 92.5666C12.5469 92.5123 12.5518 92.5095 13.0911 92.1973C13.5761 91.9164 13.6451 91.8803 13.7207 91.867Z" fill="#BFBFBF"/>
<path d="M11.8794 92.9369C12.0422 92.9131 12.057 92.9198 12.6488 93.2624C13.262 93.6175 13.2702 93.6242 13.2094 93.7279C13.1732 93.7869 13.1519 93.7993 11.3747 94.8283C9.61059 95.8497 9.57608 95.8697 9.47579 95.8897C9.41167 95.902 9.33934 95.9039 9.27522 95.8935C9.17823 95.8773 9.16014 95.8687 8.65542 95.5765L8.13593 95.2757L8.11127 95.2138C8.06688 95.0967 7.92551 95.1881 9.96411 94.0078C11.7495 92.974 11.7972 92.9483 11.8794 92.9369Z" fill="#BFBFBF"/>
<path d="M27.94 85.7796C27.9762 85.7738 28.042 85.7719 28.083 85.7767C28.1537 85.7853 28.2014 85.809 28.6667 86.0727C28.9462 86.2307 29.201 86.3821 29.2371 86.4087C29.2832 86.4449 29.298 86.4744 29.2947 86.522L29.293 86.5858L28.5236 87.0313C27.7673 87.4692 27.7526 87.4777 27.6753 87.4825C27.5142 87.4939 27.501 87.4882 26.9141 87.1484C26.3782 86.8381 26.3733 86.8352 26.3552 86.7809C26.3453 86.7524 26.3469 86.7115 26.3568 86.6924C26.388 86.6363 27.8479 85.7948 27.94 85.7796Z" fill="#BFBFBF"/>
<path d="M25.7337 87.0722C25.885 87.0551 25.9261 87.0732 26.4949 87.4025C27.0555 87.7252 27.0818 87.7462 27.0637 87.8347L27.0539 87.8823L21.7403 90.9588L16.4267 94.0353L16.3478 94.0411C16.1867 94.0525 16.1735 94.0468 15.5866 93.707C15.0507 93.3967 15.0458 93.3938 15.0277 93.3395C15.0178 93.311 15.0195 93.27 15.0293 93.251C15.0458 93.2225 16.1423 92.5818 20.3445 90.1488L25.64 87.0827L25.7337 87.0722Z" fill="#BFBFBF"/>
<path d="M14.4062 93.6308C14.4588 93.6251 14.5328 93.6298 14.5756 93.6413C14.6742 93.6698 15.6376 94.2219 15.7017 94.2876C15.7247 94.3123 15.7412 94.3561 15.7362 94.3856L15.728 94.4399L14.9602 94.8844C14.1958 95.327 14.1908 95.3299 14.1086 95.3356C13.9557 95.3461 13.9195 95.3309 13.3557 95.0044C12.7803 94.6712 12.754 94.6503 12.7918 94.5598C12.8132 94.5113 12.8395 94.4941 13.5628 94.0753L14.3125 93.6412L14.4062 93.6308Z" fill="#BFBFBF"/>
<path d="M12.2131 94.9311H12.3413L12.9052 95.2576C13.4362 95.5651 13.4724 95.5879 13.4872 95.6307C13.5184 95.7212 13.5546 95.6964 12.4218 96.3542L11.3746 96.9606L11.2562 96.9644L11.1395 96.9672L10.5526 96.6274L9.9657 96.2876L9.97062 96.22L9.97719 96.1515L11.031 95.5413L12.0848 94.9311L12.2131 94.9311Z" fill="#BFBFBF"/>
<path d="M30.7859 84.1832C30.9388 84.1728 30.975 84.188 31.5388 84.5145C32.1027 84.841 32.129 84.8619 32.111 84.9504L32.1011 84.998L31.0588 85.6015C29.9096 86.2669 29.9523 86.246 29.7879 86.2174C29.714 86.205 29.6515 86.1727 29.1632 85.89C28.675 85.6073 28.6191 85.5711 28.5977 85.5283C28.5484 85.4331 28.5122 85.4578 29.6614 84.7924L30.7037 84.1889L30.7859 84.1832Z" fill="#BFBFBF"/>
<path d="M22.0959 96.8379L32.1025 91.0442C32.2854 90.9383 32.2624 90.7534 32.0513 90.6311L28.0432 88.3105C27.8321 88.1882 27.5126 88.1749 27.3297 88.2808L17.3232 94.0746C17.1403 94.1804 17.1632 94.3654 17.3744 94.4876L21.3825 96.8083C21.5936 96.9305 21.9131 96.9438 22.0959 96.8379Z" fill="#697A94"/>
<path d="M22.0959 96.903L32.1025 91.1092C32.2854 91.0033 32.2624 90.8184 32.0513 90.6961L28.0432 88.3755C27.8321 88.2532 27.5126 88.24 27.3297 88.3458L17.3232 94.1396C17.1403 94.2455 17.1632 94.4304 17.3744 94.5527L21.3825 96.8733C21.5936 96.9956 21.9131 97.0089 22.0959 96.903Z" fill="#BFBFBF"/>
<path d="M25.1437 80.8304C25.1881 80.8238 25.2736 80.8295 25.336 80.8428C25.4429 80.8647 25.4692 80.878 25.9377 81.1493C26.4129 81.4244 26.4277 81.4348 26.4638 81.4958C26.5345 81.6224 26.5493 81.6081 25.9081 81.9793C25.3607 82.2963 25.3409 82.3058 25.262 82.3135C25.1124 82.3258 25.1042 82.323 24.4976 81.9717L23.9353 81.6462L23.9288 81.5777L23.9238 81.5101L24.4927 81.175C25.027 80.8618 25.0664 80.8409 25.1437 80.8304Z" fill="#697A94"/>
<path d="M23.2727 81.9118C23.447 81.8813 23.4684 81.8899 24.0668 82.2364C24.6669 82.5838 24.6866 82.599 24.629 82.6952C24.6044 82.7399 24.5419 82.7799 24.0569 83.0607C23.5177 83.3729 23.5127 83.3758 23.419 83.3862C23.2596 83.4043 23.2546 83.4034 22.6529 83.055C22.1285 82.7513 22.1006 82.7333 22.0808 82.6857C22.043 82.5952 22.0677 82.5753 22.6563 82.2345C23.1396 81.9546 23.1955 81.9261 23.2727 81.9118Z" fill="#697A94"/>
<path d="M21.3624 83.0027C21.4413 82.9779 21.5531 82.9741 21.6304 82.9941C21.6599 83.0017 21.9263 83.1483 22.2222 83.3196C22.7269 83.6118 22.7614 83.6338 22.7795 83.6804C22.8206 83.7765 22.814 83.7823 22.1811 84.143L21.609 84.4686L21.5021 84.4676L21.3952 84.4686L20.8264 84.1449C20.3102 83.8518 20.2559 83.8184 20.2329 83.7747C20.1836 83.6795 20.1935 83.67 20.7755 83.3292C21.0632 83.1607 21.3279 83.0131 21.3624 83.0027Z" fill="#697A94"/>
<path d="M19.6608 84.0621H19.789L20.3595 84.3924L20.93 84.7227V84.797V84.8712L20.353 85.2053L19.7759 85.5394L19.6575 85.5432L19.5408 85.5461L18.9802 85.2272C18.3752 84.8827 18.3588 84.8712 18.3736 84.7808L18.3818 84.7285L18.9572 84.3953L19.5326 84.0621L19.6608 84.0621Z" fill="#697A94"/>
<path d="M17.6978 85.1435C17.7225 85.1368 17.7882 85.133 17.8408 85.1368L17.9378 85.1416L18.5 85.4671C19.0606 85.7917 19.0639 85.7936 19.082 85.8479C19.1116 85.9354 19.0804 85.9592 18.5115 86.2886C17.9575 86.6113 17.9279 86.6246 17.7619 86.6199L17.6764 86.6179L17.124 86.3038C16.5091 85.9535 16.4845 85.9355 16.5239 85.8421C16.5436 85.7945 16.5716 85.7765 17.0977 85.4738C17.4002 85.2986 17.6698 85.1501 17.6978 85.1435Z" fill="#697A94"/>
<path d="M15.8466 86.2229C15.8877 86.2143 15.9551 86.2096 15.9995 86.2125C16.0801 86.2172 16.0916 86.2239 16.6522 86.5485C17.2062 86.8692 17.2226 86.8807 17.2325 86.9245C17.2522 87.0177 17.2423 87.0254 16.6571 87.3642C15.8877 87.8097 16.0028 87.8097 15.2416 87.369C14.6678 87.0368 14.6645 87.0349 14.6711 86.934L14.6744 86.8845L15.2235 86.5628C15.6592 86.3067 15.7874 86.2363 15.8466 86.2229Z" fill="#697A94"/>
<path d="M13.9625 87.3062C14.0496 87.2805 14.1614 87.2805 14.2502 87.309C14.293 87.3223 14.5445 87.4604 14.8223 87.6212C15.3797 87.9439 15.4158 87.9725 15.378 88.0667C15.3583 88.1143 15.3303 88.1324 14.8042 88.437C14.2009 88.7863 14.1877 88.792 14.0332 88.7749C13.9609 88.7673 13.9181 88.7444 13.3937 88.4408C12.6226 87.9944 12.6243 88.0619 13.3822 87.625C13.6666 87.4604 13.9296 87.3176 13.9625 87.3062Z" fill="#697A94"/>
<path d="M12.1935 88.3685C12.3497 88.3466 12.3859 88.3618 12.9613 88.695C13.5366 89.0281 13.563 89.0491 13.5251 89.1395C13.5054 89.1871 13.4758 89.2062 12.9481 89.5117C12.3332 89.8677 12.32 89.8734 12.1639 89.8458C12.0899 89.8335 12.0274 89.8011 11.5391 89.5184C11.0509 89.2357 10.995 89.1995 10.9736 89.1567C10.9259 89.0663 10.9358 89.0587 11.5507 88.7026C12.0784 88.3971 12.1113 88.3799 12.1935 88.3685Z" fill="#697A94"/>
<path d="M10.3357 89.4441C10.4936 89.4232 10.5265 89.4365 11.115 89.7773C11.8663 90.2123 11.8647 90.1466 11.1331 90.5778C10.5461 90.9234 10.5017 90.9433 10.3456 90.9252C10.2519 90.9148 10.2486 90.9129 9.68631 90.5873L9.12243 90.2608L9.11586 90.1923L9.11093 90.1247L9.67977 89.7896C10.2272 89.4688 10.2502 89.4556 10.3357 89.4441Z" fill="#697A94"/>
<path d="M8.45168 90.5426C8.48455 90.5369 8.54703 90.5369 8.59142 90.5417C8.66539 90.5503 8.70485 90.5712 9.22599 90.873C9.83591 91.2261 9.84086 91.2309 9.80304 91.3213C9.78495 91.3603 9.60575 91.466 7.78578 92.5197L5.78825 93.6763L5.69619 93.682C5.51371 93.6906 5.50055 93.6849 4.93831 93.3594C4.37606 93.0338 4.36618 93.0262 4.38099 92.9205L4.39084 92.8672L6.39001 91.7097C7.98802 90.7864 8.40398 90.5493 8.45168 90.5426Z" fill="#697A94"/>
<path d="M26.98 81.9108C27.0195 81.9013 27.1033 81.9003 27.1625 81.9079L27.2727 81.9222L27.7938 82.224C28.3051 82.52 28.3166 82.5286 28.3429 82.5857C28.3988 82.7056 28.4695 82.6571 27.1082 83.4453C25.9393 84.1221 25.8965 84.1449 25.8144 84.1563C25.6949 84.1735 25.4439 84.0732 25.0614 83.8555C24.7392 83.6728 24.5255 83.5433 24.4975 83.5157C24.4712 83.4891 24.4531 83.4424 24.4531 83.412L24.4548 83.3539L25.6796 82.6409C26.6972 82.0479 26.9159 81.9251 26.98 81.9108Z" fill="#697A94"/>
<path d="M8.884 92.3788C8.94647 92.3636 9.06483 92.3674 9.14212 92.3874C9.18322 92.3978 9.39528 92.513 9.71916 92.7005C10.2913 93.0318 10.3077 93.0451 10.2699 93.1508L10.2518 93.2051L8.95137 93.958C7.48653 94.8062 7.58352 94.7595 7.37474 94.7262C7.27611 94.711 7.26131 94.7043 6.75495 94.4111C6.24859 94.118 6.23709 94.1094 6.20915 94.0513C6.15163 93.9342 6.07434 93.9866 7.53754 93.1413C8.25106 92.7282 8.8577 92.3845 8.884 92.3788Z" fill="#697A94"/>
<path d="M23.8169 83.7708C23.9731 83.7489 24.0076 83.7632 24.5879 84.0992C25.1633 84.4323 25.1797 84.4457 25.1534 84.5466C25.1419 84.5913 25.1222 84.6046 24.5797 84.9188C24.0552 85.2224 24.0125 85.2453 23.9402 85.2529C23.7856 85.27 23.7725 85.2643 23.1707 84.9159C22.5641 84.5647 22.5592 84.5599 22.597 84.4695C22.6151 84.4324 22.6874 84.3867 23.174 84.1049C23.7018 83.7994 23.7347 83.7822 23.8169 83.7708Z" fill="#697A94"/>
<path d="M21.9427 84.8522C22.1087 84.8189 22.135 84.8303 22.7351 85.1777C23.4995 85.6203 23.4979 85.5547 22.7383 85.9944C22.1498 86.3352 22.1152 86.3495 21.9591 86.3276C21.8769 86.3162 21.8456 86.3 21.3212 85.9963C20.7195 85.648 20.7178 85.6451 20.7491 85.5528C20.7672 85.4985 20.7721 85.4957 21.3114 85.1834C21.7963 84.9026 21.8654 84.8665 21.9427 84.8522Z" fill="#697A94"/>
<path d="M20.0158 85.9449C20.1046 85.9202 20.1671 85.9145 20.246 85.9259C20.3266 85.9364 20.3627 85.9554 20.8789 86.2543C21.3951 86.5532 21.4297 86.575 21.4477 86.6217C21.4888 86.7159 21.479 86.7236 20.874 87.0739C20.3594 87.3718 20.3216 87.3918 20.241 87.4023C20.0783 87.4261 20.0651 87.4204 19.4634 87.072C18.8716 86.7293 18.8601 86.7208 18.8896 86.6313C18.9028 86.5894 18.9439 86.5637 19.4437 86.2705C19.7396 86.0972 19.9978 85.9497 20.0158 85.9449Z" fill="#697A94"/>
<path d="M18.1548 87.0282C18.2452 86.9968 18.3241 86.9892 18.4113 87.0054C18.477 87.0168 18.5576 87.0596 19.0458 87.348L19.6064 87.6783L19.6015 87.7459L19.5949 87.8145L19.0327 88.14C18.4162 88.497 18.4145 88.4979 18.2501 88.4789L18.1564 88.4684L17.5974 88.1391L17.0385 87.8097V87.7507C17.0401 87.7193 17.0615 87.6727 17.0894 87.647C17.147 87.5927 18.066 87.0606 18.1548 87.0282Z" fill="#697A94"/>
<path d="M16.4713 88.0791H16.5995L17.1601 88.4037C17.7815 88.7635 17.7914 88.7711 17.7437 88.8616C17.7223 88.9044 17.6648 88.9415 17.17 89.228C16.5567 89.5831 16.5649 89.5802 16.3841 89.5536C16.3035 89.5431 16.2641 89.5222 15.7594 89.2299C15.1642 88.8854 15.1528 88.8768 15.1939 88.7826C15.2119 88.7359 15.2465 88.714 15.7791 88.4056L16.3431 88.0791L16.4713 88.0791Z" fill="#697A94"/>
<path d="M14.5083 89.1604C14.5329 89.1538 14.5971 89.1509 14.648 89.1538C14.7763 89.1595 14.8749 89.209 15.4273 89.5364C16.0799 89.9219 16.0882 89.8677 15.3056 90.3131C14.546 90.7453 14.6611 90.7453 13.8983 90.3037C13.1421 89.8658 13.1421 89.9324 13.9164 89.486C14.214 89.3137 14.4803 89.1671 14.5083 89.1604Z" fill="#697A94"/>
<path d="M12.6686 90.2409C12.7146 90.2314 12.7903 90.2275 12.833 90.2314C12.9102 90.238 12.9382 90.2523 13.4347 90.5341C13.7585 90.7178 13.9739 90.8482 14.0019 90.8758C14.0282 90.9024 14.0462 90.9491 14.0462 90.9795L14.0446 91.0376L13.4626 91.3746L12.8806 91.7115L12.7803 91.7125C12.7261 91.7134 12.6488 91.703 12.606 91.6896C12.56 91.6744 12.3397 91.5526 12.0159 91.3613C11.2991 90.9386 11.2958 91.0014 12.057 90.5607C12.5255 90.2894 12.593 90.2542 12.6686 90.2409Z" fill="#697A94"/>
<path d="M10.773 91.3232C10.8059 91.3137 10.8618 91.3041 10.8963 91.3032C11.036 91.2984 11.0821 91.3193 11.6295 91.6363C12.205 91.9695 12.2313 91.9904 12.1934 92.0809C12.1737 92.1285 12.1441 92.1475 11.6147 92.454C11.0853 92.7605 11.0541 92.7767 10.9719 92.7881C10.8174 92.8091 10.7894 92.7967 10.191 92.4502C9.43805 92.0143 9.43969 92.0876 10.1795 91.6535C10.4721 91.4822 10.7385 91.3336 10.773 91.3232Z" fill="#697A94"/>
<path d="M28.8098 82.9931C28.8788 82.9759 29.0268 82.9836 29.1106 83.0073C29.1583 83.0216 29.3507 83.1254 29.6712 83.311C30.1414 83.5851 30.1579 83.5946 30.1924 83.6565C30.2614 83.7821 30.3897 83.6965 28.5549 84.7588C27.0177 85.6488 26.9306 85.6974 26.8501 85.7116C26.6758 85.7421 26.6528 85.7326 26.0642 85.3918C25.4773 85.052 25.4642 85.0406 25.5003 84.934L25.5184 84.8797L27.1411 83.9421C28.0322 83.4261 28.7835 82.9988 28.8098 82.9931Z" fill="#697A94"/>
<path d="M24.8526 85.3414C25.0137 85.3186 25.0449 85.3328 25.6499 85.6889L26.1941 86.0096L26.1957 86.0677C26.1957 86.0981 26.1776 86.1448 26.1513 86.1714C26.1234 86.199 25.9064 86.3304 25.5792 86.516C25.0942 86.7911 25.0466 86.8149 24.9758 86.8235C24.8213 86.8406 24.8081 86.8349 24.1982 86.4818L23.6393 86.1581L23.6327 86.0896L23.6278 86.022L24.1966 85.6869C24.7441 85.3661 24.7671 85.3528 24.8526 85.3414Z" fill="#697A94"/>
<path d="M22.9603 86.4332C23.0063 86.4237 23.0819 86.4199 23.1247 86.4237C23.2019 86.4304 23.2299 86.4446 23.7527 86.7416C24.3593 87.0872 24.3823 87.1043 24.3412 87.2004C24.3231 87.2452 24.2869 87.268 23.7461 87.5774L23.1674 87.9067L23.0506 87.9039L22.9323 87.9001L22.3585 87.5679L21.7848 87.2357L21.7765 87.1814C21.7716 87.1519 21.7881 87.1081 21.8111 87.0834C21.8374 87.0567 22.0676 86.9158 22.3651 86.7435C22.8172 86.4817 22.8847 86.4465 22.9603 86.4332Z" fill="#697A94"/>
<path d="M21.1321 87.4936C21.3047 87.4698 21.2866 87.4613 21.9146 87.8249C22.4736 88.1485 22.4851 88.1552 22.4933 88.2018C22.5131 88.2913 22.4851 88.3113 21.9097 88.6445C21.1501 89.0843 21.2636 89.0852 20.4991 88.6426C19.7347 88.2 19.733 88.2675 20.5073 87.8192C21.0121 87.527 21.0548 87.5041 21.1321 87.4936Z" fill="#697A94"/>
<path d="M19.2283 88.5807C19.3154 88.5531 19.4305 88.5569 19.5259 88.5912C19.6262 88.6283 20.5254 89.149 20.5879 89.208C20.6158 89.2337 20.6372 89.2803 20.6389 89.3117V89.3708L20.0815 89.6992C19.4749 90.0561 19.4551 90.0657 19.3039 90.0504C19.2167 90.0419 19.2085 90.0371 18.6545 89.7163C17.8834 89.2699 17.8851 89.3375 18.643 88.9006C18.9274 88.7359 19.1921 88.5921 19.2283 88.5807Z" fill="#697A94"/>
<path d="M17.4543 89.644C17.6105 89.6221 17.6467 89.6373 18.2155 89.9686C18.7843 90.2979 18.8156 90.3217 18.786 90.4093C18.7679 90.4636 18.7646 90.4654 18.2106 90.7862C17.6039 91.1375 17.5908 91.1432 17.4362 91.1261C17.3639 91.1185 17.3212 91.0956 16.8 90.7939C16.2788 90.4921 16.2394 90.4674 16.2262 90.4255C16.1966 90.336 16.2065 90.3284 16.8115 89.9781C17.3392 89.6726 17.3722 89.6554 17.4543 89.644Z" fill="#697A94"/>
<path d="M15.5966 90.7196C15.7528 90.6978 15.7873 90.712 16.3676 91.048C16.943 91.3812 16.9595 91.3945 16.9332 91.4954C16.9216 91.5401 16.9019 91.5535 16.3578 91.8686C15.733 92.2303 15.7412 92.2274 15.567 92.197C15.4946 92.1856 15.4272 92.1503 15.0277 91.9247C14.7762 91.7829 14.5263 91.6363 14.4737 91.5982C14.3899 91.5383 14.3784 91.5221 14.38 91.4583V91.386L14.9439 91.0595C15.4815 90.7482 15.5144 90.7311 15.5966 90.7196Z" fill="#697A94"/>
<path d="M13.7207 91.8019C13.8917 91.7696 13.9164 91.7801 14.5148 92.1265C15.2793 92.5692 15.2776 92.5035 14.5181 92.9433C13.9295 93.284 13.895 93.2983 13.7388 93.2764C13.6566 93.265 13.6253 93.2488 13.1009 92.9452C12.4992 92.5968 12.4975 92.5939 12.5288 92.5016C12.5469 92.4473 12.5518 92.4445 13.0911 92.1322C13.5761 91.8514 13.6451 91.8153 13.7207 91.8019Z" fill="#697A94"/>
<path d="M11.8794 92.8719C12.0422 92.8481 12.057 92.8547 12.6488 93.1974C13.262 93.5525 13.2702 93.5591 13.2094 93.6629C13.1732 93.7219 13.1519 93.7343 11.3747 94.7633C9.61059 95.7847 9.57608 95.8046 9.47579 95.8247C9.41167 95.837 9.33934 95.8389 9.27522 95.8284C9.17823 95.8123 9.16014 95.8037 8.65542 95.5115L8.13593 95.2107L8.11127 95.1488C8.06688 95.0317 7.92551 95.1231 9.96411 93.9428C11.7495 92.909 11.7972 92.8833 11.8794 92.8719Z" fill="#697A94"/>
<path d="M27.94 85.7145C27.9762 85.7088 28.042 85.7069 28.083 85.7117C28.1537 85.7203 28.2014 85.744 28.6667 86.0077C28.9462 86.1657 29.201 86.3171 29.2371 86.3437C29.2832 86.3799 29.298 86.4094 29.2947 86.457L29.293 86.5208L28.5236 86.9663C27.7673 87.4041 27.7526 87.4127 27.6753 87.4175C27.5142 87.4289 27.501 87.4232 26.9141 87.0834C26.3782 86.7731 26.3733 86.7702 26.3552 86.7159C26.3453 86.6874 26.3469 86.6464 26.3568 86.6274C26.388 86.5713 27.8479 85.7298 27.94 85.7145Z" fill="#697A94"/>
<path d="M25.7337 87.0072C25.885 86.9901 25.9261 87.0081 26.4949 87.3375C27.0555 87.6602 27.0818 87.6811 27.0637 87.7697L27.0539 87.8172L21.7403 90.8938L16.4267 93.9703L16.3478 93.976C16.1867 93.9874 16.1735 93.9817 15.5866 93.6419C15.0507 93.3316 15.0458 93.3287 15.0277 93.2745C15.0178 93.2459 15.0195 93.205 15.0293 93.186C15.0458 93.1574 16.1423 92.5168 20.3445 90.0837L25.64 87.0177L25.7337 87.0072Z" fill="#697A94"/>
<path d="M14.4062 93.5658C14.4588 93.5601 14.5328 93.5648 14.5756 93.5762C14.6742 93.6048 15.6376 94.1569 15.7017 94.2226C15.7247 94.2473 15.7412 94.2911 15.7362 94.3206L15.728 94.3749L14.9602 94.8194C14.1958 95.262 14.1908 95.2649 14.1086 95.2706C13.9557 95.2811 13.9195 95.2659 13.3557 94.9393C12.7803 94.6062 12.754 94.5852 12.7918 94.4948C12.8132 94.4463 12.8395 94.4291 13.5628 94.0103L14.3125 93.5762L14.4062 93.5658Z" fill="#697A94"/>
<path d="M12.2131 94.8661H12.3413L12.9052 95.1925C13.4362 95.5 13.4724 95.5228 13.4872 95.5657C13.5184 95.6561 13.5546 95.6314 12.4218 96.2891L11.3746 96.8955L11.2562 96.8993L11.1395 96.9022L10.5526 96.5624L9.9657 96.2225L9.97062 96.1549L9.97719 96.0864L11.031 95.4763L12.0848 94.8661L12.2131 94.8661Z" fill="#697A94"/>
<path d="M30.7859 84.1182C30.9388 84.1077 30.975 84.1229 31.5388 84.4494C32.1027 84.7759 32.129 84.7969 32.111 84.8854L32.1011 84.933L31.0588 85.5365C29.9096 86.2019 29.9523 86.1809 29.7879 86.1524C29.714 86.14 29.6515 86.1076 29.1632 85.8249C28.675 85.5422 28.6191 85.5061 28.5977 85.4632C28.5484 85.368 28.5122 85.3928 29.6614 84.7274L30.7037 84.1239L30.7859 84.1182Z" fill="#697A94"/>
<path opacity="0.05" d="M2.32933 93.3193C1.4341 92.8009 1.33687 92.0168 2.11216 91.5679L22.8883 79.5386C23.6636 79.0897 25.0178 79.1461 25.913 79.6644L26.502 80.0054L2.91833 93.6603L2.32933 93.3193Z" fill="black"/>
<path d="M6.16082 76.2687C6.14567 76.2775 6.13033 76.2842 6.11529 76.2886C6.05639 76.3058 6.00808 76.2852 5.98536 76.2331L5.6739 75.5174C5.63494 75.4277 5.68184 75.2729 5.7787 75.1717C5.87603 75.0699 5.98573 75.0612 6.02479 75.1506L6.23847 75.6417L7.85001 73.1299C7.92978 73.0054 8.0492 72.9478 8.1165 73.0012C8.18401 73.0545 8.17402 73.1985 8.09433 73.3227L6.28296 76.1461C6.24843 76.2 6.20505 76.2431 6.16082 76.2687Z" fill="#4282B8"/>
<path d="M18.9934 68.1979L8.7283 74.1413C8.62387 74.2018 8.53917 74.1528 8.53917 74.0318C8.53917 73.9109 8.62384 73.7638 8.7283 73.7033L18.9934 67.7599C19.0979 67.6993 19.1825 67.7484 19.1825 67.8694C19.1825 67.9903 19.0979 68.1373 18.9934 68.1979Z" fill="#BFBFBF"/>
<path d="M6.16082 80.1806C6.14567 80.1894 6.13033 80.1961 6.11529 80.2006C6.05639 80.2178 6.00808 80.1971 5.98536 80.145L5.6739 79.4293C5.63494 79.3396 5.68184 79.1849 5.7787 79.0836C5.87603 78.9818 5.98573 78.9731 6.02479 79.0625L6.23847 79.5537L7.85001 77.0418C7.92978 76.9173 8.0492 76.8597 8.1165 76.9131C8.18401 76.9664 8.17402 77.1104 8.09433 77.2346L6.28296 80.058C6.24843 80.1119 6.20505 80.155 6.16082 80.1806Z" fill="#4282B8"/>
<path d="M18.9934 72.1098L8.7283 78.0532C8.62387 78.1137 8.53917 78.0647 8.53917 77.9437C8.53917 77.8228 8.62384 77.6757 8.7283 77.6152L18.9934 71.6718C19.0979 71.6112 19.1825 71.6603 19.1825 71.7813C19.1825 71.9022 19.0979 72.0492 18.9934 72.1098Z" fill="#BFBFBF"/>
<path d="M6.16082 84.0925C6.14567 84.1013 6.13033 84.108 6.11529 84.1125C6.05639 84.1297 6.00808 84.109 5.98536 84.0569L5.6739 83.3412C5.63494 83.2515 5.68184 83.0968 5.7787 82.9956C5.87603 82.8938 5.98573 82.885 6.02479 82.9744L6.23847 83.4656L7.85001 80.9537C7.92978 80.8292 8.0492 80.7716 8.1165 80.8251C8.18401 80.8784 8.17402 81.0223 8.09433 81.1465L6.28296 83.9699C6.24843 84.0238 6.20505 84.0669 6.16082 84.0925Z" fill="#4282B8"/>
<path d="M18.9934 76.0217L8.7283 81.9651C8.62387 82.0256 8.53917 81.9766 8.53917 81.8557C8.53917 81.7347 8.62384 81.5876 8.7283 81.5272L18.9934 75.5837C19.0979 75.5232 19.1825 75.5722 19.1825 75.6932C19.1825 75.8141 19.0979 75.9611 18.9934 76.0217Z" fill="#BFBFBF"/>
<path opacity="0.05" d="M1.41589 155.189L22.6235 142.91C23.4149 142.452 24.698 142.452 25.4894 142.91L38.2963 150.325L38.3856 150.377C39.1769 150.835 39.1769 151.578 38.3855 152.036L17.1779 164.316C16.3865 164.774 15.1034 164.774 14.312 164.316L14.2228 164.264L1.41584 156.849C0.62448 156.391 0.62448 155.648 1.41589 155.189Z" fill="#333333"/>
</g>
<defs>
<clipPath id="clip0_28_542">
<rect width="206" height="235" fill="white"/>
</clipPath>
</defs>
</svg>
