<svg width="256" height="252" viewBox="0 0 256 252" fill="none" xmlns="http://www.w3.org/2000/svg">
<g clip-path="url(#clip0_28_932)">
<path d="M211.991 175.36C211.533 175.36 211.161 174.989 211.161 174.53V130.705C211.161 130.247 211.533 129.875 211.991 129.875C212.45 129.875 212.821 130.247 212.821 130.705V174.53C212.821 174.989 212.45 175.36 211.991 175.36Z" fill="#BBB4B4"/>
<path d="M189.931 164.041C189.917 164.041 189.904 164.041 189.89 164.04C189.432 164.018 189.079 163.629 189.101 163.171L190.908 119.397C190.93 118.939 191.328 118.585 191.777 118.608C192.235 118.631 192.588 119.02 192.566 119.478L190.76 163.252C190.738 163.696 190.371 164.041 189.931 164.041Z" fill="#BBB4B4"/>
<path d="M235.712 164.041C235.272 164.041 234.905 163.696 234.883 163.252L233.077 119.478C233.055 119.02 233.408 118.631 233.866 118.608C234.314 118.584 234.713 118.939 234.735 119.397L236.542 163.171C236.564 163.629 236.211 164.018 235.753 164.04C235.739 164.041 235.725 164.041 235.712 164.041Z" fill="#BBB4B4"/>
<path d="M209.999 152.449C209.541 152.449 209.169 152.077 209.169 151.619V107.794C209.169 107.336 209.541 106.964 209.999 106.964C210.458 106.964 210.829 107.336 210.829 107.794V151.619C210.829 152.077 210.458 152.449 209.999 152.449Z" fill="#BBB4B4"/>
<path d="M234.57 119.747L213.895 104.929C212.666 104.219 209.999 106.777 209.999 105.138C211.221 93.5905 213.078 66.0226 211.669 55.0045C211.669 53.3651 212.666 52.6116 213.895 53.3215L235.322 65.6917C236.552 66.4016 237.549 68.3061 237.549 69.9455C239.377 80.3237 238.896 103.634 237.549 115.616C237.549 117.255 235.8 120.457 234.57 119.747Z" fill="#BBB4B4"/>
<path d="M208.368 130.552L191.063 120.562C188.695 119.195 188.992 116.807 191.726 115.228L207.704 106.004C210.439 104.426 214.574 104.254 216.942 105.621L234.248 115.612C236.616 116.979 236.319 119.367 233.584 120.945L217.606 130.169C214.872 131.748 210.736 131.919 208.368 130.552Z" fill="#BBB4B4"/>
<path d="M204.209 91.0838C206.203 92.1177 220.187 102.196 216.648 105.427C213.109 108.658 188.932 130.002 178.316 129.679C178.316 129.679 166.87 117.115 167.986 114.996C169.245 112.603 189.278 103.446 204.43 101.798C204.43 101.798 202.215 90.0499 204.209 91.0838Z" fill="#3C4358"/>
<path d="M174.066 178.447C174.066 178.447 172.863 178.112 172.751 177.851C172.638 177.589 173.695 177.2 173.695 177.2L174.107 177.741L174.066 178.447Z" fill="#998E82"/>
<path d="M179 174.196C179.598 172.211 179.766 170.115 178.476 168.205C176.32 165.012 172.284 166.068 170.061 167.106C167.838 168.144 167.046 170.404 160.913 173.508C159.363 174.292 151.484 177.702 153.671 180.886C155.245 183.177 160.532 182.787 165.635 182.052C169.994 181.424 172.84 177.367 173.859 177.688C174.005 177.77 173.783 178.295 174.066 178.447C174.688 178.781 178.969 176.823 179.107 175.966C179.229 175.211 179.288 174.956 179 174.196Z" fill="#4A4C57"/>
<path d="M176.018 154.217C178.488 158.014 175.644 165.028 177.348 167.386C179.522 170.397 173.985 173.04 172.691 172.786C172.387 172.727 172.928 171.89 173.095 171.232C173.285 170.485 168.847 168.623 168.071 169.147C167.628 169.446 169.365 168.151 170.382 167.58C170.793 167.349 171.299 167 171.434 166.839C172.268 165.847 169.742 156.368 169.295 155.283C168.848 154.197 174.952 152.577 176.018 154.217Z" fill="#314058"/>
<path d="M185.877 118.908C185.877 118.908 180.431 144.599 180.644 169.889C180.656 171.323 175.18 172.975 173.635 173.045C171.745 173.13 166.75 171.419 166.898 168.757C167.742 153.486 163.714 130.361 166.894 117.409C169.46 106.964 185.877 118.908 185.877 118.908Z" fill="#3C4358"/>
<path opacity="0.05" d="M181.912 143.643C180.525 142.889 177.294 125.049 180.176 119.384C181.451 116.879 205.528 103.864 209.301 106.921L182.784 121.664L181.912 143.643Z" fill="#1A1A1A"/>
<path d="M233.054 102.062C233.054 102.062 234.716 110.362 232.159 114.468C228.532 120.292 204.291 137.564 188.984 136.636C188.984 136.636 183.049 132.382 181.657 121.714C181.347 119.335 207.982 104.507 223.396 102.859C232.167 101.921 233.054 102.062 233.054 102.062Z" fill="#3C4358"/>
<path d="M193.093 187.744C193.093 187.744 191.865 187.519 191.729 187.269C191.594 187.018 192.611 186.535 192.611 186.535L193.07 187.037L193.093 187.744Z" fill="#998E82"/>
<path d="M197.637 183.09C198.054 181.059 198.032 178.956 196.576 177.17C194.142 174.185 190.217 175.599 188.097 176.833C185.976 178.066 185.39 180.388 179.561 184.031C178.088 184.952 170.96 189.711 173.424 192.685C175.198 194.825 180.428 193.961 185.444 192.77C189.729 191.752 191.787 186.802 192.83 187.03C192.984 187.099 192.809 187.641 193.105 187.767C193.755 188.044 197.842 185.709 197.903 184.843C197.957 184.08 197.992 183.821 197.637 183.09Z" fill="#4A4C57"/>
<path d="M194.476 164.037C196.945 167.833 194.101 174.847 195.805 177.206C197.979 180.217 192.443 182.86 191.149 182.606C190.845 182.546 191.385 181.71 191.553 181.052C191.743 180.305 187.304 178.443 186.529 178.966C186.085 179.266 187.823 177.971 188.839 177.4C189.25 177.169 189.756 176.82 189.891 176.659C190.725 175.666 188.2 166.188 187.753 165.102C187.306 164.017 193.409 162.397 194.476 164.037Z" fill="#314058"/>
<path d="M199.436 118.089C199.436 118.089 198 154.199 198.212 179.488C198.224 180.922 192.748 182.575 191.203 182.644C189.313 182.73 184.319 181.019 184.466 178.357C185.31 163.085 180.664 139.489 180.366 126.253C180.088 113.879 199.436 118.089 199.436 118.089Z" fill="#3C4358"/>
<path d="M191.153 49.3097C188.062 53.5188 179.738 85.0702 184.145 84.9402C188.552 84.8102 199.775 65.3394 200.67 51.833C201.588 37.9811 193.944 45.5095 191.153 49.3097Z" fill="#363E58"/>
<path opacity="0.1" d="M197.319 57.5162C197.319 57.5162 192.53 57.7747 192.959 62.7885C193.395 67.8873 197.418 81.4276 197.418 81.4276L197.319 57.5162Z" fill="black"/>
<path d="M203.237 104.998C203.237 104.998 202.198 93.0211 204.078 90.0943C204.84 88.9077 203.755 84.6972 204.552 84.6296C204.972 84.594 212.836 91.1861 222.697 90.1184C228.316 89.51 229.385 86.6252 229.618 86.821C229.85 87.0167 230.576 91.798 230.576 91.798C232.482 92.1331 235.24 106.752 228.022 119.941C224.318 126.707 203.237 104.998 203.237 104.998Z" fill="#3C4358"/>
<path d="M200.656 49.2767L200.751 48.2256L200.656 49.2767Z" fill="#CDCDD5"/>
<path d="M204.107 43.036L204.354 41.2697L206.748 44.0223L204.117 46.5937L204.107 43.036Z" fill="#ECF5FA"/>
<path d="M209.165 48.0977L206.748 44.0222L213.762 40.7255L214.106 41.9889L213.886 43.3662L209.165 48.0977Z" fill="#ECF5FA"/>
<path opacity="0.5" d="M204.107 43.036L204.354 41.2697L206.748 44.0223L204.117 46.5937L204.107 43.036Z" fill="white"/>
<path opacity="0.5" d="M209.165 48.0977L206.748 44.0222L213.762 40.7255L214.106 41.9889L213.886 43.3662L209.165 48.0977Z" fill="white"/>
<path d="M209.897 104.893C210.072 104.933 210.225 105.095 210.24 105.256L210.491 108.027C210.506 108.185 210.376 108.281 210.201 108.241L205.616 107.179C205.44 107.138 205.287 106.976 205.273 106.818L205.022 104.047C205.007 103.886 205.136 103.79 205.312 103.831L209.897 104.893Z" fill="#BEBEBE"/>
<path d="M209.875 107.636L209.669 105.369L205.637 104.435L205.843 106.702L209.875 107.636Z" fill="#4A4C57"/>
<path d="M229.754 63.2629C229.64 59.8491 229.296 57.0973 228.347 54.5106C227.593 52.4546 226.395 50.3269 224.471 48.427C221.59 45.5832 218.778 43.8508 214.288 42.8847L214.106 41.9889C214.106 41.9889 209.702 41.1049 204.647 41.4507L204.49 41.9671C202.703 42.0837 200.438 42.6575 198.512 44.8004C194.509 49.2563 196.391 58.5097 197.098 66.6656C197.805 74.8216 202.189 68.9014 200.88 86.4712C199.32 107.419 206.842 103.221 222.203 104.1C229.153 104.497 230.582 105.704 230.298 102.425C229.979 98.7467 230.119 97.7367 229.069 94.2852C228.876 93.6534 228.701 92.9295 228.553 92.0894C228.3 90.6467 228.128 88.8598 228.098 86.5962C228.031 81.7122 229.804 64.7823 229.754 63.2629Z" fill="#ECF5FA"/>
<path d="M207.513 47.8076C207.908 47.1845 207.969 46.0807 207.969 46.0807L206.748 44.0222L205.246 45.4905C205.246 45.4905 205.068 46.9134 205.54 47.6119C205.623 47.7358 205.736 47.8432 205.879 47.9271L203.235 98.1245L207.617 102.684L213.417 99.5273L207.403 47.9321C207.444 47.8967 207.481 47.8572 207.513 47.8076Z" fill="#4282B8"/>
<path d="M204.643 41.4022L203.31 41.3603L202.652 41.8316C200.824 42.1969 198.69 43.4309 197.064 44.6917C197.064 44.6917 193.011 50.2661 194.314 65.2994C194.85 71.4718 197.516 80.5338 198.084 85.2484C198.176 86.012 198.158 88.7543 198.158 88.7543L197.961 93.3176C197.961 93.3176 197.917 94.1374 197.845 95.4791C197.68 95.439 197.547 95.435 197.473 95.4886C197.026 95.8121 196.24 98.7749 196.613 99.254C196.728 99.4006 197.116 99.7153 197.605 100.064C197.247 106.996 192.771 107.749 192.863 109.023C193.07 111.863 195.254 115.566 197.058 115.3C198.492 115.089 206.242 102.914 207.25 93.1206C207.511 90.5856 207.857 87.3141 207.722 85.4757C207.542 83.0304 207.215 83.0686 206.357 82.1573C206.091 81.8758 205.776 81.5048 205.398 80.9407C202.836 77.1168 203.561 41.3201 204.643 41.4022Z" fill="#363E58"/>
<path opacity="0.05" d="M204.643 41.4022L203.31 41.3603L202.652 41.8316L200.407 44.2638L201.696 45.5469L198.612 46.1751C198.612 46.1751 198.642 81.1594 206.357 82.1573C206.091 81.8759 205.776 81.5048 205.398 80.9407C202.836 77.1169 203.561 41.32 204.643 41.4022Z" fill="white"/>
<path opacity="0.05" d="M199.162 100.651C199.721 98.8597 199.993 97.1778 199.532 96.5999C199.07 96.022 197.856 95.2777 197.473 95.4887C196.99 95.7548 196.19 98.8183 196.613 99.254C197.063 99.7178 198.983 101.225 199.162 100.651Z" fill="white"/>
<g opacity="0.05">
<path d="M205.325 83.292C205.82 83.4498 206.259 84.0168 206.304 84.5551C206.349 85.0936 205.985 85.4017 205.489 85.2439C204.994 85.0861 204.556 84.5223 204.51 83.9839C204.465 83.4456 204.829 83.1342 205.325 83.292Z" fill="black"/>
</g>
<g opacity="0.05">
<path d="M204.792 93.6722C205.288 93.83 205.726 94.397 205.771 94.9353C205.817 95.4738 205.452 95.7819 204.957 95.6241C204.461 95.4663 204.023 94.9025 203.978 94.3641C203.932 93.8258 204.297 93.5144 204.792 93.6722Z" fill="black"/>
</g>
<path d="M204.813 38.6796C204.482 41.215 203.659 43.02 205.643 43.7222C207.628 44.4244 212.464 44.4732 213.594 43.2921C214.487 42.3585 213.079 37.1759 212.469 36.7042C211.858 36.2326 204.813 38.6796 204.813 38.6796Z" fill="#FFC9CA"/>
<path d="M233.393 98.284C231.398 92.8281 231.025 91.0652 230.716 85.9483C230.397 80.66 230.252 68.5046 229.734 59.8419C229.431 54.7703 229 50.8947 228.332 50.2975C224.776 47.1207 218.999 43.6642 217.2 43.3892L217.2 43.3889L214.106 41.9888C214.106 41.9888 211.307 77.0014 206.414 82.2176C206.414 82.2176 207.273 93.7231 207.368 94.6067C208.329 103.605 214.222 120.536 217.711 122.296C221.2 124.057 236.927 114.697 236.295 109.944C236.048 108.091 234.666 101.768 233.393 98.284Z" fill="#363E58"/>
<path opacity="0.05" d="M215.908 64.2011L221.017 65.0307L220.88 63.4557L216.365 62.6051C216.216 63.1337 216.064 63.6662 215.908 64.2011Z" fill="white"/>
<path opacity="0.05" d="M219.636 49.1075L216.21 47.7328L218.349 46.6995L217.2 43.3892L217.2 43.3889L214.106 41.9888C214.106 41.9888 211.307 77.0014 206.413 82.2176C213.183 81.4353 219.636 49.1075 219.636 49.1075Z" fill="white"/>
<path opacity="0.05" d="M217.437 101.225C217.193 102.269 217.582 104.31 218.373 104.402C219.164 104.494 227.688 101.398 228.522 100.236C229.357 99.0741 227.949 96.463 227.248 96.5991C226.548 96.7351 217.633 100.382 217.437 101.225Z" fill="white"/>
<path opacity="0.1" d="M233.52 98.7803C231.525 93.3244 230.699 86.5765 230.39 81.4597C230.071 76.1714 229.926 64.016 229.408 55.3533C226.655 59.135 222.032 66.715 222.814 74.1259C223.824 83.7002 226.683 96.5064 233.52 98.7803Z" fill="black"/>
<path d="M231.106 54.7947C234.858 63.4899 223.588 88.7299 218.463 92.452C217.61 93.0709 209.982 88.6133 210.447 88.3176C210.898 88.0305 216.501 75.4468 219.636 65.0307C223.822 51.1194 226.341 43.7547 231.106 54.7947Z" fill="#363E58"/>
<path d="M197.15 21.5054C197.15 21.5054 196.986 25.2544 197.747 26.0777L199.518 19.8329L197.15 21.5054Z" fill="#434856"/>
<path d="M198.464 20.1257C196.249 23.249 198.642 30.5555 198.642 30.5555C198.642 30.5555 198.181 39.3971 206.244 41.7742C212.654 43.6639 217.819 36.7496 217.819 36.7496C217.819 36.7496 226.536 19.714 214.613 15.7109C203.623 12.0215 200.679 17.0023 198.464 20.1257Z" fill="#FFD3D4"/>
<path d="M222.713 22.361C223.753 28.5549 217.819 36.7494 217.819 36.7494C217.819 36.7494 216.376 34.6836 217.526 34.8259C218.981 35.0058 220.777 30.2277 219.168 28.5047C217.558 26.7816 216.271 30.6664 216.271 30.6664L215.186 32.3854L213.935 26.3956C213.935 26.3956 221.973 17.9542 222.713 22.361Z" fill="#434856"/>
<path d="M203.219 22.5576C203.939 21.7498 208.279 20.2836 212.424 26.546C215.161 30.6799 218.711 27.5057 218.445 27.4338C217.005 27.043 216.689 25.3078 216.689 25.3078C216.689 25.3078 222.193 26.5318 221.464 25.8614C220.158 24.66 220.618 24.0107 220.618 24.0107C220.618 24.0107 224.299 24.5867 224.088 24.0871C222.981 21.4632 221.31 18.2512 220.703 16.3444C220.108 14.4774 213.433 10.8433 210.672 12.5408C210.672 12.5408 206.557 10.4378 203.16 11.5841C200.797 12.3813 197.486 13.4845 196.946 17.9658C196.422 22.3106 194.568 25.3126 195.668 25.1564C196.767 25.0003 198.625 21.5627 200.365 21.4118C202.105 21.2609 203.219 22.5576 203.219 22.5576Z" fill="#3D4356"/>
<path opacity="0.05" d="M255.961 203.858L83.4275 104.252L0.0390015 152.394L37.0897 173.784L13.4812 187.414L39.3611 202.355L62.9695 188.725L101.795 211.139L76.7708 225.586L102.651 240.527L127.675 226.08L172.572 252L255.961 203.858Z" fill="#1A1A1A"/>
<path opacity="0.05" d="M239.153 162.903L213.273 147.962L187.394 162.903L213.274 177.844L239.153 162.903Z" fill="#1A1A1A"/>
<path d="M244.904 205.382L247.335 203.979V122.747L244.904 124.15V205.382Z" fill="#B9CCE3"/>
<path d="M242.474 203.979L244.904 205.382V124.15L242.474 122.747V203.979Z" fill="#C4D2E3"/>
<path d="M172.572 247.152L175.003 245.749V164.518L172.572 165.921V247.152Z" fill="#B9CCE3"/>
<path d="M170.142 245.749L172.572 247.152V165.921L170.142 164.518V245.749Z" fill="#C4D2E3"/>
<path d="M83.4014 112.166L85.8317 110.763V29.5318L83.4014 30.9348V112.166Z" fill="#B9CCE3"/>
<path d="M80.9711 110.763L83.4014 112.166V30.9348L80.9711 29.5318V110.763Z" fill="#C4D2E3"/>
<path d="M11.1573 153.917L13.5876 152.514V71.2827L11.1573 72.6858V153.917Z" fill="#B9CCE3"/>
<path d="M8.72699 152.514L11.1573 153.917V72.6858L8.72699 71.2827V152.514Z" fill="#C4D2E3"/>
<path d="M129.365 192.747C129.36 192.751 129.359 192.757 129.356 192.763L125.768 193.074L128.269 193.995C123.732 201.495 119.677 195.505 119.138 195.677C118.584 195.854 117.046 199.935 118.301 203.283C118.574 204.009 118.541 204.099 119.001 204.547C119.024 204.806 119.075 205.083 119.175 205.324C119.464 206.02 121.523 207.125 123.503 207.125C125.483 207.125 129.211 203.852 129.211 203.852V203.11C130.966 201.959 132.719 200.9 133.502 200.857C135.043 200.772 142.577 195.677 142.577 192.747C142.577 189.818 132.681 189.673 129.365 192.747Z" fill="#4A4C56"/>
<path d="M128.605 193.953L125.927 193.081C125.936 192.725 125.944 192.368 125.958 192.019C126.058 189.515 127.123 185.534 124.812 185.48C122.501 185.426 119.443 184.028 119.271 191.17C119.271 191.17 119.167 195.625 119.271 196.27C119.376 196.915 120.414 198.222 124.203 198.222C125.109 198.222 126.277 197.704 126.277 197.704C126.277 197.704 128.86 196.744 129.783 195.03L128.605 193.953Z" fill="#FFD6D6"/>
<path d="M129.675 141.407C130.762 145.343 130.238 163.582 130.45 188.872C130.462 190.306 124.986 194.954 123.441 195.024C121.552 195.109 116.557 193.398 116.704 190.736C117.549 175.464 110.889 160.84 110.499 147.607C109.83 124.851 128.587 137.472 129.675 141.407Z" fill="#3C4358"/>
<path d="M120.569 142.042C117.467 141.324 120.242 135.349 123.768 135.382C127.294 135.415 127.751 134.957 128.633 136.427C129.514 137.896 125.858 142.891 123.637 143.282C121.417 143.674 120.569 142.042 120.569 142.042Z" fill="#FFD3D4"/>
<path d="M146.77 203.089C146.765 203.094 146.764 203.1 146.761 203.105L143.173 203.416L145.675 204.337C141.137 211.838 137.082 205.847 136.544 206.019C135.99 206.196 134.451 210.277 135.706 213.625C135.979 214.351 135.946 214.442 136.406 214.889C136.429 215.149 136.48 215.426 136.58 215.667C136.87 216.362 138.928 217.467 140.908 217.467C142.889 217.467 146.616 214.194 146.616 214.194V213.453C148.372 212.302 150.124 211.242 150.908 211.199C152.448 211.114 159.982 206.019 159.982 203.089C159.982 200.16 150.087 200.015 146.77 203.089Z" fill="#4A4C56"/>
<path d="M146.01 204.296L143.332 203.424C143.342 203.067 143.349 202.711 143.363 202.361C143.464 199.857 144.528 195.877 142.217 195.822C139.906 195.768 136.848 194.371 136.677 201.512C136.677 201.512 136.572 205.967 136.677 206.613C136.781 207.258 137.819 208.564 141.608 208.564C142.514 208.564 143.683 208.046 143.683 208.046C143.683 208.046 146.265 207.087 147.188 205.372L146.01 204.296Z" fill="#FFD6D6"/>
<path d="M146.829 151.028C148.387 154.846 147.392 174.385 147.604 199.675C147.616 201.109 142.14 204.383 140.595 204.453C138.705 204.538 133.711 202.828 133.858 200.165C134.702 184.894 128.247 167.542 128.54 154.306C128.768 144.005 145.27 147.211 146.829 151.028Z" fill="#3C4358"/>
<path d="M101.978 236.861C101.52 236.861 101.148 236.49 101.148 236.031V192.206C101.148 191.748 101.52 191.376 101.978 191.376C102.437 191.376 102.808 191.748 102.808 192.206V236.031C102.808 236.49 102.437 236.861 101.978 236.861Z" fill="#BBB4B4"/>
<path d="M79.9179 225.542C79.9043 225.542 79.8907 225.542 79.8771 225.541C79.4189 225.519 79.0658 225.13 79.0882 224.672L80.8946 180.898C80.917 180.44 81.3148 180.086 81.764 180.109C82.2221 180.132 82.5753 180.521 82.5529 180.979L80.7464 224.752C80.7247 225.197 80.358 225.542 79.9179 225.542Z" fill="#BBB4B4"/>
<path d="M125.699 225.542C125.259 225.542 124.892 225.197 124.87 224.752L123.064 180.979C123.041 180.521 123.395 180.132 123.853 180.109C124.301 180.085 124.7 180.44 124.722 180.898L126.529 224.672C126.551 225.13 126.198 225.519 125.74 225.541C125.726 225.542 125.712 225.542 125.699 225.542Z" fill="#BBB4B4"/>
<path d="M99.986 213.95C99.5275 213.95 99.1559 213.578 99.1559 213.12V169.295C99.1559 168.836 99.5275 168.465 99.986 168.465C100.444 168.465 100.816 168.836 100.816 169.295V213.12C100.816 213.578 100.444 213.95 99.986 213.95Z" fill="#BBB4B4"/>
<path d="M98.3554 192.053L81.05 182.062C78.6822 180.695 78.9791 178.308 81.7133 176.729L97.6914 167.505C100.425 165.926 104.561 165.755 106.929 167.122L124.235 177.113C126.603 178.48 126.306 180.867 123.571 182.446L107.593 191.67C104.859 193.249 100.723 193.42 98.3554 192.053Z" fill="#BBB4B4"/>
<path d="M84.245 169.182C84.245 169.182 77.2782 175.818 96.6477 183.397C119.559 192.361 147.469 155.147 147.469 155.147C147.469 155.147 148.295 141.696 133.652 146.613C121.634 150.648 84.245 169.182 84.245 169.182Z" fill="#3C4358"/>
<path d="M135.78 150.305C132.678 149.587 135.453 143.613 138.979 143.645C142.505 143.678 142.725 143.392 143.844 144.69C146.156 147.373 141.069 151.154 138.849 151.546C136.629 151.938 135.78 150.305 135.78 150.305Z" fill="#FFD3D4"/>
<path d="M54.3027 161.895C54.408 162.724 55.5073 164.086 55.5073 165.159C55.5073 166.232 55.1747 167.86 55.5549 168.016C55.7701 168.104 56.3587 167.99 56.5823 167.677C56.8058 167.364 55.9966 164.313 57.3156 163.218C58.6345 162.123 54.3027 161.895 54.3027 161.895Z" fill="#3B435A"/>
<path d="M54.9541 155.387C54.9541 155.387 52.7104 158.823 53.7163 161.505C54.7221 164.188 57.1399 164.542 58.4924 163.81C59.845 163.078 63.4007 165.188 67.4121 163.977C69.6308 163.307 74.1999 159.968 72.4811 158.37C71.836 157.771 67.4267 158.171 64.3768 159.561C62.7331 160.311 60.4835 158.381 58.5388 157.15C56.594 155.919 54.9541 155.387 54.9541 155.387Z" fill="#3B435A"/>
<path d="M50.2556 123.87C49.2186 129.882 56.4388 151.371 54.3759 156.448C54.0791 157.178 55.9413 156.503 58.5255 158.122C59.2769 158.592 59.9716 160.468 62.2402 160.559C65.6788 160.698 68.4457 160.837 66.5154 159.798C65.9815 159.51 60.6719 158.015 60.0125 156.342C58.6442 152.87 60.9446 116.116 60.9446 116.116C60.9446 116.116 51.2926 117.859 50.2556 123.87Z" fill="#FFD6D6"/>
<path d="M66.693 170.224C66.7983 171.053 67.8976 172.415 67.8976 173.488C67.8976 174.561 67.565 176.188 67.9452 176.345C68.1604 176.433 68.7491 176.319 68.9726 176.006C69.1961 175.693 68.3869 172.642 69.7059 171.547C71.0248 170.452 66.693 170.224 66.693 170.224Z" fill="#3B435A"/>
<path d="M67.3443 163.716C67.3443 163.716 65.1007 167.152 66.1065 169.834C67.1124 172.517 69.5301 172.871 70.8827 172.139C72.2352 171.407 75.7909 173.517 79.8023 172.306C82.0211 171.636 86.5901 168.297 84.8714 166.699C84.2263 166.099 79.817 166.5 76.767 167.89C75.1233 168.64 72.8738 166.71 70.929 165.479C68.9843 164.248 67.3443 163.716 67.3443 163.716Z" fill="#3B435A"/>
<path d="M62.6459 132.199C61.6089 138.211 68.829 159.7 66.7662 164.777C66.4693 165.507 68.3315 164.832 70.9157 166.451C71.6672 166.921 72.3618 168.797 74.6304 168.888C78.0691 169.027 80.8359 169.166 78.9057 168.127C78.3718 167.839 73.0622 166.344 72.4027 164.671C71.0345 161.199 73.3349 124.445 73.3349 124.445C73.3349 124.445 63.6829 126.188 62.6459 132.199Z" fill="#FFD6D6"/>
<path d="M52.8294 139.948C60.94 143.842 65.3191 144.57 66.7128 141.936C68.1065 139.301 72.9979 142.517 73.2323 136.407C73.4668 130.296 74.2103 123.59 73.517 121.449C72.8236 119.308 73.2323 121.881 73.2323 121.881L63.7725 127.219L52.8294 139.948Z" fill="#3C4358"/>
<path d="M38.6884 198.689C38.2299 198.689 37.8583 198.317 37.8583 197.859V154.034C37.8583 153.575 38.2299 153.204 38.6884 153.204C39.1469 153.204 39.5185 153.575 39.5185 154.034V197.859C39.5185 198.317 39.1469 198.689 38.6884 198.689Z" fill="#BBB4B4"/>
<path d="M16.6281 187.37C16.6145 187.37 16.6009 187.37 16.5872 187.369C16.1291 187.347 15.7759 186.957 15.7983 186.5L17.6047 142.726C17.6271 142.268 18.025 141.914 18.4741 141.937C18.9323 141.959 19.2854 142.348 19.263 142.806L17.4566 186.58C17.4349 187.024 17.0681 187.37 16.6281 187.37Z" fill="#BBB4B4"/>
<path d="M62.4089 187.37C61.9689 187.37 61.6022 187.024 61.5805 186.58L59.774 142.806C59.7516 142.348 60.1048 141.959 60.5629 141.937C61.0114 141.912 61.4099 142.268 61.4323 142.726L63.2387 186.5C63.2611 186.957 62.908 187.347 62.4498 187.369C62.4362 187.37 62.4226 187.37 62.4089 187.37Z" fill="#BBB4B4"/>
<path d="M36.6961 175.777C36.2376 175.777 35.866 175.406 35.866 174.947V131.123C35.866 130.664 36.2376 130.292 36.6961 130.292C37.1546 130.292 37.5262 130.664 37.5262 131.123V174.947C37.5262 175.406 37.1546 175.777 36.6961 175.777Z" fill="#BBB4B4"/>
<path d="M35.0655 153.881L17.7601 143.89C15.3923 142.523 15.6893 140.135 18.4234 138.557L34.4015 129.332C37.1356 127.754 41.2716 127.583 43.6394 128.95L60.9448 138.94C63.3126 140.307 63.0157 142.695 60.2816 144.273L44.3034 153.498C41.5693 155.076 37.4334 155.248 35.0655 153.881Z" fill="#BBB4B4"/>
<path d="M53.835 141.538C65.7202 136.046 74.9014 129.973 73.517 121.449C72.1325 112.925 50.2188 111.509 46.0289 113.069C41.8391 114.63 27.1057 121.472 26.7702 125.819C26.4348 130.165 46.1449 145.092 53.835 141.538Z" fill="#3C4358"/>
<path d="M73.6944 113.873C73.1537 114.693 72.8545 116.671 74.15 118.788C75.4954 120.985 77.7102 119.998 78.073 119.613C80.5399 116.994 79.5529 114.996 78.5491 113.141C77.5453 111.287 74.8197 112.167 73.6944 113.873Z" fill="#FFD3D4"/>
<path d="M51.783 124.076C54.2592 128.099 77.2414 120.247 76.8102 117.681C76.4099 115.299 60.6403 116.346 54.8226 119.033C49.0049 121.72 51.783 124.076 51.783 124.076Z" fill="#FFD3D4"/>
<path d="M113.736 159.392C116.183 163.432 139.32 152.564 138.565 148.905C138.095 146.623 122.647 151.725 116.811 154.37C110.974 157.016 113.736 159.392 113.736 159.392Z" fill="#FFD3D4"/>
<path d="M172.572 170.889V173.178L255.961 125.036V122.747L172.572 170.889Z" fill="#B9CCE3"/>
<path d="M0.0387573 71.2827V73.5715L172.572 173.178V170.889L0.0387573 71.2827Z" fill="#C4D2E3"/>
<path d="M172.572 170.889L0.0387573 71.2827L83.4276 23.1411L255.961 122.747L172.572 170.889Z" fill="#CED7E3"/>
<path d="M176.143 118.279L160.328 109.149L136.173 123.093L151.988 132.224L176.143 118.279Z" fill="#EFEFEF"/>
<path d="M167.878 119.551L157.47 113.542C157.339 113.467 157.339 113.345 157.47 113.27C157.601 113.194 157.812 113.194 157.942 113.27L168.351 119.279C168.481 119.354 168.481 119.476 168.351 119.551C168.22 119.627 168.009 119.627 167.878 119.551Z" fill="#C6C6C6"/>
<path d="M165.605 120.863L155.197 114.855C155.066 114.779 155.066 114.657 155.197 114.582C155.328 114.507 155.539 114.507 155.669 114.582L166.078 120.591C166.208 120.666 166.208 120.788 166.078 120.863C165.947 120.939 165.736 120.939 165.605 120.863Z" fill="#C6C6C6"/>
<path d="M163.332 122.176L152.924 116.167C152.793 116.092 152.793 115.97 152.924 115.894C153.055 115.819 153.266 115.819 153.396 115.894L163.805 121.903C163.935 121.978 163.935 122.1 163.805 122.176C163.674 122.251 163.463 122.251 163.332 122.176Z" fill="#C6C6C6"/>
<path d="M161.059 123.488L150.651 117.479C150.521 117.404 150.521 117.282 150.651 117.206C150.782 117.131 150.993 117.131 151.124 117.206L161.532 123.215C161.662 123.29 161.662 123.412 161.532 123.488C161.401 123.563 161.19 123.563 161.059 123.488Z" fill="#C6C6C6"/>
<path d="M158.786 124.8L148.378 118.791C148.248 118.716 148.248 118.594 148.378 118.518C148.509 118.443 148.72 118.443 148.851 118.518L159.259 124.527C159.389 124.603 159.389 124.725 159.259 124.8C159.128 124.875 158.917 124.875 158.786 124.8Z" fill="#C6C6C6"/>
<path d="M155.178 126.884L149.974 123.879C149.843 123.804 149.843 123.682 149.974 123.606C150.104 123.531 150.315 123.531 150.446 123.606L155.65 126.611C155.781 126.686 155.781 126.808 155.65 126.884C155.519 126.959 155.308 126.959 155.178 126.884Z" fill="#C6C6C6"/>
<path opacity="0.1" d="M147.514 119.421C147.324 118.847 146.68 118.419 146.077 118.467C145.798 118.489 145.58 118.611 145.441 118.79L145.439 118.788L141.609 123.329L141.611 123.331C141.454 123.538 141.403 123.821 141.505 124.127C141.695 124.701 142.339 125.128 142.942 125.081C143.253 125.056 143.491 124.909 143.624 124.694L143.625 124.695L147.385 120.253L147.38 120.25C147.558 120.04 147.621 119.743 147.514 119.421Z" fill="black"/>
<path d="M147.438 119.858C147.73 119.418 147.512 118.759 146.95 118.386C146.389 118.014 145.697 118.068 145.405 118.508C145.113 118.948 145.331 119.607 145.893 119.98C146.454 120.352 147.146 120.298 147.438 119.858Z" fill="#545456"/>
<path d="M145.439 118.463L141.609 123.004L143.625 124.37L147.385 119.928L145.439 118.463Z" fill="#545456"/>
<path d="M143.614 124.391C143.906 123.951 143.687 123.292 143.126 122.919C142.565 122.547 141.873 122.601 141.581 123.041C141.289 123.481 141.507 124.14 142.068 124.513C142.63 124.885 143.321 124.831 143.614 124.391Z" fill="#BF272D"/>
<path d="M47.3866 60.452L47.3668 59.4209L65.1446 52.2123V53.0663L47.3866 60.452Z" fill="#BDBDBD"/>
<path d="M57.6916 59.6494C62.5382 57.367 65.8251 54.1533 65.0329 52.4715C64.2408 50.7897 59.6697 51.2766 54.823 53.5591C49.9764 55.8416 46.6896 59.0553 47.4817 60.7371C48.2738 62.4189 52.8449 61.9319 57.6916 59.6494Z" fill="#3D4356"/>
<path d="M57.6916 58.9854C62.5382 56.7029 65.8251 53.4893 65.0329 51.8075C64.2408 50.1257 59.6697 50.6126 54.823 52.8951C49.9764 55.1776 46.6896 58.3912 47.4817 60.073C48.2738 61.7548 52.8449 61.2679 57.6916 58.9854Z" fill="#434856"/>
<path opacity="0.05" d="M34.9622 70.1378L80.9712 43.5761L77.8081 41.7501L31.7992 68.3117L34.9622 70.1378Z" fill="black"/>
<path d="M54.2443 57.5997L58.27 55.2756V40.9994L54.2443 43.3235V57.5997Z" fill="#434856"/>
<path d="M53.3816 57.1017L54.2442 57.5997V43.3235L53.3816 42.8255V57.1017Z" fill="#3D4356"/>
<path d="M34.3425 60.4223L76.4957 34.6902C77.2898 34.2318 77.9335 33.0019 77.9335 31.9433L79.168 1.32265C79.168 0.263968 77.2898 -0.297346 76.4957 0.161075L33.3623 25.0626C32.5683 25.521 31.9246 26.7509 31.9246 27.8096V58.5049C31.9246 59.5635 33.5484 60.8807 34.3425 60.4223Z" fill="#3D4356"/>
<path d="M79.2616 30.7893V32.7814C79.2616 33.6982 78.6179 34.813 77.8239 35.2715L34.6905 60.173C33.8964 60.6315 33.2527 60.2599 33.2527 59.343V57.351L79.2616 30.7893Z" fill="#434856"/>
<path d="M34.6905 25.7267L48.3494 17.8412L77.8239 0.825112C78.6179 0.366692 79.2616 0.738289 79.2616 1.65513V30.8721L48.3494 48.7182L33.2527 57.4337V47.1414V36.8491V28.2168C33.2527 27.3 33.8964 26.1851 34.6905 25.7267Z" fill="#4D4D4D"/>
<path d="M34.6904 26.7227L47.1991 19.5013L77.8238 1.82117C78.141 1.63806 78.399 1.78694 78.399 2.15316V30.3741L47.1991 48.3862L34.1153 55.9397V46.3114V36.6831V27.7188C34.1153 27.3526 34.3734 26.9057 34.6904 26.7227Z" fill="white"/>
<path d="M65.0973 25.5247L67.6388 24.0574V31.0745L65.0973 32.5417V25.5247Z" fill="#4282B8"/>
<path d="M60.1247 26.2265L62.6662 24.7592V33.9451L60.1247 35.4124V26.2265Z" fill="#4282B8"/>
<path d="M55.1522 30.1178L57.6936 28.6506V36.8159L55.1522 38.2831V30.1178Z" fill="#4282B8"/>
<path d="M50.1796 29.1706L52.7211 27.7033V39.6866L50.1796 41.1538V29.1706Z" fill="#4282B8"/>
<path d="M45.207 30.118L47.7485 28.6508V42.5573L45.207 44.0245V30.118Z" fill="#4282B8"/>
<path d="M41.892 46.2706C41.8346 46.2706 41.7774 46.2558 41.726 46.2262C41.6232 46.1668 41.56 46.0572 41.56 45.9386V26.844C41.56 26.6606 41.7087 26.5119 41.892 26.5119C42.0754 26.5119 42.2241 26.6606 42.2241 26.844V45.3635L70.4563 29.0645C70.6148 28.9724 70.8181 29.0274 70.91 29.1861C71.0016 29.345 70.9473 29.5479 70.7884 29.6397L42.0581 46.2262C42.0067 46.2558 41.9494 46.2706 41.892 46.2706Z" fill="#CFCFCF"/>
<path d="M206.255 138.505L190.44 129.374L166.285 143.319L182.101 152.45L206.255 138.505Z" fill="#4282B8"/>
<path opacity="0.3" d="M206.255 138.505L190.44 129.374L166.285 143.319L182.101 152.45L206.255 138.505Z" fill="white"/>
<path d="M208.843 139.003L193.028 129.872L168.873 143.817L184.688 152.948L208.843 139.003Z" fill="#4282B8"/>
<path opacity="0.4" d="M208.843 139.003L193.028 129.872L168.873 143.817L184.688 152.948L208.843 139.003Z" fill="white"/>
<path d="M211.431 139.501L195.616 130.37L171.461 144.315L187.276 153.446L211.431 139.501Z" fill="#4282B8"/>
<path opacity="0.5" d="M211.431 139.501L195.616 130.37L171.461 144.315L187.276 153.446L211.431 139.501Z" fill="white"/>
<path d="M194.622 144.615L186.108 139.7L191.762 136.436L200.275 141.351L194.622 144.615Z" fill="#EFF6FA"/>
<path d="M188.826 148.498L179.382 143.045C179.063 142.861 179.063 142.562 179.382 142.378C179.702 142.193 180.219 142.193 180.539 142.378L189.983 147.83C190.302 148.014 190.302 148.313 189.983 148.498C189.664 148.682 189.146 148.682 188.826 148.498Z" fill="#EFF6FA"/>
<path d="M191.696 147.22L181.596 141.389C181.436 141.297 181.436 141.147 181.596 141.055C181.756 140.963 182.015 140.963 182.174 141.055L192.274 146.886C192.434 146.978 192.434 147.127 192.274 147.22C192.114 147.312 191.855 147.312 191.696 147.22Z" fill="#EFF6FA"/>
<path d="M189.586 135.18L202.451 142.607L199.571 136.842L189.586 135.18Z" fill="#EFF6FA"/>
<path d="M201.058 140.611L199.282 139.585L201.973 138.031L203.75 139.057L201.058 140.611Z" fill="#EFF6FA"/>
<path opacity="0.05" d="M104.504 69.3869L113.328 64.2921L111.388 63.1717L102.563 68.2664L104.504 69.3869Z" fill="black"/>
<path d="M113.149 62.7891V64.3953L112.97 64.2918V62.6856L113.149 62.7891Z" fill="#B9CCE3"/>
<path d="M108.826 65.285V66.8912L108.647 66.7878V65.1816L108.826 65.285Z" fill="#B9CCE3"/>
<path opacity="0.05" d="M128.436 54.6888L114.311 46.5343L85.4716 63.1836L99.5965 71.3381L128.436 54.6888Z" fill="black"/>
<path d="M99.5965 69.979L126.082 54.6888L114.311 47.8934L87.8257 63.1836L99.5965 69.979Z" fill="#EFEFEF"/>
<path d="M99.5965 69.979L126.081 54.6888V41.0979L99.5965 56.3881V69.979Z" fill="#EFF6FA"/>
<path d="M120.306 54.5836L123.248 52.8847V48.8076L120.306 50.5064V54.5836Z" fill="#B9CCE3"/>
<path d="M104.504 67.5768L113.328 62.482L111.388 61.3616L102.563 66.4564L104.504 67.5768Z" fill="#CED7E3"/>
<path d="M104.504 67.7807V67.5768L102.563 66.4564V66.6603L104.504 67.7807Z" fill="#B9CCE3"/>
<path d="M104.504 67.7806L113.328 62.6859V62.4821L104.504 67.5768V67.7806Z" fill="#C4D2E3"/>
<path d="M102.563 66.4563L111.388 61.3615V53.9763L102.563 59.071V66.4563Z" fill="#B9CCE3"/>
<path d="M87.8257 63.1833L99.5968 69.979V56.7614L93.7113 46.0742L88.5002 49.5198L87.8257 49.9658V63.1833Z" fill="#DBEBF4"/>
<path d="M92.8542 46.9312L86.2942 51.2687L85.7917 50.9785L92.8542 46.3088L99.9168 59.1332L99.4143 58.843L92.8542 46.9312Z" fill="#C4D2E3"/>
<path opacity="0.1" d="M92.8542 46.9312L86.2942 51.2687L85.7917 50.9785L92.8542 46.3088L99.9168 59.1332L99.4143 58.843L92.8542 46.9312Z" fill="black"/>
<path d="M121.693 29.6595L128.756 42.4839L114.63 34.3292L121.693 29.6595Z" fill="#4282B8"/>
<path d="M94.0422 63.3474L96.9849 65.0463V60.9692L94.0422 59.2703V63.3474Z" fill="#B9CCE3"/>
<path d="M90.4377 61.2665L93.3805 62.9654V58.8883L90.4377 57.1894V61.2665Z" fill="#B9CCE3"/>
<path d="M113.726 61.812L118.363 59.1352V50.2552L113.726 52.9319V61.812Z" fill="#C4D2E3"/>
<path d="M115.572 59.8957L116.517 59.3505V52.1848L115.572 52.73V59.8957Z" fill="#B9CCE3"/>
<path d="M117.559 57.3781V56.9708C117.559 56.9222 117.585 56.8773 117.627 56.853C117.646 56.8417 117.668 56.8356 117.69 56.8349C117.85 56.5196 117.805 54.8071 117.627 54.6372C117.585 54.6129 117.559 54.5681 117.559 54.5195V54.1122C117.559 54.0371 117.62 53.9762 117.695 53.9762C117.77 53.9762 117.831 54.0371 117.831 54.1122V54.4622C117.961 54.6242 118.037 55.021 118.056 55.6451C118.071 56.1258 118.042 56.7672 117.912 56.9929C117.888 57.0339 117.86 57.0635 117.831 57.0833V57.3781C117.831 57.4531 117.77 57.514 117.695 57.514C117.62 57.514 117.559 57.4532 117.559 57.3781Z" fill="#B9CCE3"/>
<path d="M104.504 67.7807V69.3869L104.683 69.2835V67.6773L104.504 67.7807Z" fill="#C4D2E3"/>
<path d="M108.826 65.285V66.8912L109.006 66.7878V65.1816L108.826 65.285Z" fill="#C4D2E3"/>
<path d="M104.504 67.7807V69.3869L104.324 69.2835V67.6773L104.504 67.7807Z" fill="#B9CCE3"/>
<path d="M113.149 62.7891V64.3953L113.329 64.2918V62.6856L113.149 62.7891Z" fill="#C4D2E3"/>
<path d="M121.693 29.6595L126.614 38.5957L128.756 42.484L99.917 59.1333L97.7755 55.2447L92.8543 46.3088L121.693 29.6595Z" fill="#C4D2E3"/>
<path d="M155.996 129.808L155.153 130.652L156.201 130.406C156.235 130.011 156.441 129.523 156.676 129.021C156.202 129.256 155.735 129.448 155.291 129.496L155.045 130.544L155.889 129.701L155.996 129.808Z" fill="#D3C2A8"/>
<path d="M155.153 130.652L155.996 129.808L155.889 129.701L155.045 130.544L155.012 130.684L155.153 130.652Z" fill="#4A4C56"/>
<path d="M155.961 129.913C156.058 129.913 156.138 129.834 156.138 129.736C156.138 129.639 156.058 129.559 155.961 129.559C155.863 129.559 155.783 129.639 155.783 129.736C155.783 129.834 155.863 129.913 155.961 129.913Z" fill="#4A4C56"/>
<path d="M167.575 118.938C167.879 118.634 167.064 117.819 166.76 118.123C166.76 118.123 166.591 118.28 166.304 118.549L167.148 119.394C167.417 119.106 167.575 118.938 167.575 118.938Z" fill="#545456"/>
<path d="M159.143 125.332C159.047 125.428 158.95 125.527 158.852 125.628L160.069 126.845C160.17 126.747 160.269 126.65 160.365 126.554C161.503 125.416 165.472 121.184 166.984 119.569L166.128 118.714C164.514 120.225 160.281 124.194 159.143 125.332Z" fill="#545456"/>
<path d="M156.14 128.717C156.078 128.793 156.084 128.904 156.154 128.974L156.438 129.258L156.723 129.543C156.793 129.613 156.904 129.619 156.98 129.556C157.392 129.22 158.677 128.158 159.79 127.11L158.587 125.907C157.539 127.02 156.477 128.305 156.14 128.717Z" fill="#545456"/>
<path d="M158.587 125.907L159.79 127.11C159.885 127.022 159.978 126.933 160.069 126.845L158.852 125.629C158.764 125.72 158.675 125.813 158.587 125.907Z" fill="#C6AD91"/>
<path d="M166.304 118.549C166.249 118.6 166.191 118.655 166.128 118.714L166.984 119.569C167.043 119.507 167.097 119.448 167.148 119.394L166.304 118.549Z" fill="#C6AD91"/>
<path d="M166.319 118.632C166.319 118.632 166.224 118.402 166.016 118.602C165.809 118.802 163.67 120.669 163.636 120.771C163.602 120.873 163.67 121.009 163.874 121.077C164.081 121.146 166.319 118.632 166.319 118.632Z" fill="#C6AD91"/>
<path d="M157.454 106.741L141.639 97.611L117.484 111.556L133.299 120.686L157.454 106.741Z" fill="#EFEFEF"/>
<path d="M149.189 108.014L138.781 102.005C138.651 101.93 138.65 101.807 138.781 101.732C138.912 101.657 139.123 101.657 139.254 101.732L149.662 107.741C149.792 107.816 149.792 107.938 149.662 108.014C149.531 108.089 149.32 108.089 149.189 108.014Z" fill="#C6C6C6"/>
<path d="M146.916 109.326L136.508 103.317C136.378 103.242 136.377 103.12 136.508 103.044C136.639 102.969 136.85 102.969 136.98 103.044L147.389 109.053C147.519 109.128 147.519 109.251 147.389 109.326C147.258 109.401 147.047 109.401 146.916 109.326Z" fill="#C6C6C6"/>
<path d="M135.608 117.245L123.912 110.493C123.753 110.401 123.753 110.253 123.912 110.161L132.78 105.042C132.939 104.95 133.196 104.95 133.355 105.042C133.514 105.133 133.514 105.282 133.355 105.374L124.775 110.327L136.183 116.913C136.342 117.005 136.342 117.154 136.183 117.245C136.024 117.337 135.767 117.337 135.608 117.245Z" fill="#C6C6C6"/>
<path d="M127.078 111.989L125.928 111.325L130.97 108.414L132.12 109.078L127.078 111.989Z" fill="#C6C6C6"/>
<path d="M129.51 113.393L128.36 112.729L134.538 109.162L135.688 109.826L129.51 113.393Z" fill="#C6C6C6"/>
<path d="M131.942 114.797L130.792 114.133L138.785 109.518L139.936 110.182L131.942 114.797Z" fill="#C6C6C6"/>
<path d="M134.374 116.201L133.223 115.537L138.265 112.626L139.415 113.29L134.374 116.201Z" fill="#C6C6C6"/>
<path d="M175.846 80.3167L160.03 71.1864L135.876 85.1312L151.691 94.2616L175.846 80.3167Z" fill="#EFEFEF"/>
<path d="M168.263 80.9071L157.854 74.8983C157.724 74.823 157.724 74.7009 157.854 74.6256C157.985 74.5502 158.196 74.5503 158.327 74.6256L168.735 80.6344C168.865 80.7097 168.866 80.8318 168.735 80.9071C168.604 80.9825 168.393 80.9824 168.263 80.9071Z" fill="#C6C6C6"/>
<path d="M165.99 82.2194L155.581 76.2105C155.451 76.1352 155.451 76.0132 155.581 75.9378C155.712 75.8624 155.923 75.8625 156.054 75.9378L166.462 81.9466C166.592 82.0219 166.593 82.144 166.462 82.2194C166.331 82.2947 166.12 82.2947 165.99 82.2194Z" fill="#C6C6C6"/>
<path d="M152.596 91.2645L140.541 84.3046C140.382 84.2129 140.382 84.0643 140.541 83.9726L152.309 77.1787C152.468 77.0869 152.725 77.087 152.884 77.1787L164.94 84.1385C165.098 84.2302 165.099 84.3788 164.94 84.4706L153.172 91.2645C153.013 91.3562 152.755 91.3561 152.596 91.2645ZM141.403 84.1386L152.884 90.7665L164.077 84.3046L152.597 77.6767L141.403 84.1386Z" fill="#C6C6C6"/>
<path d="M143.974 86.2867C143.815 86.195 143.815 86.0464 143.974 85.9546L155.742 79.1608C155.901 79.0691 156.159 79.0692 156.317 79.1608C156.476 79.2525 156.476 79.4011 156.317 79.4928L144.549 86.2867C144.39 86.3784 144.133 86.3783 143.974 86.2867Z" fill="#C6C6C6"/>
<path d="M148.195 88.7235C148.036 88.6318 148.036 88.4832 148.195 88.3915L159.963 81.5977C160.122 81.5059 160.379 81.506 160.538 81.5977C160.697 81.6893 160.697 81.8379 160.538 81.9297L148.77 88.7235C148.611 88.8152 148.354 88.8152 148.195 88.7235Z" fill="#C6C6C6"/>
<path d="M162.085 85.7865L150.029 78.8267C149.871 78.735 149.87 78.5865 150.029 78.4947C150.188 78.4029 150.446 78.403 150.604 78.4947L162.66 85.4545C162.819 85.5461 162.819 85.6947 162.66 85.7865C162.501 85.8783 162.244 85.8782 162.085 85.7865Z" fill="#C6C6C6"/>
<path d="M159.491 87.284L147.436 80.3242C147.277 80.2325 147.277 80.0839 147.436 79.9922C147.595 79.9004 147.852 79.9005 148.011 79.9922L160.066 86.9519C160.225 87.0436 160.225 87.1922 160.066 87.284C159.907 87.3757 159.65 87.3756 159.491 87.284Z" fill="#C6C6C6"/>
<path d="M156.897 88.7816L144.841 81.8218C144.683 81.7301 144.683 81.5816 144.841 81.4898C145 81.398 145.258 81.3981 145.417 81.4898L157.472 88.4496C157.631 88.5412 157.631 88.6898 157.472 88.7816C157.313 88.8734 157.056 88.8733 156.897 88.7816Z" fill="#C6C6C6"/>
<path d="M20.529 85.9501C19.1475 90.0018 26.2504 116.784 29.9886 116.163C33.7267 115.543 30.9167 102.094 30.1174 90.4879C29.2977 78.5851 21.9105 81.8983 20.529 85.9501Z" fill="#FFD3D4"/>
<path d="M29.2672 78.2923C26.8705 78.7492 23.185 79.9069 21.0381 82.5402C17.5471 86.8224 21.4253 101.584 21.689 101.908C21.922 102.194 25.2137 104.885 27.7139 104.885C37.8219 104.886 29.2672 78.2923 29.2672 78.2923Z" fill="#4282B8"/>
<path opacity="0.1" d="M32.7798 87.1157C32.7798 87.1157 30.9514 89.0765 30.1038 90.7507C27.8693 95.1642 26.1442 101.642 30.6545 103.597C35.1649 105.551 32.7798 87.1157 32.7798 87.1157Z" fill="black"/>
<path d="M54.0651 90.7657C53.572 88.9491 52.7044 87.0385 51.1976 85.2689C47.904 81.4004 42.5169 79.0491 34.5394 77.9377C33.1875 77.7493 28.5839 77.207 25.796 79.8165C22.0375 83.3345 23.9049 90.722 24.3291 97.7452C24.7718 105.076 27.9064 106.311 25.9781 122.695C24.6101 134.317 38.3374 138.151 44.3174 138.331C50.2973 138.511 48.0352 134.576 51.2081 134.643C54.3808 134.711 54.7344 128.283 54.0914 125.249C53.9736 124.694 53.8772 124.061 53.8131 123.331C53.7669 122.804 53.8133 122.22 53.8614 121.582C53.9278 120.7 53.9976 119.71 53.8308 118.594C52.4837 109.573 52.1007 108.291 55.4656 99.4067C55.5703 99.1304 55.6659 98.8464 55.7597 98.5616C56.5986 96.0168 54.6228 92.821 54.0651 90.7657Z" fill="#4282B8"/>
<path opacity="0.1" d="M44.6802 104.147C45.1436 109.393 50.8457 118.569 53.8613 121.582C53.9278 120.7 53.9975 119.71 53.8307 118.594C52.4836 109.573 52.1007 108.291 55.4656 99.4066C55.5702 99.1304 55.6658 98.8463 55.7596 98.5616C51.446 97.4262 43.9714 96.1241 44.6802 104.147Z" fill="black"/>
<path d="M32.9908 145.42C24.4243 142.273 20.7509 136.289 25.0933 123.056C25.5329 121.716 25.2381 117.651 26.038 117.653C26.4591 117.654 33.7245 124.9 43.6405 124.689C49.2911 124.568 53.6451 121.786 53.8602 122.001C54.0753 122.216 54.3856 127.043 54.3856 127.043C56.2547 127.541 62.9518 132.891 58.6235 138.337C55.34 142.468 42.807 149.026 32.9908 145.42Z" fill="#3C4358"/>
<path d="M26.6867 112.52C26.7012 113.032 25.8396 115.078 25.8268 115.694C25.8139 116.309 25.6596 117.803 26.193 118.411C26.3062 118.54 30.7927 122.439 32.1762 122.412C32.8108 122.399 45.5394 126.898 46.267 124.154C46.6044 122.881 27.0767 113.246 27.0107 112.924C26.9115 112.441 26.6867 112.52 26.6867 112.52Z" fill="#4282B8"/>
<path d="M56.2841 91.9723C58.4442 95.8521 57.8788 125.128 54.0913 125.249C50.3038 125.371 49.3136 110.655 47.7884 98.5765C46.2242 86.1892 54.124 88.0925 56.2841 91.9723Z" fill="#FFD3D4"/>
<path d="M44.8842 99.0646C45.6495 100.621 45.0294 109.858 48.1505 111.114C52.2081 112.747 58.5324 108.372 58.5324 108.372C58.5324 108.372 57.6039 94.3378 56.5369 91.6512C55.5701 89.2171 49.7559 83.4125 48.457 82.7416C47.1582 82.0707 42.5499 94.3175 44.8842 99.0646Z" fill="#4282B8"/>
<path d="M32.7585 77.8148C32.5258 77.8714 32.1287 78.0897 32.2255 78.4288C32.3223 78.768 34.106 80.4646 36.422 80.6463C38.0477 80.7739 42.9195 81.6913 43.2595 80.2262C43.4822 79.2664 34.2534 77.4514 32.7585 77.8148Z" fill="#FFCCCC"/>
<path d="M34.285 73.949C33.8136 76.0953 32.5986 78.4007 34.2457 79.1494C35.8927 79.898 40.8748 80.3786 40.987 78.9585C41.075 77.8442 41.4746 73.2752 40.9868 72.826C40.499 72.3769 34.285 73.949 34.285 73.949Z" fill="#FFC9CA"/>
<path d="M40.6806 154.696L19.596 143.13C18.3664 142.42 16.1096 141.726 16.1096 140.087C14.2345 129.475 13.9513 90.2493 17.9358 88.2572C21.9203 86.2651 41.433 101.692 41.433 101.692C42.6626 102.402 43.6594 104.307 43.6594 105.946C43.0914 117.238 42.712 139.458 43.6594 150.565C43.6594 152.204 41.9102 155.406 40.6806 154.696Z" fill="#BBB4B4"/>
<path d="M26.1871 64.0243C26.1871 64.0243 23.2274 68.6006 23.171 70.4039C23.1147 72.2073 23.7887 74.1085 25.3385 75.0665C25.3385 75.0665 24.047 71.7709 24.0751 70.3912C24.0919 69.5688 25.1732 68.1731 25.806 66.4575C26.2349 65.2948 26.1871 64.0243 26.1871 64.0243Z" fill="#434856"/>
<path d="M36.9014 49.4376C41.0991 48.8497 50.5492 52.2479 50.422 64.2778C50.422 64.2778 54.9196 73.4296 50.0179 75.8315C50.0179 75.8315 46.8519 79.1808 43.6127 78.9886C43.6127 78.9886 40.648 80.3062 38.3421 79.2082C38.3421 79.2082 39.8519 79.3455 39.8519 78.824C39.8519 78.824 36.9696 78.9886 35.9539 78.3573C35.9539 78.3573 37.0245 79.922 37.9853 79.9494C37.9853 79.9494 33.5382 79.4004 33.0716 78.9063C33.0716 78.9063 28.954 77.8907 28.7344 77.2593C28.7344 77.2593 24.5317 75.1719 24.2561 73.0015C23.9804 70.8311 25.014 68.5229 25.1863 66.2836C25.3585 64.0443 24.3594 51.1942 36.9014 49.4376Z" fill="#3B435A"/>
<path d="M38.6825 52.527C38.6825 52.527 42.2804 53.654 43.2463 58.4298C44.4394 64.3285 45.3225 69.1715 46.1827 70.9632C47.1842 73.0494 47.7301 74.8695 47.5746 76.6571C47.4191 78.4448 44.4075 79.6448 44.4075 79.6448C44.4075 79.6448 46.5288 77.7028 46.4989 75.9401C46.4691 74.1774 44.4579 72.7739 43.8527 67.877C42.1557 54.145 38.6825 52.527 38.6825 52.527Z" fill="#434856"/>
<path d="M37.1523 52.527C37.1258 53.3232 36.3477 66.7873 36.0108 68.6859C35.6739 70.5846 33.9756 72.3717 34.8847 76.3111C35.2095 77.7186 36.9672 78.1485 36.9672 78.1485C36.9672 78.1485 34.1057 79.0366 33.9832 74.6575C33.8607 70.2784 34.8962 70.5535 35.1177 68.3679C35.3308 66.2657 35.415 60.6933 35.97 57.6922C36.525 54.6912 37.1523 52.527 37.1523 52.527Z" fill="#434856"/>
<path d="M35.9774 51.4883C35.9774 51.4883 31.5993 51.7851 29.8678 54.8769C28.1363 57.9686 27.9993 64.8007 26.9478 66.8159C25.8549 68.9105 25.5144 75.7522 26.8006 77.0878C28.0868 78.4234 29.101 78.9428 30.4862 78.9428C30.4862 78.9428 27.0582 77.2287 27.0582 74.0628C27.0582 70.8969 26.6806 69.6754 28.284 65.8521C28.8535 64.4941 29.7565 56.2027 30.9857 54.7451C32.641 52.7821 35.9774 51.4883 35.9774 51.4883Z" fill="#434856"/>
<path d="M40.5895 51.8318C40.5895 51.8318 44.5386 51.8239 46.2868 54.4909C48.035 57.158 48.5863 63.2828 49.6565 65.026C50.769 66.8379 52.1853 73.3718 51.3047 74.7892C50.4471 76.1697 48.9531 76.7709 47.7095 76.8578C47.7095 76.8578 51.0136 75.7125 50.8152 72.8704C50.6167 70.0282 50.0756 67.5764 48.3965 64.2446C47.8001 63.0611 46.4698 55.6742 45.2749 54.4427C43.6658 52.7842 40.5895 51.8318 40.5895 51.8318Z" fill="#434856"/>
<path d="M83.2212 105.451C80.2114 108.716 75.5256 137.587 80.8205 139.281C84.4298 140.435 85.3411 124.771 89.6565 113.387C94.0823 101.712 86.231 102.186 83.2212 105.451Z" fill="#FFD3D4"/>
<path d="M85.0121 139.882C85.0121 139.882 70.7813 130.772 76.1531 124.574C80.7587 119.26 76.5449 100.346 90.392 99.3345C91.975 99.2188 89.6569 136.575 85.0121 139.882Z" fill="#4282B8"/>
<path opacity="0.1" d="M82.0262 137.742C79.447 138.112 79.5939 113.727 82.4066 114.442C85.2193 115.157 82.9839 137.604 82.0262 137.742Z" fill="black"/>
<path d="M117.611 156.342C117.14 151.374 115.868 144.64 114.104 138.435C111.893 130.659 116.026 122.145 115.254 113.721C115.241 113.584 115.231 113.446 115.216 113.308C114.264 104.749 104.28 102.734 104.28 102.734L91.3344 99.4729C91.3344 99.4729 83.7611 99.4973 82.462 104.23C81.1627 108.962 81.1398 123.271 81.7096 129.192C82.2792 135.113 82.2659 162.237 80.8768 171.864C80.3887 175.246 100.739 181.439 106.01 181.024C111.281 180.609 118.386 176.703 119.815 174.522C120.41 173.614 117.947 159.886 117.611 156.342Z" fill="#4282B8"/>
<path opacity="0.1" d="M114.827 115.798C110.058 118.041 104.89 122.167 105.185 129.477C105.569 139.018 111.393 151.994 117.449 158.572C116.979 153.605 116.225 145.33 114.526 140.658C111.91 133.464 115.01 124.316 114.827 115.798Z" fill="black"/>
<path d="M109.135 123.769C107.727 127.98 112.056 160.902 117.58 160.278C121.346 159.854 120.394 140.107 119.669 127.954C118.925 115.49 110.544 119.557 109.135 123.769Z" fill="#FFD3D4"/>
<path d="M108.612 104.363C108.449 103.918 118.309 109.525 120.252 113.03C121.934 116.061 125.692 126.491 126.239 135.571C126.496 139.84 128.292 141.512 128.065 144.036C128.065 144.036 117.835 153.073 108.219 149.084C108.219 149.084 107.421 123.058 107.076 119.982C107.076 119.982 108.879 105.095 108.612 104.363Z" fill="#4282B8"/>
<path d="M98.4495 103.983C100.724 103.987 103.959 103.472 105.316 103.132C105.294 102.998 105.279 102.851 105.272 102.685C105.179 100.363 108.269 93.3266 104.858 91.138C101.447 88.9494 95.4616 88.8581 94.9584 92.8658C94.5139 96.4067 92.8683 100.227 92.6356 100.647C93.5697 101.819 95.6399 103.979 98.4495 103.983Z" fill="#FFCCCC"/>
<path d="M111.519 78.2409C112.159 79.1667 111.222 83.069 111.71 85.0623C113.25 91.3597 112.947 99.8587 102.312 100.193C91.9211 100.52 91.4523 95.3352 91.1232 88.7033C90.7942 82.0713 88.0776 79.0252 95.0048 75.1918C101.932 71.3584 108.845 74.3741 111.519 78.2409Z" fill="#FFD2D2"/>
<path d="M113.229 79.0144C113.625 71.7541 102.683 68.8733 97.3738 69.4701C95.2393 69.7101 90.0782 71.2237 89.3249 74.2367C80.533 82.2129 90.5269 97.6093 96.7376 98.4403C99.4237 98.7997 102.41 98.2991 103.911 96.6819C104.123 96.4532 105.055 95.1928 104.745 95.2346C103.72 95.3731 102.004 94.3149 102.188 90.7028C102.481 84.923 104.83 87.7441 105.386 88.7609C105.943 89.7778 106.186 91.8029 106.186 91.8029L106.892 92.9506L107.773 89.6396C109.531 87.4823 110.427 85.9004 110.986 83.7606C111.71 81.6178 112.875 80.9806 113.229 79.0144Z" fill="#3D4356"/>
<path d="M103.971 192.868L82.8859 181.303C81.6563 180.593 79.3995 179.899 79.3995 178.259C77.5244 167.648 77.2412 128.422 81.2257 126.43C85.2102 124.438 104.723 139.865 104.723 139.865C105.953 140.575 106.949 142.479 106.949 144.119C106.381 155.411 106.002 177.631 106.949 188.737C106.949 190.377 105.2 193.578 103.971 192.868Z" fill="#BBB4B4"/>
<path d="M180.162 52.2521C180.162 52.2521 180.669 55.8043 176.34 56.2313C172.011 56.6584 170.201 54.9843 170.831 53.6021C171.46 52.22 178.982 49.9159 180.162 52.2521Z" fill="#DBEBF4"/>
<path d="M167.626 44.0063C167.347 41.3562 165.561 34.4161 169.08 34.4242C172.599 34.4323 177.47 39.9897 177.47 42.4574C177.47 44.9251 176.329 49.1594 174.159 49.525C171.99 49.8906 167.994 47.5138 167.626 44.0063Z" fill="#FFD4D4"/>
<path d="M186.272 83.6027C191.978 82.3598 182.593 46.3039 176.602 47.6008C170.612 48.8976 169.964 49.1138 169.964 52.0317C169.964 54.9496 180.749 84.8058 186.272 83.6027Z" fill="#363E58"/>
<path d="M163.324 41.0889L162.214 25.9848C162.214 25.846 163.18 25.2313 163.542 25.2363L174.031 31.2918C174.151 31.3612 174.249 31.5299 174.249 31.6687V47.3957C174.249 47.5344 173.093 48.328 172.972 48.2586L163.542 41.4658C163.422 41.3964 163.324 41.2277 163.324 41.0889Z" fill="#4A4C56"/>
<path d="M162.197 41.7995V26.0727C162.197 25.934 162.294 25.8777 162.414 25.9471L172.903 32.0025C173.023 32.0719 173.121 32.2407 173.121 32.3794V48.1062C173.121 48.2449 173.023 48.3012 172.903 48.2318L162.414 42.1764C162.294 42.107 162.197 41.9382 162.197 41.7995Z" fill="#545456"/>
<path d="M164.579 32.723L163.056 31.8436C162.936 31.7742 162.839 31.6055 162.839 31.4667V30.2104C162.839 30.0717 162.936 30.0154 163.056 30.0848L164.579 30.9642C164.7 31.0336 164.797 31.2023 164.797 31.3411V32.5974C164.797 32.7361 164.7 32.7923 164.579 32.723Z" fill="#B9CCE3"/>
<path d="M172.25 34.664L163.056 29.3561C162.936 29.2867 162.839 29.118 162.839 28.9792V27.1243C162.839 26.9855 162.936 26.9293 163.056 26.9986L172.25 32.3066C172.371 32.376 172.468 32.5447 172.468 32.6834V34.5384C172.468 34.6771 172.371 34.7334 172.25 34.664Z" fill="#E6E6E6"/>
<path d="M167.136 34.1992L165.613 33.3197C165.493 33.2503 165.396 33.0816 165.396 32.9429V31.6866C165.396 31.5478 165.493 31.4916 165.613 31.561L167.136 32.4404C167.257 32.5098 167.354 32.6785 167.354 32.8172V34.0735C167.354 34.2123 167.257 34.2685 167.136 34.1992Z" fill="#B9CCE3"/>
<path d="M169.693 35.6753L168.17 34.7959C168.05 34.7265 167.953 34.5578 167.953 34.4191V33.1628C167.953 33.024 168.05 32.9678 168.17 33.0372L169.693 33.9166C169.814 33.9859 169.911 34.1547 169.911 34.2934V35.5497C169.911 35.6885 169.814 35.7447 169.693 35.6753Z" fill="#B9CCE3"/>
<path d="M172.25 37.1515L170.727 36.2721C170.607 36.2027 170.51 36.034 170.51 35.8953V34.639C170.51 34.5002 170.607 34.444 170.727 34.5133L172.25 35.3928C172.371 35.4621 172.468 35.6309 172.468 35.7696V37.0259C172.468 37.1647 172.371 37.2209 172.25 37.1515Z" fill="#B9CCE3"/>
<path d="M164.579 35.2105L163.056 34.3311C162.936 34.2617 162.839 34.0929 162.839 33.9542V32.6979C162.839 32.5592 162.936 32.5029 163.056 32.5723L164.579 33.4517C164.7 33.5211 164.797 33.6898 164.797 33.8286V35.0848C164.797 35.2236 164.7 35.2798 164.579 35.2105Z" fill="#B9CCE3"/>
<path d="M167.136 36.6866L165.613 35.8072C165.493 35.7378 165.396 35.5691 165.396 35.4304V34.1741C165.396 34.0353 165.493 33.9791 165.613 34.0484L167.136 34.9279C167.257 34.9972 167.354 35.166 167.354 35.3047V36.561C167.354 36.6998 167.257 36.756 167.136 36.6866Z" fill="#B9CCE3"/>
<path d="M169.693 38.1628L168.17 37.2834C168.05 37.214 167.953 37.0453 167.953 36.9066V35.6503C167.953 35.5115 168.05 35.4553 168.17 35.5246L169.693 36.404C169.814 36.4734 169.911 36.6422 169.911 36.7809V38.0372C169.911 38.176 169.814 38.2322 169.693 38.1628Z" fill="#B9CCE3"/>
<path d="M172.25 39.639L170.727 38.7596C170.607 38.6902 170.51 38.5215 170.51 38.3827V37.1265C170.51 36.9877 170.607 36.9315 170.727 37.0008L172.25 37.8802C172.371 37.9496 172.468 38.1184 172.468 38.2571V39.5134C172.468 39.6521 172.371 39.7084 172.25 39.639Z" fill="#B9CCE3"/>
<path d="M164.579 37.6979L163.056 36.8185C162.936 36.7491 162.839 36.5804 162.839 36.4416V35.1854C162.839 35.0466 162.936 34.9904 163.056 35.0597L164.579 35.9391C164.7 36.0085 164.797 36.1773 164.797 36.316V37.5723C164.797 37.711 164.7 37.7673 164.579 37.6979Z" fill="#B9CCE3"/>
<path d="M167.136 39.1741L165.613 38.2947C165.493 38.2253 165.396 38.0566 165.396 37.9178V36.6616C165.396 36.5228 165.493 36.4666 165.613 36.5359L167.136 37.4153C167.257 37.4847 167.354 37.6535 167.354 37.7922V39.0485C167.354 39.1872 167.257 39.2435 167.136 39.1741Z" fill="#B9CCE3"/>
<path d="M169.693 40.6503L168.17 39.7709C168.05 39.7015 167.953 39.5328 167.953 39.394V38.1377C167.953 37.999 168.05 37.9427 168.17 38.0121L169.693 38.8915C169.814 38.9609 169.911 39.1296 169.911 39.2684V40.5247C169.911 40.6634 169.814 40.7197 169.693 40.6503Z" fill="#B9CCE3"/>
<path d="M172.25 42.1265L170.727 41.2471C170.607 41.1777 170.51 41.009 170.51 40.8702V39.6139C170.51 39.4752 170.607 39.4189 170.727 39.4883L172.25 40.3677C172.371 40.4371 172.468 40.6058 172.468 40.7446V42.0009C172.468 42.1396 172.371 42.1958 172.25 42.1265Z" fill="#B9CCE3"/>
<path d="M164.579 40.1854L163.056 39.306C162.936 39.2366 162.839 39.0679 162.839 38.9291V37.6728C162.839 37.5341 162.936 37.4778 163.056 37.5472L164.579 38.4266C164.7 38.496 164.797 38.6647 164.797 38.8035V40.0598C164.797 40.1985 164.7 40.2547 164.579 40.1854Z" fill="#B9CCE3"/>
<path d="M167.136 41.6616L165.613 40.7822C165.493 40.7128 165.396 40.5441 165.396 40.4053V39.149C165.396 39.0103 165.493 38.954 165.613 39.0234L167.136 39.9028C167.257 39.9722 167.354 40.1409 167.354 40.2797V41.536C167.354 41.6747 167.257 41.7309 167.136 41.6616Z" fill="#B9CCE3"/>
<path d="M169.693 43.1378L168.17 42.2583C168.05 42.1889 167.953 42.0202 167.953 41.8815V40.6252C167.953 40.4864 168.05 40.4302 168.17 40.4996L169.693 41.379C169.814 41.4484 169.911 41.6171 169.911 41.7558V43.0121C169.911 43.1509 169.814 43.2071 169.693 43.1378Z" fill="#B9CCE3"/>
<path d="M164.579 42.6729L163.056 41.7935C162.936 41.7241 162.839 41.5553 162.839 41.4166V40.1603C162.839 40.0216 162.936 39.9653 163.056 40.0347L164.579 40.9141C164.7 40.9835 164.797 41.1522 164.797 41.291V42.5472C164.797 42.686 164.7 42.7422 164.579 42.6729Z" fill="#B9CCE3"/>
<path d="M167.136 44.149L165.613 43.2696C165.493 43.2002 165.396 43.0315 165.396 42.8928V41.6365C165.396 41.4977 165.493 41.4415 165.613 41.5108L167.136 42.3903C167.257 42.4596 167.354 42.6284 167.354 42.7671V44.0234C167.354 44.1622 167.257 44.2184 167.136 44.149Z" fill="#B9CCE3"/>
<path d="M169.693 45.6252L168.17 44.7458C168.05 44.6764 167.953 44.5077 167.953 44.369V43.1127C167.953 42.9739 168.05 42.9177 168.17 42.987L169.693 43.8665C169.814 43.9358 169.911 44.1046 169.911 44.2433V45.4996C169.911 45.6383 169.814 45.6946 169.693 45.6252Z" fill="#B9CCE3"/>
<path d="M172.25 47.1014L170.727 46.222C170.607 46.1526 170.51 45.9838 170.51 45.8451V42.1014C170.51 41.9626 170.607 41.9064 170.727 41.9757L172.25 42.8552C172.371 42.9245 172.468 43.0933 172.468 43.232V46.9757C172.468 47.1145 172.371 47.1707 172.25 47.1014Z" fill="#B9CCE3"/>
<path d="M187.561 64.5754C188.936 65.7447 190.417 68.3918 189.05 70.9436C187.63 73.5935 183.116 71.9135 182.271 71.3454C176.526 67.4818 177.385 65.0312 178.343 62.7726C179.302 60.514 184.698 62.1415 187.561 64.5754Z" fill="#FFD3D4"/>
<path d="M219.757 87.9902C219.757 87.9902 219.637 93.5741 216.285 93.6387C212.933 93.7032 184.748 75.8906 185.607 74.0441C186.465 72.1976 188.888 67.0869 190.655 67.7344C192.421 68.382 219.075 83.3845 219.757 87.9902Z" fill="#363E58"/>
<path d="M186.799 65.9724C186.522 62.0789 186.682 60.8155 188.381 61.3429C190.081 61.8704 188.928 67.8086 188.928 67.8086L186.799 65.9724Z" fill="#FFD3D4"/>
<path d="M175.445 43.807C171.506 40.8446 170.305 39.5498 169.911 41.1642C169.462 43.0042 173.597 47.3774 174.618 46.9681C176.974 46.0242 175.445 43.807 175.445 43.807Z" fill="#FFD4D4"/>
</g>
<defs>
<clipPath id="clip0_28_932">
<rect width="256" height="252" fill="white"/>
</clipPath>
</defs>
</svg>
